<?xml version="1.0" encoding="utf-8"?>
<!-- Generator: Adobe Illustrator 22.1.0, SVG Export Plug-In . SVG Version: 6.00 Build 0)  -->
<svg version="1.1" id="Layer_1" xmlns="http://www.w3.org/2000/svg" xmlns:xlink="http://www.w3.org/1999/xlink" x="0px" y="0px"
	 viewBox="0 0 512 512" style="enable-background:new 0 0 512 512;" xml:space="preserve">
<style type="text/css">
	.st0{fill:#825A2C;}
	.st1{fill:#624421;}
	.st2{fill:#CEB520;}
	.st3{fill:#EFDB4D;}
	.st4{fill:#783E22;}
	.st5{fill:#A0522D;}
	.st6{fill:#EF314C;}
</style>
<path class="st0" d="M85.3,273.1l-70.9-70.9c-1.1-1.1-1.5-2.8-1-4.3c0.5-1.5,1.8-2.6,3.4-2.9l34.8-5.8c5.2-0.9,10.5,0.7,14.3,4.2
	l96.4,88.3L85.3,273.1z"/>
<path class="st1" d="M497.6,202.2l-70.9,70.9l-85.3,17.1l18.9-17.4l85.9-79.4c3.9-3.5,9.2-5.1,14.4-4.3l12.6,2.1l22.1,3.7
	c1.6,0.3,2.9,1.4,3.4,2.9C499.1,199.4,498.7,201,497.6,202.2z"/>
<path class="st0" d="M473.2,191.2c-0.1,0.9-0.5,1.8-1.2,2.4l-70.9,70.9l-40.9,8.2l85.9-79.4c3.9-3.5,9.2-5.1,14.4-4.3L473.2,191.2z"
	/>
<path class="st2" d="M400.7,106.8c26.9,47.7,21.6,107.1-13.4,149.3c-0.3,0.4-0.6,0.8-0.9,1.2l-24.3,24.4H162.3l-36.7-24.4
	c-0.3-0.4-0.7-0.8-0.9-1.2c-6-7.2-11.2-15-15.5-23.3v-0.1c-21.1-39.5-20.3-87,2.1-125.8v-0.1c-5-13.3-28.2-81.6-15-95.6
	c1.6-1.7,3.8-2.7,6.1-2.6c23,0,50.9,13,70.7,28.2c3,2.3,5.7,4.6,8.3,6.9c4.9-2.3,10.1-4.4,15.4-6.2c8.1-2.9,16.5-5.1,25-6.7
	c6.6-1.3,13.2-2.3,19.9-2.7c0.5-0.1,1-0.1,1.5-0.1c4.2-0.3,8.4-0.5,12.8-0.5c4.9,0,9.6,0.2,14.3,0.6c6.7,0.5,13.3,1.4,19.9,2.7
	c7.8,1.4,15.5,3.4,23,6c0.7,0.3,1.3,0.4,2,0.7c5.3,1.9,10.4,3.9,15.4,6.2c17.1-15.3,37.5-26.4,59.6-32.5c6.3-1.7,12.8-2.6,19.4-2.6
	C434.6,8.5,406.4,91.9,400.7,106.8z"/>
<path class="st3" d="M375.1,106.8c26.9,47.7,21.6,107.1-13.4,149.3c-0.3,0.4-0.6,0.8-0.9,1.2l-24.3,24.4H162.3l-36.7-24.4
	c-0.3-0.4-0.7-0.8-0.9-1.2c-6-7.2-11.2-15-15.5-23.3v-0.1c-21.1-39.5-20.3-87,2.1-125.8v-0.1c-5-13.3-28.2-81.6-15-95.6
	c22.1,6.1,42.5,17.2,59.6,32.5c4.9-2.3,10.1-4.4,15.4-6.2c0.7-0.3,1.3-0.4,2-0.7c7.5-2.5,15.2-4.5,23-6c6.6-1.3,13.2-2.3,19.9-2.7
	c4.7-0.4,9.5-0.6,14.3-0.6c4.4,0,8.6,0.2,12.8,0.5c0.5,0,1,0,1.5,0.1c6.7,0.5,13.3,1.4,19.9,2.7c8.5,1.5,16.9,3.8,25,6.7
	c5.3,1.9,10.4,3.9,15.4,6.2c2.6-2.3,5.3-4.6,8.3-6.9c0.7,0.3,1.3,0.4,2,0.7c5.3,1.9,10.4,3.9,15.4,6.2
	c17.1-15.3,37.5-26.4,59.6-32.5C403.3,25.4,380.2,93.4,375.1,106.8z"/>
<path class="st4" d="M426.7,273.1v213.3c0,9.4-7.7,17-17.1,17.1H102.4c-9.4,0-17-7.7-17.1-17.1V273.1H426.7z"/>
<path class="st5" d="M401.1,273.1v213.3c0.3,9.1-6.7,16.7-15.8,17.1H101.1c-9.1-0.4-16.1-8-15.8-17.1V273.1H401.1z"/>
<path class="st6" d="M109.1,26c20,3.8,38.9,12.5,54.8,25.3c-15.8,9.7-29.8,22.1-41.1,36.8C115.6,68.1,111,47.2,109.1,26z"/>
<path class="st6" d="M402.9,26c-1.8,21.2-6.4,42-13.7,62c-11.4-14.6-25.3-27.1-41.1-36.8C364,38.5,382.8,29.9,402.9,26z"/>
<path class="st3" d="M221.9,281.6c0,18.6-14.3,29.1-34.1,32.7c-0.6,0.1-1.1,0.2-1.7,0.3c-2.8,5.9-8.8,9.7-15.4,9.7
	c-4.5,0-8.9-1.8-12-5c-1.4-1.3-2.5-2.9-3.3-4.7c-0.6-0.1-1.1-0.2-1.7-0.3c-19.9-3.6-34.1-14.1-34.1-32.7c0-2.9,0.3-5.7,0.9-8.5
	c1.2-5.4,3.3-10.6,6.1-15.3c8.9-16.2,25.7-26.6,44.1-27.4c24.4,1.4,44.9,18.8,50.3,42.7C221.5,275.9,221.8,278.7,221.9,281.6z"/>
<path class="st2" d="M392.5,281.6c0,18.6-14.3,29.1-34.1,32.7c-0.6,0.1-1.1,0.2-1.7,0.3c-2.8,5.9-8.8,9.7-15.4,9.7
	c-4.5,0-8.9-1.8-12-5c-0.3-0.3-0.5-0.6-0.8-0.9c-1.1-1.1-1.9-2.4-2.6-3.8c-0.6-0.1-1.1-0.2-1.7-0.3c-19.9-3.6-34.1-14.1-34.1-32.7
	c0-2.9,0.3-5.7,0.9-8.5c1.2-5.4,3.3-10.6,6.1-15.3c6.9-12.1,18-21.1,31.2-25.4c4.2-1.3,8.5-2,12.9-2c24.4,1.4,44.9,18.8,50.3,42.7
	C392.2,275.9,392.5,278.7,392.5,281.6z"/>
<path class="st3" d="M366.9,281.6c0,18.6-14.3,29.1-34.1,32.7c-0.6,0.1-1.1,0.2-1.7,0.3c-0.7,1.4-1.5,2.7-2.6,3.8
	c-1.1-1.1-1.9-2.4-2.6-3.8c-0.6-0.1-1.1-0.2-1.7-0.3c-19.9-3.6-34.1-14.1-34.1-32.7c0-2.9,0.3-5.7,0.9-8.5
	c1.2-5.4,3.3-10.6,6.1-15.3c6.9-12.1,18-21.1,31.2-25.4c18.7,6.1,33,21.5,37.5,40.7C366.6,275.9,366.9,278.7,366.9,281.6z"/>
<g>
	<path class="st2" d="M273.1,51.2c0,23.6-7.7,42.7-17.1,42.7s-17.1-19.1-17.1-42.7c0-7.8,0.9-15.6,2.7-23.1
		c4.7-0.4,9.5-0.6,14.3-0.6s9.6,0.2,14.3,0.6C272.2,35.6,273.1,43.4,273.1,51.2z"/>
	<path class="st2" d="M221.8,30.8c-0.8,21.1-6.1,37.5-12.7,37.5c-5.9,0-10.8-13.1-12.3-30.8C204.9,34.6,213.3,32.4,221.8,30.8z"/>
	<path class="st2" d="M315.2,37.5c-1.5,17.8-6.4,30.8-12.3,30.8c-6.6,0-11.9-16.4-12.7-37.5C298.7,32.4,307.1,34.6,315.2,37.5z"/>
</g>
<path class="st6" d="M279.1,161.7l-12.8,13.5c-5.8,5.4-14.7,5.4-20.5,0l-12.8-13.5c-2.1-2-3-5-2.3-7.8c1.8-5.3,7-8.8,12.6-8.3h25.6
	c5.6-0.4,10.8,3,12.6,8.3C282,156.7,281.2,159.7,279.1,161.7z"/>
<path d="M409.6,512H102.4c-14.1,0-25.6-11.5-25.6-25.6V273.1c0-4.7,3.8-8.5,8.5-8.5h34.9c4.7,0,8.5,3.8,8.5,8.5
	c0,4.7-3.8,8.5-8.5,8.5H93.9v204.8c0,4.7,3.8,8.5,8.5,8.5h307.2c4.7,0,8.5-3.8,8.5-8.5V281.6h-26.4c-4.7,0-8.5-3.8-8.5-8.5
	c0-4.7,3.8-8.5,8.5-8.5h34.9c4.7,0,8.5,3.8,8.5,8.5v213.3C435.2,500.5,423.7,512,409.6,512z"/>
<path d="M291.1,281.6h-70.1c-4.7,0-8.5-3.8-8.5-8.5c0-4.7,3.8-8.5,8.5-8.5h70.1c4.7,0,8.5,3.8,8.5,8.5
	C299.6,277.8,295.8,281.6,291.1,281.6z"/>
<path d="M85.3,281.6c-2.3,0-4.4-0.9-6-2.5L2.5,202.3c-2.3-2.3-3.1-5.6-2.1-8.6c1-3,3.6-5.3,6.7-5.8l51.2-8.5
	c2.6-0.4,5.2,0.3,7.1,2.1l49.4,44.9c2.3,2.1,3.3,5.4,2.5,8.4c-0.8,3.1-3.2,5.5-6.3,6.2c-3.1,0.8-6.3-0.2-8.4-2.6l-45.7-41.5
	L26.3,202L91.4,267c2.4,2.4,3.2,6.1,1.8,9.3C91.9,279.5,88.8,281.6,85.3,281.6z"/>
<path d="M426.7,281.6c-3.5,0-6.6-2.1-7.9-5.3c-1.3-3.2-0.6-6.9,1.8-9.3l65.1-65.1l-30.8-5.1l-46.3,42.1c-2.3,2.1-5.4,2.8-8.3,1.8
	c-2.9-0.9-5.1-3.3-5.8-6.3c-0.6-3,0.4-6.1,2.6-8.1l49.4-44.9c1.9-1.8,4.6-2.5,7.1-2.1l51.2,8.5c3.2,0.5,5.7,2.8,6.7,5.8
	c1,3,0.2,6.4-2.1,8.6l-76.8,76.8C431.1,280.7,428.9,281.6,426.7,281.6z"/>
<path d="M386.4,265.7c-3.3,0-6.3-1.9-7.7-4.9c-1.4-3-0.9-6.6,1.2-9.1c6-7.1,11.1-14.8,15.4-23c19.8-36.9,19-81.4-2-117.7
	c-1.3-2.2-1.5-4.9-0.6-7.3c14.1-37.2,22.6-81,16.8-86.8c-24.3,0.2-55.2,16.7-73.2,33.1c-2.5,2.3-6.2,2.9-9.3,1.4
	c-45.1-20.6-96.9-20.6-142,0c-3.1,1.4-6.8,0.9-9.3-1.4c-18-16.4-48.9-32.9-73.3-32.9c-5.7,5.6,2.7,49.5,16.9,86.7c0.4,1,0.6,2,0.6,3
	c0,1.5-0.4,3-1.1,4.3c-21,36.2-21.7,80.7-2,117.5c0.1,0.3,0.3,0.5,0.4,0.8c4.2,8,9.3,15.4,15.1,22.3c3,3.6,2.5,8.9-1.1,12
	c-3.6,3-8.9,2.6-12-0.9c-6.8-8-12.7-16.7-17.5-26.1c-0.1-0.2-0.2-0.5-0.3-0.7c-21.4-40.7-21.2-89.4,0.7-129.8
	c-6.2-17.1-27.2-79-13.6-98.8c3.1-4.7,8.4-7.4,14.1-7.3c28,0,60.2,16.8,80.5,33.7c46.7-19.7,99.4-19.7,146.2,0
	C349.4,16.8,381.6,0,409.6,0c5.6-0.1,10.9,2.7,14.1,7.3c13.6,19.7-7.3,81.5-13.6,98.7c10.8,20.2,16.5,42.7,16.6,65.6
	c0,22.7-5.6,45-16.3,65c-4.8,9.3-10.7,18.1-17.5,26.1C391.3,264.6,388.9,265.7,386.4,265.7z"/>
<path d="M186,323.1c-4.5,0-8.2-3.5-8.5-7.9c-0.3-4.5,2.9-8.4,7.4-9l0.8-0.1c0,0,0.9-0.1,1-0.1c12-2.2,26.8-8.2,26.8-24.2
	c0-2.3-0.3-4.6-0.8-6.8c-4.5-19.9-21.6-34.5-41.9-35.8c-15.4,0.9-29.3,9.6-36.8,23.2c-2.4,3.9-4.1,8.2-5.2,12.7
	c-0.5,2.2-0.7,4.5-0.8,6.8c0,16,14.7,22.1,27.1,24.3c4.8,0.6,8.3,4.9,8,9.7c-0.2,2.2-1.2,4.2-2.9,5.6c-1.7,1.4-3.9,2-6,1.8l-1-0.1
	c-0.1,0-1-0.1-1.1-0.2c-26.2-4.7-41.2-19.7-41.2-41.1c0-3.4,0.4-6.9,1.1-10.3c1.4-6.3,3.8-12.4,7.2-17.9
	c10.4-18.8,29.9-30.8,51.4-31.6c28.4,1.4,52.4,21.6,58.6,49.4c0.7,3.4,1.1,6.9,1.1,10.3c0,21.4-15,36.4-41.2,41.1
	c-0.1,0-1,0.1-1.1,0.2l-1,0.2C186.8,323,186.4,323.1,186,323.1z"/>
<path d="M356.7,323.1c-4.5,0-8.2-3.5-8.5-7.9c-0.3-4.5,2.9-8.4,7.4-9l0.8-0.1c0,0,0.9-0.1,0.9-0.1c12-2.2,26.8-8.2,26.8-24.2
	c0-2.3-0.3-4.6-0.8-6.8c-1-4.5-2.8-8.7-5.1-12.6c-7.4-13.6-21.3-22.4-36.8-23.2c-20.4,1.4-37.4,16-41.9,35.9
	c-0.5,2.2-0.7,4.5-0.7,6.7c0,16,14.7,22.1,27.1,24.3c4.8,0.6,8.3,4.9,8,9.7c-0.2,2.2-1.2,4.2-2.9,5.6c-1.7,1.4-3.9,2-6.1,1.8l-1-0.1
	c-0.1,0-1-0.1-1.1-0.2c-26.2-4.7-41.2-19.7-41.2-41.1c0-3.4,0.4-6.9,1.1-10.3c6.2-27.8,30.2-48.1,58.6-49.5
	c21.5,0.7,41.1,12.7,51.5,31.6c3.3,5.5,5.7,11.5,7.1,17.8c0.7,3.4,1.1,6.8,1.1,10.3c0,21.4-15,36.4-41.2,41.1c-0.1,0-1,0.1-1,0.2
	l-1,0.2C357.5,323,357.1,323.1,356.7,323.1z"/>
<path d="M170.7,332.8c-14.1,0-25.6-11.5-25.6-25.6v-8.5c0-4.7,3.8-8.5,8.5-8.5c4.7,0,8.5,3.8,8.5,8.5v8.5c0,4.7,3.8,8.5,8.5,8.5
	c4.7,0,8.5-3.8,8.5-8.5v-8.5c0-4.7,3.8-8.5,8.5-8.5c4.7,0,8.5,3.8,8.5,8.5v8.5C196.3,321.3,184.8,332.8,170.7,332.8z"/>
<path d="M341.3,332.8c-14.1,0-25.6-11.5-25.6-25.6v-8.5c0-4.7,3.8-8.5,8.5-8.5c4.7,0,8.5,3.8,8.5,8.5v8.5c0,4.7,3.8,8.5,8.5,8.5
	c4.7,0,8.5-3.8,8.5-8.5v-8.5c0-4.7,3.8-8.5,8.5-8.5c4.7,0,8.5,3.8,8.5,8.5v8.5C366.9,321.3,355.5,332.8,341.3,332.8z"/>
<path d="M119.5,512c-4.7,0-8.5-3.8-8.5-8.5v-25.6c0-4.7,3.8-8.5,8.5-8.5c4.7,0,8.5,3.8,8.5,8.5v25.6C128,508.2,124.2,512,119.5,512z
	"/>
<path d="M153.6,512c-4.7,0-8.5-3.8-8.5-8.5v-25.6c0-4.7,3.8-8.5,8.5-8.5c4.7,0,8.5,3.8,8.5,8.5v25.6
	C162.1,508.2,158.3,512,153.6,512z"/>
<path d="M187.7,512c-4.7,0-8.5-3.8-8.5-8.5v-25.6c0-4.7,3.8-8.5,8.5-8.5c4.7,0,8.5,3.8,8.5,8.5v25.6
	C196.3,508.2,192.4,512,187.7,512z"/>
<path d="M221.9,512c-4.7,0-8.5-3.8-8.5-8.5v-25.6c0-4.7,3.8-8.5,8.5-8.5c4.7,0,8.5,3.8,8.5,8.5v25.6
	C230.4,508.2,226.6,512,221.9,512z"/>
<path d="M256,512c-4.7,0-8.5-3.8-8.5-8.5v-25.6c0-4.7,3.8-8.5,8.5-8.5c4.7,0,8.5,3.8,8.5,8.5v25.6C264.5,508.2,260.7,512,256,512z"
	/>
<path d="M290.1,512c-4.7,0-8.5-3.8-8.5-8.5v-25.6c0-4.7,3.8-8.5,8.5-8.5s8.5,3.8,8.5,8.5v25.6C298.7,508.2,294.8,512,290.1,512z"/>
<path d="M324.3,512c-4.7,0-8.5-3.8-8.5-8.5v-25.6c0-4.7,3.8-8.5,8.5-8.5c4.7,0,8.5,3.8,8.5,8.5v25.6C332.8,508.2,329,512,324.3,512z
	"/>
<path d="M358.4,512c-4.7,0-8.5-3.8-8.5-8.5v-25.6c0-4.7,3.8-8.5,8.5-8.5c4.7,0,8.5,3.8,8.5,8.5v25.6
	C366.9,508.2,363.1,512,358.4,512z"/>
<path d="M392.5,512c-4.7,0-8.5-3.8-8.5-8.5v-25.6c0-4.7,3.8-8.5,8.5-8.5c4.7,0,8.5,3.8,8.5,8.5v25.6
	C401.1,508.2,397.2,512,392.5,512z"/>
<path d="M213.3,128c-2.2,0-4.4-0.9-6-2.5c-12.8-10.3-28.8-15.5-45.2-14.6c-4.7,0-8.5-3.8-8.5-8.5c0-4.7,3.8-8.5,8.5-8.5
	c20.9-0.9,41.3,6.1,57.2,19.6c2.4,2.4,3.2,6.1,1.8,9.3S216.8,128,213.3,128z"/>
<path d="M298.7,128c-3.4,0-6.6-2.1-7.9-5.2s-0.6-6.8,1.8-9.3C308.6,99.9,329,93,349.9,93.9c4.7,0,8.5,3.8,8.5,8.5
	c0,4.7-3.8,8.5-8.5,8.5c-16.4-0.9-32.5,4.3-45.2,14.6C303.1,127.1,300.9,128,298.7,128z"/>
<path d="M256,187.7c-6.2,0.1-12.1-2.4-16.5-6.8l-12.8-13.7c-4.8-5-6.2-12.3-3.5-18.7c3.7-7.6,11.5-12.3,19.9-12h25.6
	c8.4-0.3,16.3,4.4,19.9,12.1c2.7,6.4,1.4,13.7-3.5,18.7l-12.8,13.7C268.1,185.4,262.2,187.8,256,187.7z M243.2,153.6
	c-2.9,0-4.2,1.4-4.3,1.8l13.1,13.9c2.4,1.7,5.6,1.7,8,0l12.8-13.7c0.2-0.6-1.1-2-4-2L243.2,153.6z"/>
<path d="M221.9,221.9c-9.1,0.3-18-3.2-24.4-9.7c-6.5-6.5-10-15.3-9.7-24.4c0-4.7,3.8-8.5,8.5-8.5c4.7,0,8.5,3.8,8.5,8.5
	c-0.3,4.6,1.4,9.1,4.7,12.4c3.3,3.3,7.8,5,12.4,4.7c18.6,0,25.8-27.4,25.9-27.7c1.1-4.6,5.8-7.3,10.4-6.2c4.6,1.1,7.3,5.8,6.2,10.4
	C263.9,182.9,253.8,221.9,221.9,221.9z"/>
<path d="M290.1,221.9c-31.9,0-42-38.9-42.4-40.6c-1.1-4.6,1.6-9.2,6.2-10.4s9.2,1.6,10.4,6.2c0.1,0.3,7.3,27.7,25.9,27.7
	c4.6,0.3,9.1-1.4,12.4-4.7c3.3-3.3,5-7.8,4.7-12.4c0-4.7,3.8-8.5,8.5-8.5c4.7,0,8.5,3.8,8.5,8.5c0.3,9.1-3.2,18-9.7,24.4
	C308.1,218.6,299.3,222.1,290.1,221.9z"/>
</svg>
