<svg height="512pt" viewBox="0 0 512 512.00949" width="512pt" xmlns="http://www.w3.org/2000/svg"><path d="m503.472656 282.367188c0 57.855468-38.144531 109.3125-97.367187 141.824218l-102.996094 33.367188c-15.609375 2.167968-31.347656 3.253906-47.105469 3.242187-4.265625 0-8.53125-.085937-12.800781-.257812-11.476563-.421875-22.925781-1.417969-34.300781-2.984375l-103-33.367188c-59.21875-32.511718-97.363282-83.96875-97.363282-141.824218 0-39.507813 17.75-85.757813 47.871094-127.144532l21.929688-18.09375 59.5625-49.066406 32.683594-26.878906c2.304687-1.023438 4.695312-2.046875 7.082031-2.902344 4.695312-1.875 9.386719-3.582031 14.25-5.117188 16.589843-5.550781 33.828125-8.9375 51.285156-10.070312 4.183594-.257812 8.535156-.425781 12.800781-.425781 21.785156.050781 43.421875 3.59375 64.085938 10.496093 4.863281 1.535157 9.558594 3.242188 14.25 5.117188 2.390625.855469 4.78125 1.878906 7.082031 2.902344l32.683594 26.878906 59.5625 49.066406 21.929687 18.09375c30.125 41.386719 47.875 87.636719 47.875 127.144532zm0 0" fill="#37474f"/><path d="m477.871094 282.367188c0 57.855468-38.144532 109.3125-97.363282 141.824218l-103 33.367188c-11.375 1.566406-22.824218 2.5625-34.304687 2.984375-11.476563-.421875-22.925781-1.417969-34.300781-2.984375l-103-33.367188c-59.21875-32.511718-97.363282-83.96875-97.363282-141.824218 0-39.507813 17.75-85.757813 47.871094-127.144532l21.929688-18.09375 59.5625-49.066406 32.683594-26.878906c2.304687-1.023438 4.695312-2.046875 7.082031-2.902344 4.695312-1.875 9.386719-3.582031 14.25-5.117188 16.589843-5.550781 33.828125-8.9375 51.285156-10.070312 17.460937 1.132812 34.695313 4.519531 51.285156 10.070312 4.867188 1.535157 9.558594 3.242188 14.253907 5.117188 2.386718.855469 4.777343 1.878906 7.082031 2.902344l32.683593 26.878906 59.5625 49.066406 21.929688 18.09375c30.121094 41.386719 47.871094 87.636719 47.871094 127.144532zm0 0" fill="#607d8b"/><path d="m418.136719 134.230469c-.425781 8.617187-.851563-2.730469-1.277344 2.304687h-321.707031c-.425782-5.035156-.855469 6.3125-1.28125-2.304687l44.03125-46.167969 32.683594-26.878906c2.304687-1.023438 4.695312-2.046875 7.082031-2.902344 4.695312-1.875 9.386719-3.582031 14.25-5.117188 8.335937 15.609376 14.839843 32.128907 19.371093 49.234376h89.429688c4.535156-17.105469 11.035156-33.625 19.371094-49.234376 4.863281 1.535157 9.558594 3.242188 14.25 5.117188 2.390625.855469 4.78125 1.878906 7.082031 2.902344l32.683594 26.878906zm0 0" fill="#37474f"/><path d="m455.597656 155.222656c2.988282-29.867187 12.375-146.6875-24.660156-146.6875-25.429688 0-63.316406 29.265625-89.515625 52.648438-17.578125 15.703125-29.949219 28.84375-29.949219 28.84375h-110.933594s-12.375-13.140625-29.953124-28.84375c-26.195313-23.382813-64.085938-52.648438-89.515626-52.648438-37.035156 0-27.648437 116.820313-24.660156 146.6875zm0 0" fill="#607d8b"/><path d="m455.597656 155.222656h-25.597656c2.730469-26.964844 10.582031-124.671875-15.105469-143.617187 5.144531-1.894531 10.5625-2.933594 16.042969-3.070313 37.035156 0 27.648438 116.820313 24.660156 146.6875zm0 0" fill="#37474f"/><path d="m177.667969 380.671875c13.523437 16.710937 23.199219 36.195313 28.339843 57.070313 2.242188 9.007812 3.25 18.277343 3.003907 27.554687-.117188 7.597656-1.789063 15.09375-4.90625 22.023437-5.140625 12.125-18.363281 18.6875-31.128907 15.453126-7.40625-1.703126-14.386718-4.898438-20.511718-9.398438-7.542969-5.410156-14.316406-11.816406-20.140625-19.042969-13.523438-16.710937-23.199219-36.195312-28.339844-57.070312" fill="#607d8b"/><path d="m334.339844 380.671875c-13.523438 16.710937-23.199219 36.195313-28.339844 57.070313-2.238281 9.007812-3.25 18.277343-3.003906 27.554687.121094 7.597656 1.789062 15.09375 4.910156 22.023437 5.140625 12.125 18.359375 18.6875 31.128906 15.453126 7.40625-1.703126 14.386719-4.898438 20.511719-9.398438 7.539063-5.410156 14.3125-11.816406 20.136719-19.042969 13.523437-16.710937 23.199218-36.195312 28.339844-57.070312" fill="#607d8b"/><path d="m408.070312 417.28125c-2.578124 10.390625-6.300781 20.464844-11.09375 30.035156-4.730468 9.644532-10.542968 18.722656-17.324218 27.050782-5.816406 7.230468-12.589844 13.632812-20.136719 19.03125-6.132813 4.460937-13.097656 7.652343-20.480469 9.386718-6.191406 1.449219-12.6875.757813-18.433594-1.964844-.085937 0-.085937-.085937-.171874-.085937 4.773437-1.894531 9.300781-4.355469 13.484374-7.335937 7.546876-5.398438 14.324219-11.800782 20.140626-19.03125 6.78125-8.328126 12.59375-17.40625 17.320312-27.050782 4.796875-9.570312 8.515625-19.644531 11.09375-30.035156zm0 0" fill="#37474f"/><path d="m140.804688 112.46875c-3.796876-9.292969-8.515626-18.183594-14.078126-26.539062-10.515624-16.070313-23.175781-30.625-37.632812-43.261719-6.601562 26.800781-9.074219 54.453125-7.339844 82.003906zm0 0" fill="#ef314c"/><path d="m371.203125 112.46875c3.800781-9.292969 8.515625-18.183594 14.082031-26.539062 10.511719-16.070313 23.171875-30.625 37.632813-43.261719 6.597656 26.800781 9.074219 54.453125 7.335937 82.003906zm0 0" fill="#ef314c"/><path d="m204.804688 204.800781c0-13.195312-13.371094-23.894531-29.867188-23.894531s-29.867188 10.699219-29.867188 23.894531c0 13.195313 13.371094 23.890625 29.867188 23.890625s29.867188-10.695312 29.867188-23.890625zm0 0" fill="#3f51b5"/><path d="m366.9375 204.800781c0-13.195312-13.371094-23.894531-29.867188-23.894531-16.492187 0-29.867187 10.699219-29.867187 23.894531 0 13.195313 13.375 23.890625 29.867187 23.890625 16.496094 0 29.867188-10.695312 29.867188-23.890625zm0 0" fill="#3f51b5"/><path d="m281.605469 256s65.6875-17.066406 82.109375 25.601562c16.421875 42.664063-32.84375 85.332032-82.109375 68.265626h-51.199219c-49.269531 17.066406-98.535156-25.601563-82.113281-68.265626 16.421875-42.667968 82.113281-25.601562 82.113281-25.601562zm0 0" fill="#7f8e94"/><path d="m290.054688 313.429688c.070312.765624.097656 1.535156.082031 2.304687 0 23.550781-15.273438 42.664063-34.132813 42.664063s-34.132812-19.113282-34.132812-42.664063c-.015625-.769531.015625-1.539063.085937-2.304687l34.363281-10.652344zm0 0" fill="#bb193b"/><path d="m290.136719 244.652344s-17.066407 28.414062-34.132813 28.414062-34.132812-28.414062-34.132812-28.414062c1.109375-.941406 2.304687-1.878906 3.414062-2.648438 8.460938-6.375 18.484375-10.351562 29.011719-11.519531 1.109375-.085937 1.707031-.085937 1.707031-.085937s.597656 0 1.707032.085937c.34375-.007813.6875.023437 1.023437.085937 10.148437 1.382813 19.777344 5.316407 27.992187 11.433594 1.109376.769532 2.300782 1.707032 3.410157 2.648438zm0 0" fill="#ef314c"/><path d="m170.671875 196.265625c0 4.714844-3.820313 8.535156-8.535156 8.535156-4.710938 0-8.53125-3.820312-8.53125-8.535156 0-4.710937 3.820312-8.53125 8.53125-8.53125 4.714843 0 8.535156 3.820313 8.535156 8.53125zm0 0" fill="#fff"/><path d="m332.804688 196.265625c0 4.714844-3.820313 8.535156-8.535157 8.535156-4.710937 0-8.53125-3.820312-8.53125-8.535156 0-4.710937 3.820313-8.53125 8.53125-8.53125 4.714844 0 8.535157 3.820313 8.535157 8.53125zm0 0" fill="#fff"/><path d="m341.414062 69.71875c-1.179687-.003906-2.34375-.246094-3.425781-.71875-52.105469-23.617188-111.863281-23.617188-163.964843 0-2.792969 1.226562-6.027344.871094-8.488282-.933594-2.457031-1.804687-3.765625-4.785156-3.433594-7.816406.335938-3.03125 2.261719-5.65625 5.054688-6.882812 56.484375-25.515626 121.214844-25.515626 177.699219 0 3.703125 1.621093 5.757812 5.617187 4.925781 9.574218-.832031 3.957032-4.324219 6.785156-8.367188 6.777344zm0 0"/><path d="m406.113281 432.726562c-3.902343.007813-7.308593-2.632812-8.28125-6.410156-.972656-3.777344.742188-7.734375 4.164063-9.609375 59.066406-32.414062 92.941406-81.382812 92.941406-134.339843 0-37.242188-16.847656-81.75-46.242188-122.109376-1.792968-2.46875-2.136718-5.703124-.898437-8.488281 1.234375-2.789062 3.867187-4.703125 6.898437-5.027343 3.03125-.320313 6.003907 1 7.800782 3.464843 31.464844 43.21875 49.507812 91.394531 49.507812 132.160157 0 59.375-37.097656 113.800781-101.789062 149.308593-1.261719.6875-2.667969 1.046875-4.101563 1.050781zm0 0"/><path d="m105.898438 432.726562c-1.433594-.003906-2.84375-.363281-4.101563-1.050781-64.691406-35.507812-101.79296875-89.933593-101.79296875-149.308593 0-40.765626 18.04296875-88.941407 49.50781275-132.167969 1.796875-2.464844 4.769531-3.785157 7.804687-3.460938 3.03125.320313 5.660156 2.238281 6.898438 5.023438 1.238281 2.789062.894531 6.023437-.902344 8.488281-29.390625 40.367188-46.242188 84.875-46.242188 122.117188 0 52.957031 33.878907 101.925781 92.941407 134.339843 3.421875 1.875 5.136719 5.832031 4.164062 9.609375-.96875 3.777344-4.378906 6.417969-8.277343 6.410156zm0 0"/><path d="m256.003906 469.332031c-16.152344.007813-32.285156-1.105469-48.28125-3.328125-3.082031-.347656-5.730468-2.34375-6.921875-5.207031-1.1875-2.867187-.726562-6.152344 1.203125-8.578125 1.929688-2.429688 5.023438-3.621094 8.082032-3.109375 30.46875 4.183594 61.367187 4.183594 91.835937 0 3.058594-.511719 6.15625.679687 8.082031 3.109375 1.929688 2.425781 2.390625 5.710938 1.203125 8.578125-1.1875 2.863281-3.835937 4.859375-6.917969 5.207031-16 2.222656-32.132812 3.335938-48.285156 3.328125zm0 0"/><path d="m179.714844 512.007812c-2.824219-.007812-5.644532-.296874-8.414063-.867187-8.5625-1.925781-16.640625-5.59375-23.722656-10.773437-8.1875-5.847657-15.535156-12.785157-21.847656-20.617188-14.34375-17.714844-24.605469-38.375-30.050781-60.507812-.707032-2.964844.21875-6.082032 2.433593-8.179688 2.210938-2.097656 5.375-2.851562 8.296875-1.984375 2.925782.871094 5.160156 3.230469 5.871094 6.199219 4.839844 19.617187 13.933594 37.929687 26.640625 53.640625 5.324219 6.628906 11.523437 12.507812 18.429687 17.464843 5.171876 3.8125 11.058594 6.542969 17.308594 8.027344 8.949219 2.476563 18.328125-2.179687 21.761719-10.808594 2.589844-5.875 3.972656-12.210937 4.066406-18.632812.21875-8.507812-.714843-17.003906-2.777343-25.257812-4.84375-19.613282-13.9375-37.917969-26.640626-53.628907-1.933593-2.355469-2.464843-5.566406-1.390624-8.421875 1.074218-2.855468 3.589843-4.921875 6.597656-5.421875 3.011718-.496093 6.058594.648438 7.996094 3.007813 14.324218 17.722656 24.582031 38.375 30.035156 60.5 2.421875 9.765625 3.503906 19.8125 3.226562 29.867187-.152344 8.777344-2.109375 17.429688-5.75 25.417969-3.398437 7.515625-9.246094 13.65625-16.585937 17.417969-4.8125 2.375-10.113281 3.597656-15.484375 3.558593zm0 0"/><path d="m332.292969 512.007812c-5.367188.039063-10.671875-1.179687-15.484375-3.558593-7.34375-3.757813-13.191406-9.898438-16.589844-17.414063-3.644531-7.988281-5.601562-16.640625-5.75-25.417968-.28125-10.054688.804688-20.097657 3.222656-29.859376 5.453125-22.128906 15.707032-42.785156 30.039063-60.507812 1.933593-2.359375 4.980469-3.503906 7.992187-3.007812 3.011719.5 5.527344 2.5625 6.601563 5.417968 1.074219 2.859375.542969 6.070313-1.394531 8.425782-12.703126 15.710937-21.796876 34.019531-26.640626 53.636718-2.0625 8.25-2.996093 16.746094-2.773437 25.25.089844 6.417969 1.472656 12.757813 4.066406 18.632813 3.433594 8.621093 12.808594 13.28125 21.757813 10.808593 6.25-1.484374 12.136718-4.214843 17.308594-8.027343 6.910156-4.960938 13.113281-10.835938 18.441406-17.464844 12.695312-15.71875 21.785156-34.03125 26.632812-53.644531.710938-2.964844 2.945313-5.324219 5.867188-6.195313 2.925781-.867187 6.089844-.113281 8.300781 1.984375 2.214844 2.097656 3.140625 5.214844 2.433594 8.179688-5.453125 22.128906-15.707031 42.785156-30.039063 60.507812-6.3125 7.832032-13.664062 14.765625-21.847656 20.617188-7.085938 5.179687-15.160156 8.847656-23.722656 10.773437-2.773438.570313-5.59375.859375-8.421875.863281zm0 0"/><path d="m56.40625 163.753906c-4.382812-.003906-8.046875-3.320312-8.484375-7.679687-4.433594-44.265625-8.492187-122.265625 14.140625-147.285157 4.761719-5.546874 11.699219-8.7539058 19.007812-8.789062 22.417969 0 54.445313 18.441406 95.199219 54.816406 17.652344 15.765625 29.96875 28.808594 30.484375 29.359375 3.195313 3.433594 3.019532 8.808594-.398437 12.023438-3.414063 3.21875-8.789063 3.074219-12.023438-.324219-.128906-.125-12.359375-13.082031-29.425781-28.324219-36.476562-32.558593-66.25-50.484375-83.835938-50.484375-2.492187.011719-4.839843 1.1875-6.347656 3.175782-15.453125 17.074218-14.953125 82.933593-9.8125 134.132812.222656 2.253906-.453125 4.503906-1.890625 6.253906-1.433593 1.753906-3.503906 2.863282-5.757812 3.085938-.289063.027344-.574219.039062-.855469.039062zm0 0"/><path d="m81.746094 133.207031c-4.429688-.007812-8.121094-3.402343-8.492188-7.820312-1.851562-28.535157.710938-57.183594 7.601563-84.9375.753906-2.804688 2.882812-5.03125 5.648437-5.914063 2.765625-.878906 5.789063-.292968 8.027344 1.5625 15.136719 13.175782 28.378906 28.382813 39.347656 45.191406 5.871094 8.8125 10.84375 18.191407 14.84375 28 1.1875 2.835938.757813 6.097657-1.132812 8.527344-1.886719 2.433594-4.9375 3.660156-7.980469 3.210938-3.046875-.449219-5.613281-2.5-6.722656-5.375-3.578125-8.761719-8.03125-17.140625-13.289063-25.015625-7.40625-11.265625-15.894531-21.78125-25.351562-31.390625-4.085938 21.3125-5.425782 43.0625-3.992188 64.714844.191406 2.257812-.519531 4.496093-1.980468 6.222656-1.460938 1.730468-3.546876 2.808594-5.800782 2.996094-.242187.019531-.484375.03125-.726562.027343zm0 0"/><path d="m455.605469 163.753906c-.285157 0-.566407-.015625-.859375-.042968-2.253906-.222657-4.324219-1.335938-5.753906-3.085938-1.433594-1.753906-2.113282-4-1.886719-6.253906 5.132812-51.199219 5.632812-117.058594-9.8125-134.132813-1.511719-1.988281-3.859375-3.160156-6.355469-3.171875-17.578125 0-47.359375 17.925782-83.832031 50.484375-17.066407 15.242188-29.300781 28.199219-29.425781 28.324219-3.238282 3.398438-8.609376 3.542969-12.027344.324219-3.414063-3.214844-3.59375-8.589844-.398438-12.023438.511719-.550781 12.835938-13.59375 30.484375-29.355469 40.757813-36.378906 72.78125-54.820312 95.199219-54.820312 7.3125.0351562 14.246094 3.242188 19.007812 8.789062 22.632813 25.015626 18.574219 103.015626 14.144532 147.285157-.4375 4.359375-4.105469 7.675781-8.484375 7.679687zm0 0"/><path d="m430.261719 133.207031c-.242188 0-.484375-.011719-.722657-.035156-2.257812-.1875-4.34375-1.265625-5.804687-2.996094-1.457031-1.726562-2.171875-3.964843-1.980469-6.21875 1.433594-21.660156.09375-43.410156-3.992187-64.726562-9.441407 9.597656-17.921875 20.097656-25.316407 31.347656-5.269531 7.890625-9.734374 16.285156-13.324218 25.066406-1.105469 2.875-3.675782 4.925781-6.71875 5.375-3.046875.449219-6.097656-.777343-7.984375-3.210937-1.886719-2.429688-2.320313-5.691406-1.128907-8.527344 4.007813-9.824219 8.992188-19.21875 14.875-28.042969 10.960938-16.789062 24.191407-31.980469 39.316407-45.140625 2.234375-1.855468 5.261719-2.441406 8.027343-1.558594 2.765626.882813 4.894532 3.109376 5.648438 5.914063 6.886719 27.753906 9.449219 56.40625 7.597656 84.941406-.375 4.414063-4.0625 7.804688-8.492187 7.8125zm0 0"/><path d="m256.003906 281.601562c-21.28125 0-39.449218-29.25-41.449218-32.585937-2.164063-3.605469-1.378907-8.253906 1.851562-10.949219 11.070312-9.585937 24.980469-15.273437 39.597656-16.199218 14.617188.925781 28.527344 6.613281 39.601563 16.199218 3.226562 2.695313 4.011719 7.34375 1.847656 10.949219-2 3.335937-20.164063 32.585937-41.449219 32.585937zm-22.472656-34.933593c6.539062 8.789062 15.773438 17.867187 22.472656 17.867187 6.703125 0 15.933594-9.078125 22.476563-17.867187-6.734375-4.457031-14.492188-7.117188-22.542969-7.734375-8.003906.640625-15.710938 3.300781-22.40625 7.734375zm0 0"/><path d="m174.9375 230.398438c-15.28125 1.066406-28.582031-10.335938-29.867188-25.597657 1.285157-15.265625 14.585938-26.667969 29.867188-25.601562 15.28125-1.066407 28.585938 10.335937 29.867188 25.601562-1.28125 15.261719-14.585938 26.664063-29.867188 25.597657zm0-34.132813c-6.816406 0-12.800781 3.992187-12.800781 8.535156 0 4.539063 5.984375 8.53125 12.800781 8.53125s12.800781-3.992187 12.800781-8.53125c0-4.542969-5.984375-8.535156-12.800781-8.535156zm0 0"/><path d="m124.738281 176.714844c1.222657-7.382813 4.765625-14.183594 10.113281-19.414063 5.46875-5.480469 12.375-9.304687 19.925782-11.027343 7.335937-1.449219 14.910156-1.210938 22.140625.691406 3.390625.996094 6.710937 2.222656 9.933593 3.675781 3.019532 1.679687 5.929688 3.546875 8.722657 5.582031 1.515625 1.152344 2.109375 3.160156 1.457031 4.949219-.648438 1.792969-2.386719 2.953125-4.289062 2.867187l-.546876-.03125c-3.085937-.203124-6.160156-.589843-9.199218-1.152343l-8.675782-.800781c-5.324218-.335938-10.667968-.039063-15.925781.878906-4.988281 1.089844-9.761719 3.011718-14.117187 5.679687-4.738282 3.046875-9.101563 6.636719-13.007813 10.695313l-.496093.492187c-1.09375 1.089844-2.761719 1.351563-4.136719.648438s-2.140625-2.210938-1.898438-3.734375zm0 0"/><path d="m337.070312 230.398438c-15.277343 1.066406-28.582031-10.335938-29.867187-25.597657 1.285156-15.265625 14.589844-26.667969 29.867187-25.601562 15.28125-1.066407 28.585938 10.335937 29.867188 25.601562-1.28125 15.261719-14.585938 26.664063-29.867188 25.597657zm0-34.132813c-6.816406 0-12.800781 3.992187-12.800781 8.535156 0 4.539063 5.984375 8.53125 12.800781 8.53125 6.816407 0 12.800782-3.992187 12.800782-8.53125 0-4.542969-5.984375-8.535156-12.800782-8.535156zm0 0"/><path d="m380.738281 179.308594c-3.902343-4.058594-8.269531-7.648438-13.003906-10.695313-4.359375-2.667969-9.128906-4.589843-14.121094-5.679687-5.253906-.917969-10.601562-1.214844-15.925781-.878906l-8.671875.800781c-3.042969.5625-6.113281.949219-9.203125 1.152343l-.519531.027344c-1.152344.058594-2.28125-.34375-3.140625-1.117187-.855469-.773438-1.367188-1.855469-1.425782-3.007813-.066406-1.433594.570313-2.808594 1.707032-3.6875 2.789062-2.035156 5.703125-3.902344 8.722656-5.582031 3.222656-1.453125 6.539062-2.679687 9.929688-3.675781 7.234374-1.902344 14.804687-2.140625 22.144531-.691406 7.546875 1.722656 14.453125 5.546874 19.921875 11.027343 5.347656 5.230469 8.890625 12.03125 10.113281 19.414063.242187 1.519531-.519531 3.023437-1.886719 3.730468-1.371094.703126-3.035156.449219-4.132812-.628906zm0 0"/><path d="m226.871094 321.96875c-14.101563-.691406-27.316406-7.070312-36.632813-17.675781-3.246093-3.347657-3.207031-8.679688.089844-11.976563s8.628906-3.335937 11.976563-.089844c6.503906 7.789063 16.058593 12.390626 26.207031 12.613282 7.28125-.90625 14-4.375 18.960937-9.78125v-22.402344c0-4.710938 3.820313-8.53125 8.53125-8.53125 4.714844 0 8.535156 3.820312 8.535156 8.53125v25.601562c0 1.847657-.597656 3.644532-1.707031 5.121094-8.140625 10.3125-20.050781 16.964844-33.101562 18.492188-.960938.0625-1.910157.097656-2.859375.097656zm0 0"/><path d="m285.136719 321.96875c-.949219 0-1.898438-.035156-2.855469-.101562-13.050781-1.527344-24.960938-8.179688-33.101562-18.492188-1.109376-1.476562-1.710938-3.273438-1.707032-5.121094v-25.597656c0-4.714844 3.820313-8.535156 8.53125-8.535156 4.714844 0 8.535156 3.820312 8.535156 8.535156v22.390625c4.984376 5.441406 11.753907 8.921875 19.082032 9.800781 10.09375-.3125 19.578125-4.902344 26.082031-12.628906 3.347656-3.246094 8.679687-3.207031 11.976563.089844 3.296874 3.296875 3.335937 8.628906.089843 11.976562-9.3125 10.609375-22.53125 16.992188-36.632812 17.683594zm0 0"/><path d="m256.003906 366.933594c-23.523437 0-42.664062-22.96875-42.664062-51.199219-.015625-1.078125.027344-2.152344.132812-3.226563.328125-3.03125 2.25-5.65625 5.042969-6.882812 2.789063-1.230469 6.023437-.878906 8.480469.925781 2.460937 1.800781 3.773437 4.777344 3.441406 7.808594-.035156.457031-.046875.914063-.03125 1.375 0 18.824219 11.480469 34.132813 25.597656 34.132813 14.117188 0 25.601563-15.308594 25.601563-34.132813.011719-.460937.003906-.917969-.035157-1.375-.328124-3.03125.980469-6.007813 3.441407-7.808594 2.460937-1.804687 5.695312-2.15625 8.484375-.925781 2.789062 1.226562 4.710937 3.851562 5.042968 6.882812.101563 1.074219.144532 2.148438.132813 3.226563 0 28.230469-19.140625 51.199219-42.667969 51.199219zm0 0"/><path d="m207.753906 362.21875c-20.207031.113281-39.597656-7.976562-53.734375-22.417969-16.378906-15.863281-21.761719-39.945312-13.691406-61.269531 18.925781-49.199219 89.222656-31.578125 92.21875-30.789062 4.453125 1.269531 7.078125 5.859374 5.917969 10.34375-1.160156 4.480468-5.683594 7.222656-10.195313 6.171874-.589843-.148437-58.535156-14.617187-72.007812 20.410157-5.722657 15.125-1.765625 32.207031 10.027343 43.273437 16.027344 16.117188 39.925782 21.515625 61.324219 13.859375 4.457031-1.542969 9.316407.820313 10.859375 5.273438 1.539063 4.457031-.820312 9.316406-5.277344 10.859375-8.183593 2.832031-16.78125 4.28125-25.441406 4.285156zm0 0"/><path d="m304.253906 362.21875c-8.660156-.003906-17.257812-1.453125-25.441406-4.285156-4.453125-1.542969-6.816406-6.402344-5.273438-10.859375 1.539063-4.453125 6.402344-6.816407 10.855469-5.273438 21.402344 7.667969 45.304688 2.265625 61.328125-13.859375 11.789063-11.066406 15.746094-28.148437 10.023438-43.273437-13.480469-35.035157-71.433594-20.558594-72.007813-20.410157-4.511719 1.050782-9.035156-1.691406-10.195312-6.171874-1.160157-4.484376 1.46875-9.074219 5.917969-10.34375 2.988281-.785157 73.277343-18.410157 92.21875 30.789062 8.074218 21.328125 2.691406 45.410156-13.691407 61.269531-14.136719 14.441407-33.527343 22.53125-53.734375 22.417969zm0 0"/><path d="m162.128906 290.132812c-1.582031.003907-3.136718-.4375-4.484375-1.273437-27.757812-18.796875-63.253906-21.925781-93.871093-8.277344-4.136719 2.136719-9.222657.566407-11.429688-3.53125-2.210938-4.09375-.730469-9.207031 3.328125-11.488281 35.992187-16.578125 78.015625-13.253906 110.957031 8.773438 3.253906 2.007812 4.773438 5.929687 3.726563 9.601562-1.046875 3.675781-4.40625 6.203125-8.226563 6.195312zm0 0"/><path d="m67.605469 349.867188c-3.019531-.003907-5.8125-1.601563-7.347657-4.203126-1.53125-2.605468-1.574218-5.820312-.109374-8.464843 26.125-47.15625 99.875-38.847657 103.007812-38.472657 3.027344.359376 5.632812 2.308594 6.832031 5.113282 1.199219 2.800781.816407 6.035156-1.011719 8.476562-1.828124 2.441406-4.820312 3.71875-7.847656 3.359375-.640625-.085937-65.507812-7.292969-86.046875 29.792969-1.507812 2.714844-4.371093 4.402344-7.476562 4.398438zm0 0"/><path d="m349.878906 290.132812c-3.816406.007813-7.171875-2.523437-8.21875-6.195312-1.046875-3.667969.472656-7.589844 3.71875-9.597656 32.941406-22.03125 74.964844-25.355469 110.960938-8.773438 4.03125 2.296875 5.492187 7.394532 3.285156 11.476563s-7.273438 5.652343-11.402344 3.53125c-30.617187-13.632813-66.101562-10.5-93.859375 8.285156-1.347656.835937-2.898437 1.277344-4.484375 1.273437zm0 0"/><path d="m444.40625 349.867188c-3.109375.003906-5.972656-1.683594-7.476562-4.398438-20.609376-37.207031-85.367188-29.878906-86.042969-29.792969-4.679688.5625-8.929688-2.777343-9.492188-7.460937-.558593-4.679688 2.78125-8.929688 7.460938-9.488282 3.117187-.386718 76.886719-8.683593 103.007812 38.472657 1.460938 2.644531 1.417969 5.859375-.113281 8.464843-1.53125 2.601563-4.324219 4.199219-7.34375 4.203126zm0 0"/></svg>