<?xml version="1.0" encoding="utf-8"?>
<!-- Generator: Adobe Illustrator 22.1.0, SVG Export Plug-In . SVG Version: 6.00 Build 0)  -->
<svg version="1.1" id="Layer_1" xmlns="http://www.w3.org/2000/svg" xmlns:xlink="http://www.w3.org/1999/xlink" x="0px" y="0px"
	 viewBox="0 0 512 512" style="enable-background:new 0 0 512 512;" xml:space="preserve">
<style type="text/css">
	.st0{fill:#6D9282;}
	.st1{fill:#A3C2B2;}
	.st2{fill:#EF314C;}
	.st3{fill:#BB193B;}
</style>
<path class="st0" d="M389.6,363l-0.2,0.2c22.4,23,64.4,74.5,71.3,140.3H51.3c6.9-65.8,49-117.2,71.3-140.3l-0.2-0.2
	C47.5,335.5,8.6,283.4,8.6,223.8c0.6-33.1,9.5-65.5,25.8-94.4v-0.1C19.5,96.9,14.9,60.7,21.2,25.7c13.1-6.8,27.4-10.9,42.1-12.1
	c6.5-0.6,13.1-0.7,19.6-0.4h0.7c16.7,1,33.1,5.1,48.5,11.9c3.8,1.5,7.6,3.4,11.5,5.5c1.5-0.7,3-1.3,4.5-1.8c0.1,0.1,0.2,0,0.3-0.2
	C178,16.6,209.3,10,241.1,8.9c0.7,0,1.4-0.1,2.1-0.1c4.2-0.2,8.4-0.3,12.8-0.3c5,0,10.1,0.2,14.9,0.3c28.5,1,56.6,6.4,83.4,16
	c3.2,1.1,6.2,2.2,9.2,3.5c0.2,0.2,0.3,0.3,0.3,0.2c1.5,0.5,3,1.1,4.5,1.8c17-9.2,35.6-15,54.8-16.9c1.8-0.2,3.5-0.3,5.2-0.4h1.3
	c21.1-1.3,42.2,3,61.1,12.5c6.3,35.1,1.8,71.3-13.1,103.7v0.1c16.3,28.8,25.1,61.3,25.8,94.4C503.5,283.4,464.6,335.5,389.6,363z"/>
<path class="st1" d="M364.1,363l-0.2,0.2c22.4,23,64.4,74.5,71.3,140.3h-384c6.9-65.8,49-117.2,71.3-140.3l-0.2-0.2
	C47.5,335.5,8.6,283.4,8.6,223.8c0.6-33.1,9.5-65.5,25.8-94.4v-0.1C19.5,96.9,14.9,60.7,21.2,25.7c13.1-6.8,27.4-10.9,42.1-12.1
	c19.2,2,37.7,7.7,54.7,16.9c1.5-0.7,3-1.3,4.5-1.8c0.1,0.1,0.2,0,0.3-0.2c3-1.3,6.1-2.4,9.2-3.5c26.8-9.6,55-15,83.4-16
	c4.9-0.2,9.9-0.3,14.9-0.3c4.4,0,8.6,0.1,12.8,0.3c0.8,0,1.4,0.1,2.1,0.1c31.8,1.1,63.1,7.7,92.7,19.5c0.2,0.2,0.3,0.3,0.3,0.2
	c1.5,0.5,3,1.1,4.5,1.8c3.9-2,7.8-3.9,11.5-5.5c3.2,1.1,6.2,2.2,9.2,3.5c0.2,0.2,0.3,0.3,0.3,0.2c1.5,0.5,3,1.1,4.5,1.8
	c17-9.2,35.6-15,54.8-16.9c14.7,1.2,28.9,5.4,42,12.1c6.3,35.1,1.8,71.3-13.1,103.7v0.1c16.3,28.8,25.1,61.3,25.8,94.4
	C477.9,283.4,439,335.5,364.1,363z"/>
<path class="st2" d="M58.3,76.8c-3.2-11.5-3.7-23.6-1.6-35.4c13.3-3,27.1,0.7,37.2,9.8L58.3,76.8z"/>
<path class="st2" d="M447.3,76.8c7.9-10.4,9.3-24.2,3.8-36c-12-1.7-24.1,2.1-32.9,10.4L447.3,76.8z"/>
<path class="st3" d="M261.7,197.8c7.7,5.5,12,14.6,11.3,24.1c0,14.2-7.7,25.6-17.1,25.6S239,236.1,239,221.9
	c-0.7-9.5,3.6-18.6,11.4-24.1H261.7z"/>
<path class="st2" d="M281.6,174.6c0,0-12.8,24.8-25.6,24.8c-12.8,0-25.6-24.8-25.6-24.8c0.7-0.7,1.4-1.3,2.1-2
	c6-5.4,13.3-9,21.3-10.3c1.4-0.3,2.9-0.3,4.4,0c7.9,1.3,15.3,4.9,21.3,10.3C280.2,173.3,280.9,174,281.6,174.6z"/>
<path d="M122.4,371.5c-1,0-2-0.2-2.9-0.5C43.6,343.1,0.1,289.4,0.1,223.8c1.2-45.6,16.7-89.7,44.4-125.9c2.8-3.8,8.2-4.6,11.9-1.7
	c3.8,2.8,4.6,8.2,1.7,11.9c-25.5,33.3-39.8,73.8-41,115.7c0,58.1,39.4,105.9,108.2,131.2c3.9,1.4,6.2,5.4,5.5,9.5
	C130.1,368.6,126.5,371.5,122.4,371.5L122.4,371.5z"/>
<path d="M119.1,51.2c-3.9,0-7.2-2.6-8.2-6.3c-1-3.7,0.6-7.7,4-9.6C157.9,11.2,206.7-0.9,256,0.1c4.7,0,8.5,3.8,8.5,8.5
	c0,4.7-3.8,8.5-8.5,8.5c-46.4-1-92.1,10.4-132.6,33C122.1,50.9,120.6,51.3,119.1,51.2z"/>
<path d="M34.4,137.9c-3.8,0-7.1-2.4-8.2-6C10.9,98.2,6.2,60.6,12.8,24.3c0.4-2.5,1.9-4.7,4.1-6c2.4-1.4,58.8-33.4,130.7,4.6
	c4.1,2.2,5.7,7.4,3.5,11.5c-2.2,4.1-7.3,5.7-11.5,3.6C105.8,18.6,64.9,16.1,29,31.3c-5,32.2-0.4,65.3,13.3,94.9
	c0.4,1,0.6,2.1,0.6,3.2C42.9,134,39.1,137.9,34.4,137.9z"/>
<path d="M389.6,371.5c-4.1,0-7.7-3-8.4-7c-0.7-4.1,1.6-8.1,5.5-9.5c68.8-25.3,108.3-73.1,108.3-131.2c-1.1-41.9-15.5-82.4-41-115.7
	c-2.8-3.8-2-9.1,1.7-11.9c3.8-2.8,9.1-2,11.9,1.7c27.7,36.3,43.2,80.3,44.4,125.9c0,65.7-43.5,119.3-119.4,147.2
	C391.6,371.4,390.6,371.5,389.6,371.5z"/>
<path d="M392.9,51.2c-1.5,0-3-0.4-4.3-1.1c-40.5-22.6-86.3-33.9-132.6-33c-4.7,0-8.5-3.8-8.5-8.5c0-4.7,3.8-8.5,8.5-8.5
	c49.4-1,98.1,11.2,141.2,35.3c3.3,1.9,5,5.9,4,9.6C400.2,48.7,396.8,51.3,392.9,51.2z"/>
<path d="M460.8,512H51.3c-2.4,0-4.7-1-6.3-2.8c-1.6-1.8-2.4-4.2-2.1-6.6c7.1-67.7,49.3-120.2,73.8-145.4c2.1-2.2,5.3-3.1,8.2-2.3
	c3,0.7,5.3,3,6.1,5.9c0.8,2.9,0,6.1-2.1,8.3C107,391.5,70.3,436.9,61,494.9h390.1c-9.3-58.1-46-103.4-67.8-125.9
	c-3.3-3.4-3.2-8.8,0.2-12.1c3.4-3.3,8.8-3.2,12.1,0.2c24.5,25.3,66.7,77.7,73.8,145.4c0.3,2.4-0.5,4.8-2.1,6.6
	C465.5,511,463.2,512,460.8,512z"/>
<path d="M477.7,137.9c-2.3,0-4.4-0.9-6-2.5c-1.6-1.6-2.5-3.8-2.5-6c0-1.1,0.2-2.2,0.6-3.2c13.7-29.6,18.3-62.6,13.3-94.9
	c-12.4-5.8-56.2-22.1-110.6,6.7c-4.2,2.1-9.3,0.5-11.5-3.6c-2.2-4.1-0.6-9.3,3.5-11.5c71.9-38.1,128.3-6,130.7-4.6
	c2.2,1.3,3.7,3.5,4.1,6c6.6,36.5,1.9,74.2-13.5,108C484.5,135.6,481.3,137.9,477.7,137.9z"/>
<path d="M8.6,298.1c-3,0-5.7-1.5-7.3-4.1c-1.6-2.5-1.7-5.7-0.4-8.3c1.5-3,37.9-73.3,136.4-64.4c3,0.3,5.7,2.1,7,4.9
	c1.3,2.8,1,6-0.8,8.5c-1.8,2.5-4.7,3.9-7.7,3.6c-87-7.9-119.3,54.4-119.6,55C14.8,296.3,11.8,298.1,8.6,298.1z"/>
<path d="M48.7,349.9c-2.5,0-4.9-1.1-6.5-3.1c-1.6-1.9-2.3-4.5-1.9-7c0.7-3.7,17.1-91.7,93.5-118.1c2.9-1.1,6.1-0.5,8.5,1.5
	c2.3,2,3.4,5.1,2.8,8.2c-0.6,3-2.8,5.5-5.7,6.4c-66.9,23-82.1,104.1-82.3,105C56.3,346.9,52.8,349.9,48.7,349.9z"/>
<path d="M38.8,206.7c-3.9,0-7.4-2.7-8.3-6.5c-0.9-3.8,0.9-7.8,4.4-9.6c1.7-0.9,41.8-21.1,104.3-2c4.5,1.4,7,6.2,5.7,10.7
	c-1.4,4.5-6.2,7-10.7,5.7c-55.8-17.1-91,0.6-91.4,0.8C41.5,206.4,40.1,206.7,38.8,206.7z"/>
<path d="M503.5,298.1c-3.2,0-6.2-1.8-7.6-4.7c-1.4-2.7-33.1-62.9-119.6-55.1c-3,0.3-6-1.1-7.7-3.6c-1.8-2.5-2.1-5.7-0.8-8.5
	c1.3-2.8,3.9-4.6,7-4.9c98.5-8.9,134.9,61.4,136.4,64.4c1.3,2.6,1.2,5.8-0.4,8.3C509.2,296.6,506.4,298.1,503.5,298.1z"/>
<path d="M463.4,349.9c-4.1,0-7.7-3-8.4-7c-0.1-0.8-15.4-81.9-82.3-105c-2.9-1-5.1-3.4-5.7-6.4c-0.6-3,0.5-6.1,2.8-8.2
	c2.3-2,5.6-2.6,8.5-1.5c76.5,26.4,92.9,114.4,93.5,118.1c0.4,2.5-0.3,5-1.9,7C468.3,348.7,465.9,349.9,463.4,349.9z"/>
<path d="M473.3,206.7c-1.4,0-2.7-0.3-3.9-1c-0.6-0.3-36.3-17.7-91.4-0.8c-4.5,1.4-9.3-1.1-10.7-5.7c-1.4-4.5,1.1-9.3,5.7-10.7
	c62.4-19.2,102.6,1.1,104.3,2c3.5,1.8,5.3,5.8,4.4,9.6C480.7,204,477.2,206.7,473.3,206.7z"/>
<path d="M215.5,434c-4.4,0-8.8-0.9-12.9-2.7c-14.6-7.3-23.7-22.4-23.4-38.7c0-4.7,3.7-8.6,8.4-8.6h0.1c4.7,0,8.5,3.8,8.5,8.4
	c-0.4,9.5,4.6,18.5,12.9,23.1c4.2,2,9.1,1.8,13.2-0.6c4.5-2.9,7.4-7.7,7.7-13.1c0.2-1.6,0.2-3.2,0.3-4.8c0.5-8.7-1.2-17.4-5.2-25.2
	c-4.8-8.1-12.7-14-21.9-16.2c-11.4-2.9-23.6-1.2-33.8,4.8c-2.6,1.7-5.9,1.8-8.6,0.3c-2.7-1.5-4.4-4.3-4.5-7.4c0-3.1,1.6-6,4.3-7.5
	c14.1-8.4,31-10.9,46.9-6.7c13.6,3.4,25.3,12.1,32.4,24.3c5.4,10.4,8,22.2,7.4,33.9c0,2.1-0.1,4.1-0.3,6.2
	c-0.9,10.8-6.8,20.5-16,26.1C226.4,432.5,221,434,215.5,434z"/>
<path d="M147.7,477.4c-15,0-28.5-9.2-34-23.1c-3.5-8.9-5.7-18.3-6.5-27.8c-0.4-4.7,3.1-8.8,7.8-9.2c4.7-0.4,8.8,3,9.2,7.7
	c0.6,7.8,2.4,15.6,5.3,22.9c3.9,9.8,14.8,14.8,24.7,11.4c12.5-4.1,25-26.3,25-66.7c0-4.7,3.8-8.5,8.5-8.5c4.7,0,8.5,3.8,8.5,8.5
	c0,43.7-14.1,75.5-36.8,82.9C155.7,476.7,151.7,477.4,147.7,477.4z"/>
<path d="M296.5,434c-5.5,0-10.9-1.5-15.6-4.3c-9.2-5.7-15.1-15.4-16-26.1c-0.2-2.1-0.3-4.1-0.3-6.2c-0.6-11.8,1.9-23.5,7.4-33.9
	c7-12.2,18.7-20.9,32.4-24.3c15.9-4.1,32.8-1.7,46.9,6.7c2.7,1.5,4.3,4.4,4.3,7.5s-1.7,5.9-4.5,7.4c-2.7,1.5-6,1.4-8.6-0.3
	c-10.2-6-22.3-7.7-33.8-4.8c-9.2,2.2-17.1,8.1-21.9,16.2c-3.9,7.8-5.7,16.5-5.2,25.2c0,1.6,0.1,3.2,0.3,4.8
	c0.4,5.3,3.2,10.2,7.7,13.1c4,2.4,9,2.6,13.2,0.6c8.3-4.7,13.3-13.6,12.9-23.1c0-4.7,3.9-8.4,8.5-8.4h0.1c4.7,0.1,8.5,3.9,8.4,8.6
	c0.4,16.3-8.7,31.4-23.4,38.7C305.4,433.1,301,434,296.5,434z"/>
<path d="M364.4,477.4c-4,0-8-0.7-11.8-1.9c-22.7-7.5-36.8-39.2-36.8-82.9c0-4.7,3.8-8.5,8.5-8.5c4.7,0,8.5,3.8,8.5,8.5
	c0,40.4,12.6,62.6,25,66.7c10,3.4,20.8-1.6,24.7-11.4c2.9-7.3,4.6-15,5.3-22.9c0.4-4.7,4.6-8.1,9.2-7.7c4.7,0.4,8.1,4.5,7.8,9.2
	c-0.8,9.5-3,18.9-6.5,27.8C392.9,468.2,379.4,477.4,364.4,477.4z"/>
<path d="M93.9,59.8c-2.3,0-4.4-0.9-6-2.5c-13-13-33.8-6.5-34-6.5c-4.4,1.4-9.2-1-10.6-5.5c-1.5-4.4,0.9-9.2,5.3-10.7
	c1.2-0.4,30.8-10,51.4,10.6c2.4,2.4,3.2,6.1,1.8,9.3C100.5,57.7,97.4,59.8,93.9,59.8z"/>
<path d="M59.8,85.4c-3.2,0-6.2-1.8-7.6-4.7c-6.1-13.2-6.1-28.5,0-41.8c2.1-4.2,7.2-5.9,11.4-3.8c4.2,2.1,5.9,7.2,3.8,11.4
	c-3.7,8.4-3.7,18.1,0,26.5c1.3,2.6,1.2,5.8-0.4,8.3C65.5,83.8,62.7,85.4,59.8,85.4z"/>
<path d="M418.1,59.8c-3.4,0-6.6-2.1-7.9-5.3c-1.3-3.2-0.6-6.9,1.8-9.3c20.6-20.6,50.1-11,51.4-10.6c4.4,1.6,6.7,6.3,5.2,10.7
	c-1.5,4.4-6.2,6.8-10.6,5.5c-0.2-0.1-20.9-6.6-34,6.5C422.6,58.9,420.4,59.8,418.1,59.8z"/>
<path d="M452.3,85.4c-3,0-5.7-1.5-7.3-4.1c-1.6-2.5-1.7-5.7-0.4-8.3c3.7-8.4,3.7-18.1,0-26.5c-1.4-2.7-1.2-6,0.5-8.5s4.6-4,7.6-3.8
	c3,0.2,5.8,2,7.1,4.7c6.1,13.2,6.1,28.5,0,41.8C458.5,83.6,455.5,85.4,452.3,85.4z"/>
<path d="M256,208c-17.1,0-30.6-24.6-33.2-29.5c-1.7-3.3-1-7.4,1.6-10c8.3-8.7,19.5-14,31.5-14.9c12,0.8,23.3,6.1,31.5,14.9
	c2.7,2.6,3.4,6.7,1.6,10C286.7,183.4,273.2,208,256,208z M241.4,176.5c5.2,8,11.5,14.4,14.6,14.4c3.4,0,9.7-6.9,14.6-14.4
	c-4.3-3.3-9.4-5.3-14.7-5.8C250.6,171.3,245.6,173.3,241.4,176.5z"/>
<path d="M187.8,170.7c-23.5,0-42.6-19.1-42.7-42.7c0-4.7,3.8-8.5,8.5-8.5c4.7,0,8.5,3.8,8.5,8.5c0,14.1,11.5,25.6,25.6,25.6
	c14.1,0,25.6-11.5,25.6-25.6c0-4.7,3.8-8.5,8.5-8.5c4.7,0,8.5,3.8,8.5,8.5C230.4,151.6,211.3,170.7,187.8,170.7z"/>
<path d="M324.3,170.7c-23.6,0-42.6-19.1-42.7-42.7c0-4.7,3.8-8.5,8.5-8.5c4.7,0,8.5,3.8,8.5,8.5c0,14.1,11.5,25.6,25.6,25.6
	c14.1,0,25.6-11.5,25.6-25.6c0-4.7,3.8-8.5,8.5-8.5c4.7,0,8.5,3.8,8.5,8.5C366.9,151.6,347.8,170.7,324.3,170.7z"/>
<path d="M256,256c-14.4,0-25.6-15-25.6-34.1c-0.8-12.6,5.3-24.7,15.9-31.6c3.2-1.7,7.1-1.2,9.7,1.2c2.7-2.4,6.6-2.9,9.7-1.2
	c10.6,6.9,16.6,19,15.9,31.6C281.6,241,270.4,256,256,256z M256,204.2c-0.5,0.5-1.1,0.9-1.7,1.2c-4.9,4-7.4,10.2-6.8,16.5
	c0,10.3,5.1,17.1,8.5,17.1c3.4,0,8.5-6.8,8.5-17.1c0.6-6.3-2-12.5-6.8-16.5C257.1,205,256.5,204.6,256,204.2z"/>
<path d="M135.7,92.6c1.2-7.4,4.8-14.2,10.1-19.4c5.5-5.5,12.4-9.3,19.9-11c7.3-1.4,14.9-1.2,22.1,0.7c3.4,1,6.7,2.2,9.9,3.7
	c3,1.7,5.9,3.5,8.7,5.6c1.5,1.2,2.1,3.2,1.5,4.9c-0.6,1.8-2.4,3-4.3,2.9l-0.5,0c-3.1-0.2-6.2-0.6-9.2-1.2l-8.7-0.8
	c-5.3-0.3-10.7,0-15.9,0.9c-5,1.1-9.8,3-14.1,5.7c-4.7,3-9.1,6.6-13,10.7l-0.5,0.5c-1.1,1.1-2.8,1.4-4.1,0.6
	C136.2,95.6,135.5,94.1,135.7,92.6z"/>
<path d="M369.8,95.2c-3.9-4.1-8.3-7.6-13-10.7c-4.4-2.7-9.1-4.6-14.1-5.7c-5.3-0.9-10.6-1.2-15.9-0.9l-8.7,0.8
	c-3,0.6-6.1,0.9-9.2,1.2l-0.5,0c-1.9,0.1-3.7-1.1-4.3-2.9c-0.7-1.8-0.1-3.8,1.5-5c2.8-2,5.7-3.9,8.7-5.6c3.2-1.5,6.5-2.7,9.9-3.7
	c7.2-1.9,14.8-2.1,22.1-0.7c7.5,1.7,14.5,5.5,19.9,11c5.3,5.2,8.9,12,10.1,19.4c0.2,1.5-0.5,3-1.9,3.7c-1.4,0.7-3,0.5-4.1-0.6
	L369.8,95.2z"/>
</svg>
