<svg height="512pt" viewBox="-17 0 512 512.01456" width="512pt" xmlns="http://www.w3.org/2000/svg"><path d="m69.941406 233.914062-11.347656 32.765626c-27.394531-13.480469-59.394531-40.445313-47.53125-77.308594 5.402344-14.363282 13.128906-27.738282 22.871094-39.597656 16.722656-22.441407 23.550781-33.277344 10.152344-53.160157-4.457032-6.636719-8.066407-13.804687-10.75-21.335937-6.054688-17.160156-7.46875-35.617188-4.097657-53.503906 2.121094-9.1875 11.289063-14.917969 20.480469-12.800782 9.191406 2.121094 14.921875 11.292969 12.800781 20.480469-1.953125 11.910156-.746093 24.121094 3.496094 35.414063 1.582031 4.46875 3.734375 8.714843 6.402344 12.628906 27.390625 40.789062 5.203125 70.828125-11.09375 92.671875-7.453125 8.867187-13.445313 18.863281-17.75 29.613281-4.523438 14.164062 13.3125 26.878906 26.367187 34.132812zm0 0" fill="#607d8b"/><path d="m469.386719 358.414062c0 145.066407-85.332031 145.066407-85.332031 145.066407h-256s-85.332032 0-85.332032-145.066407c0-134.996093 133.03125-321.707031 151.464844-346.964843 1.214844-1.714844 3.515625-2.265625 5.375-1.28125.171875.085937.34375.257812.511719.34375 17.238281 10.835937 21.847656 40.703125 21.847656 40.703125h68.265625s4.609375-29.867188 21.84375-40.703125c.171875-.085938.34375-.257813.515625-.34375 1.855469-.984375 4.15625-.433594 5.375 1.28125 18.429687 25.257812 151.464844 211.96875 151.464844 346.964843zm0 0" fill="#7f8e94"/><path d="m358.453125 401.082031c.6875 36.375-9.730469 72.097657-29.867187 102.398438h-145.066407c-20.132812-30.300781-30.550781-66.023438-29.863281-102.398438 0-80.128906 45.820312-145.066406 102.398438-145.066406 56.574218 0 102.398437 64.9375 102.398437 145.066406zm0 0" fill="#f5f5f5"/><path d="m136.585938 443.746094h59.734374c14.140626 0 25.601563 11.464844 25.601563 25.601562 0 14.140625-11.460937 25.601563-25.601563 25.601563h-59.734374" fill="#7f8e94"/><path d="m375.519531 443.746094h-59.730469c-14.140624 0-25.601562 11.464844-25.601562 25.601562 0 14.140625 11.460938 25.601563 25.601562 25.601563h59.730469" fill="#7f8e94"/><path d="m192.054688 145.082031c-11.78125 0-21.332032-9.550781-21.332032-21.335937 0-11.78125 9.550782-21.332032 21.332032-21.332032s21.332031 9.550782 21.332031 21.332032c-.011719 11.777344-9.554688 21.320312-21.332031 21.335937zm0 0" fill="#607d8b"/><path d="m320.054688 145.082031c-11.78125 0-21.332032-9.550781-21.332032-21.335937 0-11.78125 9.550782-21.332032 21.332032-21.332032s21.332031 9.550782 21.332031 21.332032c-.011719 11.777344-9.554688 21.320312-21.332031 21.335937zm0 0" fill="#607d8b"/><path d="m281.398438 178.957031c.171874 1.503907.257812 3.011719.257812 4.523438 0 21.25-11.4375 38.402343-25.601562 38.402343-14.164063 0-25.601563-17.152343-25.601563-38.402343 0-1.511719.085937-3.019531.257813-4.523438l25.34375-8.277343zm0 0" fill="#bb193b"/><path d="m170.722656 328.269531v25.601563c0 9.425781-7.640625 17.066406-17.066406 17.066406s-17.070312-7.640625-17.070312-17.066406v-51.199219" fill="#7f8e94"/><path d="m341.386719 328.269531v25.601563c0 9.425781 7.640625 17.066406 17.066406 17.066406s17.066406-7.640625 17.066406-17.066406v-51.199219" fill="#7f8e94"/><path d="m66.015625 64.867188c-10.300781 5.113281-21.320313 8.625-32.679687 10.410156-6.054688-17.160156-7.46875-35.617188-4.097657-53.503906 2.121094-9.1875 11.289063-14.917969 20.480469-12.800782 9.191406 2.121094 14.921875 11.292969 12.800781 20.480469-1.953125 11.910156-.746093 24.121094 3.496094 35.414063zm0 0" fill="#37474f"/><path d="m384.054688 512.015625h-256c-17.859376-1.179687-34.816407-8.277344-48.191407-20.167969-30.308593-25.757812-45.675781-70.652344-45.675781-133.433594 0-135.550781 127.554688-317.027343 153.125-352.03125 3.78125-5.308593 10.988281-6.839843 16.601562-3.535156 15.378907 9.15625 22.234376 28.941406 24.949219 39.832032h54.382813c2.710937-10.890626 9.570312-30.675782 24.953125-39.835938 5.613281-3.296875 12.8125-1.761719 16.59375 3.539062 25.574219 35.003907 153.128906 216.480469 153.128906 352.03125 0 62.78125-15.367187 107.675782-45.675781 133.433594-13.375 11.890625-30.332032 18.988282-48.191406 20.167969zm-185.535157-492.007813c-23.933593 33.28125-147.265625 211.042969-147.265625 338.40625 0 134.972657 76.03125 136.535157 76.800782 136.535157h256c3.082031-.042969 76.800781-2.523438 76.800781-136.535157 0-127.363281-123.339844-305.125-147.269531-338.410156-8.027344 9.152344-13.226563 20.445313-14.960938 32.5-.636719 4.167969-4.222656 7.246094-8.4375 7.242188h-68.265625c-4.207031-.003906-7.785156-3.070313-8.433594-7.226563-1.769531-12.050781-6.964843-23.335937-14.96875-32.511719zm0 0"/><path d="m221.921875 76.816406c-4.714844 0-8.535156-3.824218-8.535156-8.535156v-17.066406c0-4.714844 3.820312-8.535156 8.535156-8.535156 4.710937 0 8.53125 3.820312 8.53125 8.535156v17.066406c0 4.710938-3.820313 8.535156-8.53125 8.535156zm0 0"/><path d="m256.054688 93.882812c-4.714844 0-8.535157-3.820312-8.535157-8.535156v-34.132812c0-4.714844 3.820313-8.535156 8.535157-8.535156 4.710937 0 8.53125 3.820312 8.53125 8.535156v34.132812c0 4.714844-3.820313 8.535156-8.53125 8.535156zm0 0"/><path d="m290.1875 76.816406c-4.710938 0-8.53125-3.824218-8.53125-8.535156v-17.066406c0-4.714844 3.820312-8.535156 8.53125-8.535156 4.714844 0 8.535156 3.820312 8.535156 8.535156v17.066406c0 4.710938-3.820312 8.535156-8.535156 8.535156zm0 0"/><path d="m196.320312 512.015625h-59.734374c-4.710938 0-8.53125-3.820313-8.53125-8.535156 0-4.710938 3.820312-8.53125 8.53125-8.53125h59.734374c9.425782 0 17.066407-7.640625 17.066407-17.066407 0-9.425781-7.640625-17.066406-17.066407-17.066406h-59.734374c-4.710938 0-8.53125-3.824218-8.53125-8.535156s3.820312-8.535156 8.53125-8.535156h59.734374c18.851563 0 34.132813 15.285156 34.132813 34.136718 0 18.851563-15.28125 34.132813-34.132813 34.132813zm0 0"/><path d="m375.519531 512.015625h-59.730469c-18.851562 0-34.132812-15.28125-34.132812-34.132813 0-18.851562 15.28125-34.136718 34.132812-34.136718h59.730469c4.714844 0 8.535157 3.824218 8.535157 8.535156s-3.820313 8.535156-8.535157 8.535156h-59.730469c-9.425781 0-17.066406 7.640625-17.066406 17.066406 0 9.425782 7.640625 17.066407 17.066406 17.066407h59.730469c4.714844 0 8.535157 3.820312 8.535157 8.53125 0 4.714843-3.820313 8.535156-8.535157 8.535156zm0 0"/><path d="m192.054688 145.082031c-11.78125 0-21.332032-9.550781-21.332032-21.335937 0-11.78125 9.550782-21.332032 21.332032-21.332032s21.332031 9.550782 21.332031 21.332032c-.011719 11.777344-9.554688 21.320312-21.332031 21.335937zm0-25.601562c-2.355469 0-4.265626 1.910156-4.265626 4.265625 0 2.359375 1.910157 4.269531 4.265626 4.269531 2.355468 0 4.265624-1.910156 4.265624-4.269531 0-2.355469-1.910156-4.265625-4.265624-4.265625zm0 0"/><path d="m320.054688 145.082031c-11.78125 0-21.332032-9.550781-21.332032-21.335937 0-11.78125 9.550782-21.332032 21.332032-21.332032s21.332031 9.550782 21.332031 21.332032c-.011719 11.777344-9.554688 21.320312-21.332031 21.335937zm0-25.601562c-2.355469 0-4.265626 1.910156-4.265626 4.265625 0 2.359375 1.910157 4.269531 4.265626 4.269531 2.355468 0 4.265624-1.910156 4.265624-4.269531 0-2.355469-1.910156-4.265625-4.265624-4.265625zm0 0"/><path d="m226.921875 187.746094c-14.101563-.6875-27.316406-7.0625-36.632813-17.667969-2.210937-2.144531-3.09375-5.3125-2.3125-8.292969.78125-2.980468 3.105469-5.304687 6.085938-6.085937 2.976562-.78125 6.148438.101562 8.292969 2.3125 6.484375 7.820312 16.054687 12.425781 26.210937 12.613281 8.121094-1.148438 15.503906-5.328125 20.660156-11.703125 2.828126-3.769531 8.175782-4.53125 11.949219-1.707031 3.769531 2.828125 4.53125 8.179687 1.707031 11.949218-8.148437 10.308594-20.054687 16.957032-33.105468 18.480469-.953125.070313-1.90625.101563-2.855469.101563zm0 0"/><path d="m285.1875 187.746094c-.949219 0-1.898438-.03125-2.855469-.097656-13.050781-1.523438-24.957031-8.175782-33.105469-18.484376-2.785156-3.765624-2.015624-9.070312 1.726563-11.890624 3.738281-2.820313 9.054687-2.09375 11.902344 1.621093 5.191406 6.421875 12.632812 10.617188 20.8125 11.738281 10.113281-.226562 19.632812-4.832031 26.085937-12.621093 2.144532-2.210938 5.3125-3.09375 8.289063-2.3125 2.980469.78125 5.308593 3.105469 6.089843 6.085937.78125 2.980469-.101562 6.148438-2.3125 8.292969-9.316406 10.605469-22.535156 16.980469-36.632812 17.667969zm0 0"/><path d="m256.054688 230.414062c-19.140626 0-34.132813-20.617187-34.132813-46.933593-.003906-1.84375.101563-3.6875.3125-5.519531.550781-4.679688 4.792969-8.027344 9.472656-7.476563 4.683594.554687 8.027344 4.796875 7.476563 9.476563-.132813 1.167968-.199219 2.34375-.195313 3.519531 0 17.601562 8.996094 29.867187 17.066407 29.867187 8.070312 0 17.066406-12.265625 17.066406-29.867187.003906-1.175781-.0625-2.351563-.195313-3.519531-.550781-4.679688 2.792969-8.921876 7.476563-9.476563 4.679687-.550781 8.921875 2.796875 9.472656 7.476563.210938 1.832031.316406 3.675781.3125 5.519531 0 26.316406-14.992188 46.933593-34.132812 46.933593zm0 0"/><path d="m153.65625 379.46875c-14.132812-.015625-25.585938-11.46875-25.601562-25.601562v-51.199219c0-4.710938 3.820312-8.53125 8.53125-8.53125 4.714843 0 8.535156 3.820312 8.535156 8.53125v51.199219c0 4.714843 3.820312 8.535156 8.535156 8.535156 4.710938 0 8.53125-3.820313 8.53125-8.535156v-25.597657c0-4.714843 3.820312-8.535156 8.535156-8.535156 4.710938 0 8.53125 3.820313 8.53125 8.535156v25.597657c-.015625 14.132812-11.46875 25.585937-25.597656 25.601562zm0 0"/><path d="m358.453125 379.46875c-14.128906-.015625-25.582031-11.46875-25.597656-25.601562v-25.597657c0-4.714843 3.820312-8.535156 8.53125-8.535156 4.714843 0 8.535156 3.820313 8.535156 8.535156v25.597657c0 4.714843 3.820313 8.535156 8.53125 8.535156 4.714844 0 8.535156-3.820313 8.535156-8.535156v-51.199219c0-4.710938 3.820313-8.53125 8.53125-8.53125 4.714844 0 8.535157 3.820312 8.535157 8.53125v51.199219c-.015626 14.132812-11.46875 25.585937-25.601563 25.601562zm0 0"/><path d="m264.585938 153.613281h-17.066407c-4.710937 0-8.53125-3.820312-8.53125-8.53125 0-4.714843 3.820313-8.535156 8.53125-8.535156h17.066407c4.714843 0 8.535156 3.820313 8.535156 8.535156 0 4.710938-3.820313 8.53125-8.535156 8.53125zm0 0"/><path d="m256.054688 170.679688c-4.714844 0-8.535157-3.820313-8.535157-8.53125v-17.066407c0-4.714843 3.820313-8.535156 8.535157-8.535156 4.710937 0 8.53125 3.820313 8.53125 8.535156v17.066407c0 4.710937-3.820313 8.53125-8.53125 8.53125zm0 0"/><path d="m163.894531 460.820312c-3.585937-.003906-6.789062-2.246093-8.015625-5.613281-7.230468-20.09375-10.871094-41.304687-10.757812-62.660156-.007813-7.585937.441406-15.164063 1.339844-22.699219.628906-4.617187 4.847656-7.878906 9.476562-7.320312s7.953125 4.726562 7.46875 9.363281c-.820312 6.855469-1.226562 13.753906-1.21875 20.65625-.0625 19.355469 3.226562 38.578125 9.726562 56.808594.953126 2.617187.570313 5.535156-1.027343 7.820312-1.597657 2.28125-4.207031 3.640625-6.992188 3.644531zm0 0"/><path d="m330.4375 307.214844c-2.765625.003906-5.363281-1.335938-6.964844-3.59375-17.894531-25.199219-41.839844-39.074219-67.417968-39.074219-25.578126 0-49.523438 13.875-67.414063 39.074219-1.765625 2.488281-4.722656 3.84375-7.757813 3.558594-3.035156-.289063-5.6875-2.171876-6.957031-4.945313-1.269531-2.769531-.964843-6.007813.800781-8.496094 20.875-29.394531 50.523438-46.257812 81.328126-46.257812 30.804687 0 60.453124 16.863281 81.332031 46.257812 1.847656 2.601563 2.089843 6.019531.628906 8.855469-1.464844 2.835938-4.386719 4.617188-7.578125 4.621094zm0 0"/><path d="m348.214844 460.820312c-2.785156-.003906-5.394532-1.367187-6.988282-3.648437-1.597656-2.28125-1.980468-5.199219-1.027343-7.816406 6.5-18.230469 9.789062-37.453125 9.722656-56.808594.003906-6.902344-.402344-13.796875-1.21875-20.648437-.488281-4.636719 2.835937-8.808594 7.464844-9.367188 4.628906-.554688 8.851562 2.703125 9.476562 7.324219.902344 7.53125 1.351563 15.109375 1.34375 22.691406.113281 21.355469-3.527343 42.566406-10.757812 62.660156-1.230469 3.367188-4.429688 5.609375-8.015625 5.613281zm0 0"/><path d="m58.582031 275.214844c-1.300781 0-2.585937-.300782-3.753906-.878906-43.285156-21.308594-62.683594-54.042969-51.890625-87.578126 5.539062-15.015624 13.53125-29.003906 23.652344-41.398437 17.667968-23.722656 20.179687-29.496094 10.421875-43.984375-15.695313-24.042969-21.46875-53.230469-16.105469-81.4375 1.507812-6.675781 5.632812-12.46875 11.449219-16.074219 12.007812-7.464843 27.796875-3.785156 35.265625 8.222657 3.609375 5.75 4.765625 12.703124 3.203125 19.3125l-.003907.027343c-2.253906 14.371094.832032 29.066407 8.679688 41.3125 30.867188 45.960938 4.449219 81.371094-11.335938 102.535157-6.839843 8.148437-12.394531 17.296874-16.46875 27.125-1.941406 6.078124 6.636719 15.304687 22.394532 24.058593 2.664062 1.480469 4.335937 4.269531 4.382812 7.320313.050782 3.046875-1.527344 5.890625-4.144531 7.457031-2.613281 1.566406-5.867187 1.621094-8.53125.140625-31.214844-17.347656-33.734375-33.605469-30.351563-44.1875 4.570313-11.667969 11-22.515625 19.039063-32.121094 15.582031-20.890625 34.976563-46.886718 10.851563-82.808594-10.570313-16.144531-14.519532-35.738281-11.027344-54.71875l-.097656-.023437c1.050781-4.601563-1.824219-9.183594-6.421876-10.238281-4.601562-1.054688-9.183593 1.820312-10.238281 6.421875-4.261719 23.621093.609375 47.980469 13.617188 68.152343 17.363281 25.769532 5.113281 42.207032-10.394531 63.023438-9.148438 11.121094-16.441407 23.648438-21.589844 37.097656-11.800782 36.6875 30.0625 60.597656 43.175781 67.054688 3.558594 1.753906 5.4375 5.726562 4.539063 9.59375-.902344 3.863281-4.347657 6.59375-8.316407 6.59375zm0 0"/></svg>