<svg height="512pt" viewBox="-13 0 512 512.01126" width="512pt" xmlns="http://www.w3.org/2000/svg"><path d="m90.707031 474.539062c-10.210937 6.058594-21.761719 9.488282-33.621093 9.984376-3.15625 0-6.304688-.34375-9.386719-1.023438-12.792969-2.914062-23.472657-11.667969-28.84375-23.636719-13.910157-27.820312 2.644531-49.070312 14.679687-64.683593 9.042969-11.691407 17.664063-22.785157 17.664063-36.78125.007812-1.453126-.078125-2.90625-.257813-4.351563-.070312-3.796875-1.632812-7.414063-4.351562-10.066406-5.359375-3.03125-11.609375-4.089844-17.664063-2.988281-9.238281 1.835937-18.214843-4.160157-20.054687-13.398438-1.835938-9.234375 4.160156-18.214844 13.398437-20.050781 16.0625-3.144531 32.714844.5 45.996094 10.066406 7.28125 6.042969 12.472656 14.222656 14.847656 23.382813 1.515625 5.675781 2.261719 11.53125 2.21875 17.40625 0 25.6875-13.738281 43.4375-24.832031 57.6875-12.289062 15.957031-14.933594 20.90625-11.09375 28.585937 2.390625 4.777344 4.605469 5.289063 5.632812 5.460937 7.765626 1.707032 22.183594-6.398437 28.160157-11.179687 1.390625-1.15625 2.980469-2.050781 4.691406-2.644531zm0 0" fill="#91562d"/><path d="m426.578125 454.996094c-2.25 27.710937-25.621094 48.917968-53.417969 48.46875h-234.324218c-27.796876.449218-51.167969-20.757813-53.417969-48.46875-1.234375-24.367188 14.851562-46.234375 38.484375-52.308594 2.4375-.566406 4.519531-2.152344 5.714844-4.351562 4.625-9.234376 8.339843-18.890626 11.09375-28.84375 1.792968-6.460938 3.246093-13.011719 4.351562-19.625.429688-2.644532.855469-5.292969 1.367188-7.765626 1.023437-5.804687 2.046874-11.179687 3.070312-16.042968h212.992188c1.027343 4.863281 2.050781 10.15625 3.074218 15.957031l.253906 1.535156c.429688 2.050781.769532 4.097657 1.109376 6.316407 2.671874 16.84375 7.878906 33.1875 15.445312 48.46875.933594 1.804687 2.519531 3.179687 4.4375 3.839843.394531.242188.828125.417969 1.28125.511719 23.679688 6 39.804688 27.917969 38.484375 52.308594zm0 0" fill="#783e22"/><path d="m400.980469 454.996094c-2.25 27.710937-25.621094 48.917968-53.421875 48.46875h-208.722656c-27.796876.449218-51.167969-20.757813-53.417969-48.46875-1.234375-24.367188 14.851562-46.234375 38.484375-52.308594 2.4375-.566406 4.519531-2.152344 5.714844-4.351562 4.625-9.234376 8.339843-18.890626 11.09375-28.84375 1.792968-6.460938 3.246093-13.011719 4.351562-19.625.429688-2.644532.855469-5.292969 1.367188-7.765626 1.023437-5.804687 2.046874-11.179687 3.070312-16.042968h187.394531c1.023438 4.863281 2.046875 10.15625 3.070313 15.957031l.257812 1.535156c.425782 2.050781.765625 4.097657 1.109375 6.316407 2.667969 16.84375 7.875 33.1875 15.445313 48.46875.929687 1.804687 2.519531 3.179687 4.4375 3.839843.394531.242188.824218.417969 1.277344.511719 23.683593 6 39.808593 27.917969 38.488281 52.308594zm0 0" fill="#a0522d"/><path d="m83.113281 340.992188c-8.84375 8.019531-20.242187 12.644531-32.171875 13.054687-.070312-3.796875-1.632812-7.414063-4.351562-10.066406-5.359375-3.03125-11.609375-4.089844-17.664063-2.988281-9.238281 1.835937-18.214843-4.160157-20.054687-13.398438-1.835938-9.234375 4.160156-18.214844 13.398437-20.050781 16.0625-3.144531 32.714844.5 45.996094 10.066406 7.28125 6.042969 12.472656 14.222656 14.847656 23.382813zm0 0" fill="#ffe0b2"/><path d="m219.75 388.691406c-6.054688-1.210937-12.34375.097656-17.410156 3.628906-5.066406 3.527344-8.472656 8.972657-9.433594 15.074219-3.265625 20.625-8.484375 48.1875-13.707031 53.40625-5.601563 5.601563-14.878907 7.523438-20.59375 17.832031-2.753907 5.292969-2.53125 11.636719.585937 16.722657 3.113282 5.082031 8.667969 8.160156 14.628906 8.109375h34.507813c7.972656.027344 14.894531-5.496094 16.640625-13.28125 5.875-25.5 10.199219-51.332032 12.953125-77.355469.984375-11.5-6.847656-21.902344-18.175781-24.132813zm0 0" fill="#a0522d"/><path d="m292.25 388.691406c6.054688-1.210937 12.34375.097656 17.410156 3.628906 5.070313 3.527344 8.476563 8.972657 9.4375 15.074219 3.265625 20.625 8.484375 48.1875 13.699219 53.40625 5.601563 5.601563 14.878906 7.523438 20.59375 17.832031 2.75 5.289063 2.53125 11.636719-.585937 16.71875-3.113282 5.085938-8.664063 8.164063-14.625 8.113282h-34.507813c-7.976563.027344-14.894531-5.496094-16.644531-13.28125-5.871094-25.5-10.195313-51.332032-12.949219-77.355469-.984375-11.5 6.847656-21.902344 18.175781-24.132813zm0 0" fill="#a0522d"/><path d="m477.863281 187.734375c0 65.789063-40.957031 110.421875-102.742187 133.886719-33.410156 12.101562-68.578125 18.648437-104.105469 19.371094-4.949219.253906-9.984375.339843-15.019531.339843-3.582032 0-7.167969-.085937-10.664063-.167969-53.25-1.28125-101.546875-12.460937-138.496093-33.621093-36.523438-20.824219-61.867188-51.285157-69.890626-91.394531-1.914062-9.347657-2.859374-18.871094-2.8125-28.414063-.625-32.199219 10.890626-63.453125 32.253907-87.554687-2.765625-30.9375.773437-62.117188 10.410156-91.644532 3.695313.023438 7.367187.539063 10.921875 1.535156 22.359375 5.632813 48.300781 26.195313 62.890625 38.996094 21.296875-6.625 43.238281-10.972656 65.453125-12.96875 13.269531-1.351562 26.597656-2.007812 39.933594-1.964844 22.164062-.09375 44.289062 1.734376 66.136718 5.460938 12.667969 2.164062 25.183594 5.15625 37.460938 8.960938 14.761719-12.886719 40.445312-33.023438 62.460938-38.570313 3.511718-.921875 7.125-1.40625 10.753906-1.449219 9.382812 28.730469 12.953125 59.046875 10.496094 89.171875 22.429687 23.835938 34.78125 55.417969 34.472656 88.148438.074218.625.101562 1.25.085937 1.878906zm0 0" fill="#91562d"/><path d="m294.566406 246.355469c2.710938 5.679687 4.109375 11.890625 4.097656 18.179687 0 23.5625-19.101562 42.664063-42.667968 42.664063-23.5625 0-42.664063-19.101563-42.664063-42.664063-.011719-6.289062 1.386719-12.5 4.09375-18.179687 0 0 33.195313-8.375 38.570313-25.757813zm0 0" fill="#bb193b"/><path d="m279.03125 187.050781-12.800781 13.652344c-5.730469 5.460937-14.742188 5.460937-20.472657 0l-12.800781-13.652344c-2.183593-2.144531-3.050781-5.289062-2.273437-8.25 1.640625-4.769531 6.097656-8 11.144531-8.078125.453125-.046875.910156-.066406 1.367187-.054687h25.601563c.457031-.011719.914063.007812 1.367187.054687 5.039063.097656 9.484376 3.320313 11.144532 8.078125.777344 2.960938-.09375 6.109375-2.277344 8.25zm0 0" fill="#ef314c"/><g fill="#ffe0b2"><path d="m140.199219 254.550781c.03125 22.621094-12.953125 43.242188-33.363281 52.992188-36.523438-20.824219-61.867188-51.285157-69.890626-91.394531 4.363282-5.089844 9.59375-9.363282 15.445313-12.628907 8.816406-5.109375 18.828125-7.789062 29.015625-7.765625 32.457031.03125 58.761719 26.335938 58.792969 58.796875zm0 0"/><path d="m326.140625 60.671875c0 31.929687-25.882813 57.8125-57.8125 57.8125s-57.8125-25.882813-57.8125-57.8125c-.027344-8.503906 1.867187-16.90625 5.546875-24.574219 13.269531-1.351562 26.597656-2.007812 39.933594-1.964844 22.164062-.09375 44.289062 1.734376 66.136718 5.460938 2.675782 6.703125 4.039063 13.859375 4.007813 21.078125zm0 0"/><path d="m386.8125 402.175781c-6.574219 7.167969-15.871094 11.226563-25.597656 11.179688-19.371094 0-35.074219-15.703125-35.074219-35.074219 0-19.367188 15.703125-35.070312 35.074219-35.070312 1.542968-.015626 3.082031.101562 4.605468.339843.429688 2.050781.769532 4.097657 1.109376 6.316407 2.671874 16.84375 7.878906 33.1875 15.445312 48.46875.933594 1.804687 2.519531 3.179687 4.4375 3.839843zm0 0"/><path d="m171.601562 406.785156c-.007812 18.554688-13.449218 34.378906-31.761718 37.382813-18.3125 3.007812-36.109375-7.6875-42.050782-25.265625 6.792969-8.003906 15.925782-13.675782 26.113282-16.214844 2.4375-.566406 4.519531-2.152344 5.714844-4.351562 4.625-9.234376 8.339843-18.890626 11.09375-28.84375 17.9375 3.363281 30.925781 19.042968 30.890624 37.292968zm0 0"/></g><path d="m134.140625 57.429688c-18.246094 7.421874-35.457031 17.175781-51.199219 29.011718-.496094-19.597656 1.480469-39.179687 5.886719-58.28125 16.566406 7.28125 31.863281 17.164063 45.3125 29.269532zm0 0" fill="#ef314c"/><path d="m477.863281 187.734375c0 65.789063-40.957031 110.421875-102.742187 133.886719-33.410156 12.101562-68.578125 18.648437-104.105469 19.371094-4.949219.253906-9.984375.339843-15.019531.339843-3.582032 0-7.167969-.085937-10.664063-.167969-.855469 0-1.621093-.085937-2.476562-.085937.855469 0 1.707031 0 2.5625-.085937 35.527343-.722657 70.695312-7.269532 104.105469-19.371094 5.632812-2.132813 11.09375-4.4375 16.382812-6.996094 52.566406-24.832031 86.359375-67.074219 86.359375-126.890625.011719-.628906-.015625-1.253906-.085937-1.878906-.035157-5.25-.378907-10.492188-1.023438-15.699219-2.921875-27.160156-14.671875-52.613281-33.453125-72.449219 1.921875-27.984375-.933594-56.089843-8.445313-83.113281 4.117188-1.921875 8.402344-3.464844 12.796876-4.609375 3.511718-.921875 7.125-1.40625 10.753906-1.449219 9.382812 28.730469 12.953125 59.046875 10.496094 89.171875 22.429687 23.835938 34.78125 55.417969 34.472656 88.148438.074218.625.101562 1.25.085937 1.878906zm0 0" fill="#6d4122"/><path d="m426.664062 84.566406c-15.582031-11.296875-32.488281-20.640625-50.347656-27.820312 13.238282-11.789063 28.238282-21.433594 44.460938-28.585938 4.222656 18.496094 6.199218 37.433594 5.886718 56.40625zm0 0" fill="#ef314c"/><path d="m386.8125 402.175781c-2.621094 2.898438-5.742188 5.296875-9.214844 7.082031-4.636718-3.011718-9.738281-5.234374-15.105468-6.570312-.453126-.09375-.882813-.269531-1.277344-.511719-1.917969-.660156-3.507813-2.035156-4.4375-3.839843-7.570313-15.28125-12.777344-31.625-15.445313-48.46875 0-.171876-.085937-.257813-.085937-.425782 5.867187-4.0625 12.832031-6.234375 19.96875-6.230468 1.542968-.015626 3.082031.101562 4.605468.339843.429688 2.050781.769532 4.097657 1.109376 6.316407 2.671874 16.84375 7.878906 33.1875 15.445312 48.46875.933594 1.804687 2.519531 3.179687 4.4375 3.839843zm0 0" fill="#dfc49c"/><path d="m477.863281 187.734375c0 65.789063-40.957031 110.421875-102.742187 133.886719-1.386719-.859375-2.726563-1.800782-4.007813-2.816406-35.625-26.386719-45.097656-75.664063-21.800781-113.378907 23.296875-37.714843 71.601562-51.300781 111.144531-31.261719 6.242188 3.15625 12.0625 7.085938 17.320313 11.691407.074218.625.101562 1.25.085937 1.878906zm0 0" fill="#ffe0b2"/><path d="m477.863281 187.734375c0 65.789063-40.957031 110.421875-102.742187 133.886719-1.386719-.859375-2.726563-1.800782-4.007813-2.816406-1.808593-1.296876-3.546875-2.695313-5.207031-4.179688 52.566406-24.832031 86.359375-67.074219 86.359375-126.890625.011719-.628906-.015625-1.253906-.085937-1.878906-.035157-5.25-.378907-10.492188-1.023438-15.699219 3.191406 1.105469 6.300781 2.449219 9.300781 4.007812 6.242188 3.15625 12.0625 7.085938 17.320313 11.691407.074218.625.101562 1.25.085937 1.878906zm0 0" fill="#dfc49c"/><path d="m256 349.867188c-139.960938 0-230.398438-63.640626-230.398438-162.132813-.625-33.0625 10.773438-65.230469 32.074219-90.523437-2.421875-31.054688 1.390625-62.285157 11.207031-91.847657 1.292969-3.242187 4.429688-5.363281 7.917969-5.363281 24.023438 0 53.835938 20.792969 75.808594 39.515625 33.609375-9.625 68.4375-14.3125 103.390625-13.914063 34.328125-.371093 68.535156 4.148438 101.585938 13.425782 21.796874-18.488282 51.371093-39.027344 75.222656-39.027344 3.488281 0 6.625 2.125 7.925781 5.363281 9.539063 28.71875 13.363281 59.027344 11.261719 89.214844 22.808594 25.601563 35.097656 58.875 34.40625 93.15625 0 98.492187-90.4375 162.132813-230.402344 162.132813zm-173.234375-332.203126c-7.277344 26.679688-9.933594 54.410157-7.859375 81.988282.140625 2.261718-.625 4.484375-2.128906 6.183594-19.976563 22.542968-30.726563 51.785156-30.109375 81.898437 0 107.074219 114.921875 145.066406 213.332031 145.066406 98.414062 0 213.335938-37.992187 213.335938-145.066406.675781-31.207031-10.90625-61.4375-32.261719-84.199219-1.585938-1.695312-2.410157-3.964844-2.285157-6.285156 1.804688-26.785156-.878906-53.679688-7.941406-79.578125-15.363281 2.894531-37.335937 16.136719-61.644531 37.316406-2.234375 1.941407-5.316406 2.589844-8.144531 1.710938-32.789063-9.730469-66.855469-14.460938-101.058594-14.03125-34.804688-.457031-69.476562 4.441406-102.792969 14.527343-2.847656.910157-5.964843.261719-8.214843-1.707031-24.550782-21.484375-46.738282-34.90625-62.226563-37.824219zm0 0"/><path d="m373.164062 512h-234.328124c-32.402344.617188-59.617188-24.230469-61.941407-56.554688-1.515625-28.460937 17.300781-54.027343 44.929688-61.035156 7.328125-14.433594 12.332031-29.9375 14.824219-45.9375 1.46875-9.066406 3.027343-17.042968 4.503906-24.148437 1.023437-4.542969 5.5-7.425781 10.058594-6.480469 4.558593.945312 7.515624 5.371094 6.648437 9.945312-1.425781 6.890626-2.941406 14.617188-4.367187 23.441407-2.808594 17.703125-8.289063 34.878906-16.25 50.941406-2.265626 4.363281-6.296876 7.542969-11.066407 8.738281-19.792969 4.960938-33.304687 23.242188-32.238281 43.621094 2.109375 23.128906 21.671875 40.738281 44.898438 40.402344h234.324218c23.21875.335937 42.78125-17.261719 44.894532-40.386719 1.097656-20.316406-12.324219-38.570313-32.039063-43.582031-4.851563-1.175782-8.957031-4.386719-11.265625-8.808594-7.949219-16.046875-13.421875-33.207031-16.234375-50.894531-1.429687-8.851563-2.945313-16.582031-4.371094-23.46875-.867187-4.574219 2.09375-9 6.652344-9.945313 4.558594-.945312 9.035156 1.9375 10.058594 6.480469 1.472656 7.105469 3.03125 15.082031 4.507812 24.179687 2.527344 15.980469 7.464844 31.488282 14.640625 45.992188 27.714844 6.867188 46.644532 32.453125 45.101563 60.964844-2.335938 32.3125-29.546875 57.152344-61.941407 56.535156zm0 0"/><path d="m208.332031 512h-34.511719c-9.152343-.039062-17.609374-4.890625-22.257812-12.773438-4.550781-7.574218-4.710938-17.003906-.414062-24.726562 3.90625-6.683594 9.597656-12.152344 16.4375-15.785156 1.996093-1.117188 3.867187-2.441406 5.582031-3.953125 4.113281-5.414063 10.847656-41.554688 14.632812-71.824219.636719-4.625 4.878907-7.878906 9.511719-7.300781s7.941406 4.777343 7.421875 9.417969c-3.320313 26.578124-10.273437 72.550781-19.5 81.773437-2.628906 2.472656-5.542969 4.621094-8.679687 6.40625-4.308594 2.144531-7.933594 5.445313-10.480469 9.53125-1.335938 2.445313-1.261719 5.421875.199219 7.796875 1.550781 2.703125 4.429687 4.371094 7.546874 4.371094h34.511719c3.984375.03125 7.449219-2.726563 8.316407-6.617188 7.582031-31.425781 12.1875-63.496094 13.753906-95.78125 0-4.714844 3.820312-8.535156 8.53125-8.535156 4.714844 0 8.535156 3.820312 8.535156 8.535156-1.558594 33.542969-6.304688 66.863282-14.164062 99.511719-2.578126 11.707031-12.984376 20.019531-24.972657 19.953125zm0 0"/><path d="m338.171875 512h-34.5c-11.988281.070312-22.394531-8.246094-24.96875-19.953125-7.867187-32.648437-12.609375-65.96875-14.167969-99.511719 0-4.714844 3.820313-8.535156 8.535156-8.535156 4.710938 0 8.53125 3.820312 8.53125 8.535156 1.640626 32.28125 6.246094 64.34375 13.753907 95.78125.863281 3.890625 4.332031 6.648438 8.316406 6.617188h34.5c3.121094 0 6-1.664063 7.554687-4.367188 1.460938-2.375 1.539063-5.347656.203126-7.796875-2.546876-4.085937-6.175782-7.382812-10.484376-9.53125-3.136718-1.785156-6.050781-3.933593-8.679687-6.40625-9.226563-9.222656-16.179687-55.195312-19.5-81.773437-.421875-3.046875.828125-6.082032 3.273437-7.949219 2.445313-1.867187 5.703126-2.273437 8.53125-1.066406 2.828126 1.207031 4.785157 3.84375 5.128907 6.898437 3.785156 30.269532 10.519531 66.410156 14.804687 72.011719 1.675782 1.425781 3.488282 2.6875 5.410156 3.765625 6.839844 3.632812 12.53125 9.097656 16.4375 15.785156 4.296876 7.722656 4.136719 17.152344-.417968 24.722656-4.601563 7.933594-13.089844 12.804688-22.261719 12.773438zm0 0"/><path d="m57.085938 493.054688c-3.78125.003906-7.550782-.40625-11.242188-1.222657-15.285156-3.5-28.078125-13.902343-34.621094-28.152343-16.222656-32.457032 2.78125-57.132813 15.359375-73.457032 8.769531-11.34375 16.085938-20.792968 16.085938-31.824218.308593-2.679688-.191407-5.390626-1.4375-7.78125-3.402344-1.4375-7.148438-1.863282-10.785157-1.226563-6.609374 1.316406-13.46875-.070313-19.046874-3.847656-5.636719-3.761719-9.550782-9.605469-10.882813-16.246094-1.351563-6.660156.007813-13.578125 3.777344-19.230469 3.765625-5.652344 9.628906-9.574218 16.292969-10.894531 18.570312-3.628906 37.816406.660156 53.085937 11.835937 13.777344 11.765626 21.253906 29.304688 20.195313 47.390626 0 28.722656-15.390626 48.492187-26.632813 62.925781-12.097656 15.71875-11.503906 16.914062-10.191406 19.53125.195312.390625.367187.699219.511719.933593 7.433593-1.496093 14.402343-4.753906 20.316406-9.496093 2.140625-1.761719 4.574218-3.128907 7.1875-4.035157 4.449218-1.5625 9.320312.769532 10.886718 5.21875 1.5625 4.445313-.773437 9.316407-5.21875 10.882813-.765624.257813-1.476562.660156-2.097656 1.179687-5.347656 4.273438-23.109375 15.625-35.421875 12.929688-5.226562-1.230469-9.507812-4.972656-11.429687-9.984375-6.691406-13.375.726562-23.015625 11.960937-37.605469 10.824219-13.902344 23.0625-29.621094 23.0625-52.480468.960938-12.9375-4.1875-25.578126-13.914062-34.164063-11.296875-7.847656-25.261719-10.855469-38.789063-8.355469-2.300781.421875-4.332031 1.753906-5.632812 3.695313-1.238282 1.855469-1.679688 4.132812-1.226563 6.316406.449219 2.238281 1.765625 4.207031 3.664063 5.472656 1.855468 1.25 4.132812 1.707031 6.324218 1.265625 8.589844-1.582031 17.460938.132813 24.84375 4.804688 5.617188 5.453125 8.441407 13.171875 7.664063 20.964844 0 16.863281-9.835937 29.582031-19.355469 41.875-12.019531 15.605468-25.328125 32.882812-13.886718 55.773437 4.226562 9.644531 12.753906 16.730469 23.011718 19.113281 12.910156 1.65625 25.996094-1.195312 37.046875-8.074218 2.664063-1.484376 5.917969-1.4375 8.535157.125 2.617187 1.5625 4.203124 4.40625 4.160156 7.453124-.046875 3.050782-1.714844 5.84375-4.378906 7.332032-11.484376 6.75-24.464844 10.550781-37.78125 11.058594zm-.648438-51.335938.109375.019531zm0 0"/><path d="m256 213.332031c-6.1875.097657-12.140625-2.359375-16.460938-6.792969l-12.785156-13.65625c-4.835937-4.957031-6.203125-12.339843-3.46875-18.699218 3.660156-7.621094 11.480469-12.351563 19.929688-12.050782h25.574218c8.449219-.300781 16.273438 4.433594 19.925782 12.054688 2.734375 6.359375 1.363281 13.742188-3.472656 18.695312l-12.78125 13.652344c-4.316407 4.433594-10.269532 6.894532-16.453126 6.796875zm-12.785156-34.132812c-2.914063 0-4.1875 1.417969-4.289063 1.816406l13.070313 13.855469c2.390625 1.71875 5.613281 1.71875 8.003906 0l12.789062-13.660156c.183594-.59375-1.089843-2.011719-4-2.011719zm0 0"/><path d="m203.84375 256c-4.714844 0-8.535156-3.820312-8.535156-8.535156 0-4.710938 3.820312-8.53125 8.535156-8.53125 41.949219 0 43.578125-30.691406 43.625-34.191406.0625-4.671876 3.859375-8.433594 8.53125-8.449219h.058594c4.6875.019531 8.472656 3.820312 8.476562 8.507812 0 .511719-.695312 51.199219-60.691406 51.199219zm0 0"/><path d="m308.160156 256c-59.996094 0-60.691406-50.6875-60.691406-51.199219-.011719-4.714843 3.796875-8.542969 8.511719-8.558593 4.710937-.011719 8.542969 3.800781 8.554687 8.511718.050782 3.542969 1.710938 34.179688 43.625 34.179688 4.714844 0 8.535156 3.820312 8.535156 8.53125 0 4.714844-3.820312 8.535156-8.535156 8.535156zm0 0"/><path d="m204.808594 158.378906c-3.199219.003906-6.136719-1.785156-7.597656-4.632812-.71875-1.335938-15.578126-27.410156-66.863282-12.761719-4.53125 1.292969-9.253906-1.328125-10.550781-5.859375s1.328125-9.253906 5.859375-10.550781c65.785156-18.816407 85.949219 19.796875 86.777344 21.453125 1.320312 2.644531 1.183594 5.785156-.371094 8.300781s-4.296875 4.046875-7.253906 4.050781zm0 0"/><path d="m307.183594 158.316406c-2.941406-.003906-5.671875-1.527344-7.21875-4.027344-1.550782-2.5-1.699219-5.625-.394532-8.261718.832032-1.648438 21-40.253906 86.777344-21.453125 4.53125 1.296875 7.152344 6.019531 5.859375 10.550781-1.296875 4.53125-6.019531 7.152344-10.550781 5.859375-51.519531-14.722656-66.269531 11.644531-66.871094 12.773437-1.5 2.804688-4.421875 4.554688-7.601562 4.558594zm0 0"/><path d="m256 315.734375c-28.261719-.03125-51.167969-22.9375-51.199219-51.199219-.019531-7.5625 1.667969-15.03125 4.929688-21.851562 1.28125-2.804688 3.972656-4.703125 7.046875-4.960938 3.074218-.261718 6.046875 1.160156 7.78125 3.710938 1.730468 2.550781 1.949218 5.839844.574218 8.601562-2.164062 4.527344-3.277343 9.480469-3.265624 14.5 0 18.847656 15.285156 34.132813 34.132812 34.132813 18.851562 0 34.136719-15.285157 34.136719-34.132813.011719-5.019531-1.101563-9.972656-3.265625-14.5-1.375-2.761718-1.15625-6.050781.574218-8.601562 1.734376-2.550782 4.707032-3.972656 7.78125-3.710938 3.074219.257813 5.765626 2.15625 7.046876 4.960938 3.261718 6.820312 4.949218 14.289062 4.929687 21.851562-.03125 28.261719-22.9375 51.167969-51.203125 51.199219zm0 0"/></svg>