<svg height="506pt" viewBox="-18 0 506 506.13143" width="506pt" xmlns="http://www.w3.org/2000/svg"><path d="m122.179688 474.738281c-16.28125 10.660157-39.195313 23-57.828126 23-19.898437.257813-38.398437-10.195312-48.4375-27.375-10.039062-17.179687-10.070312-38.429687-.078124-55.636719 5.425781-10.34375 12.136718-19.960937 19.976562-28.621093 13.511719-16.03125 17.121094-20.3125 5.792969-39.199219-3.089844-5.140625-3.199219-11.542969-.292969-16.789062 2.910156-5.246094 8.398438-8.539063 14.394531-8.644532 6-.101562 11.597657 3 14.6875 8.144532 23.667969 39.535156 5.621094 60.9375-8.898437 78.144531-6.101563 6.636719-11.371094 13.992187-15.695313 21.90625-4.480469 7.265625-4.800781 16.355469-.839843 23.921875 4.320312 6.507812 11.574218 10.46875 19.390624 10.574218 13.09375 0 41.125-17.542968 56.316407-29.542968zm0 0" fill="#6d4122"/><path d="m328.070312 338.683594c-1.496093-5.882813-3.460937-11.636719-5.875-17.207032l-144.953124 3.691407c-3.863282 4.785156-7.554688 9.738281-11.078126 14.855469-28.792968 40.878906-48.515624 89.644531-48.515624 115.746093.007812 23.175781 18.792968 41.960938 41.96875 41.96875h125.898437c9.246094-.066406 16.722656-7.542969 16.789063-16.789062.027343 9.261719 7.527343 16.761719 16.785156 16.789062 9.246094-.066406 16.722656-7.542969 16.789062-16.789062v-75.539063c.25-22.484375-2.375-44.910156-7.808594-66.726562zm0 0" fill="#a56a43"/><path d="m335.878906 405.410156v75.539063c-.066406 9.246093-7.542968 16.722656-16.789062 16.789062-9.257813-.027343-16.757813-7.527343-16.785156-16.789062v-71.34375c0-11.585938-9.394532-20.980469-20.984376-20.980469-11.589843 0-20.984374 9.394531-20.984374 20.980469v71.34375c-.066407 9.246093-7.542969 16.722656-16.785157 16.789062h-83.933593c-23.175782-.007812-41.960938-18.792969-41.96875-41.96875 0-26.101562 19.722656-74.867187 48.515624-115.746093 3.523438-5.117188 7.214844-10.070313 11.078126-14.855469l144.953124-3.691407c2.414063 5.570313 4.378907 11.324219 5.875 17.207032 5.433594 21.816406 8.058594 44.242187 7.808594 66.726562zm0 0" fill="#91562d"/><path d="m302.304688 409.605469v71.34375c-.027344-9.257813-7.527344-16.757813-16.789063-16.785157h-25.179687v-54.558593c0-11.585938 9.394531-20.980469 20.984374-20.980469 11.589844 0 20.984376 9.394531 20.984376 20.980469zm0 0" fill="#6d4122"/><path d="m431.816406 113.820312c18.714844-35 12.671875-94.675781 12.671875-94.675781s-63.957031-27.027343-107.601562 16.953125l-5.46875 5.15625c-28.351563-9.285156-58.035157-13.863281-87.867188-13.546875-29.835937-.316406-59.519531 4.261719-87.871093 13.546875l-5.464844-5.15625c-43.644532-43.980468-107.605469-16.953125-107.605469-16.953125s-6.042969 59.675781 12.675781 94.675781c-18.640625 25.277344-29.097656 55.648438-29.964844 87.042969 0 71.257813 75.542969 129.003907 218.230469 129.003907s218.230469-57.746094 218.230469-129.003907c-.871094-31.394531-11.328125-61.765625-29.964844-87.042969zm0 0" fill="#cb8252"/><path d="m461.78125 200.863281c0 71.257813-75.542969 129.003907-218.230469 129.003907-4.03125 0-8.058593-.082032-12.003906-.164063h-1.175781c-134.125-3.441406-205.050782-59.847656-205.050782-128.839844.871094-31.394531 11.324219-61.765625 29.964844-87.042969 15.015625-21.222656 34.316406-39.066406 56.65625-52.375 12.773438-7.835937 26.367188-14.253906 40.539063-19.136718 25.207031-8.683594 51.578125-13.523438 78.226562-14.351563h.503907c4.03125-.167969 8.140624-.25 12.339843-.25 30.964844-.371093 61.769531 4.570313 91.066407 14.601563 14.171874 4.882812 27.765624 11.300781 40.542968 19.136718 22.335938 13.308594 41.636719 31.152344 56.65625 52.375 18.636719 25.277344 29.09375 55.648438 29.964844 87.042969zm0 0" fill="#783e22"/><path d="m436.597656 200.863281c0 68.992188-70.921875 125.398438-205.050781 128.839844h-1.175781c-134.125-3.441406-205.050782-59.847656-205.050782-128.839844.871094-31.394531 11.324219-61.765625 29.964844-87.042969 15.015625-21.222656 34.316406-39.066406 56.65625-52.375 12.773438-7.835937 26.367188-14.253906 40.539063-19.136718 25.207031-8.683594 51.578125-13.523438 78.226562-14.351563h.503907c26.648437.828125 53.019531 5.667969 78.226562 14.351563 14.171875 4.882812 27.765625 11.300781 40.542969 19.136718 22.335937 13.308594 41.636719 31.152344 56.652343 52.375 18.640626 25.277344 29.097657 55.648438 29.964844 87.042969zm0 0" fill="#a0522d"/><path d="m275.949219 197.671875s-16.199219 31.476563-32.398438 31.476563-32.398437-31.476563-32.398437-31.476563c.921875-.839844 1.761718-1.679687 2.683594-2.515625 7.542968-6.839844 16.898437-11.355469 26.945312-13.011719 1.832031-.335937 3.707031-.335937 5.539062 0 10.042969 1.65625 19.398438 6.171875 26.941407 13.011719.925781.835938 1.761719 1.675781 2.6875 2.515625zm0 0" fill="#ef314c"/><path d="m302.304688 480.949219c-.066407 9.246093-7.542969 16.722656-16.789063 16.789062h-41.964844c9.242188-.066406 16.71875-7.542969 16.785157-16.789062v-16.785157h25.179687c9.261719.027344 16.761719 7.527344 16.789063 16.785157zm0 0" fill="#91562d"/><path d="m111.941406 61.445312c-22.339844 13.308594-41.640625 31.148438-56.65625 52.375-18.71875-35-12.675781-94.675781-12.675781-94.675781s35.757813 0 67.066406 38.523438zm0 0" fill="#ef314c"/><path d="m168.007812 52.886719c-14.9375 5.203125-43.980468 1.089843-56.066406 8.558593l-2.265625-3.777343c-31.308593-38.523438-67.066406-38.523438-67.066406-38.523438s63.960937-27.027343 107.605469 16.953125zm0 0" fill="#a0522d"/><path d="m431.816406 113.820312c-5.203125-7.414062-10.957031-14.429687-17.207031-20.980468-11.683594-12.1875-24.953125-22.746094-39.449219-31.394532l2.265625-3.777343c11.164063-14.246094 25.742188-25.449219 42.386719-32.566407 7.800781-3.449218 16.160156-5.46875 24.675781-5.957031 0 0 6.042969 59.675781-12.671875 94.675781zm0 0" fill="#bb193b"/><path d="m414.609375 92.839844c-11.683594-12.1875-24.953125-22.746094-39.449219-31.394532l2.265625-3.777343c11.164063-14.246094 25.742188-25.449219 42.386719-32.566407 1.507812 22.710938-.242188 45.523438-5.203125 67.738282zm0 0" fill="#ef314c"/><path d="m444.488281 19.144531s-35.753906 0-67.0625 38.523438l-2.265625 3.777343c-12.085937-7.46875-41.128906-3.355468-56.070312-8.558593l17.796875-16.789063c43.644531-43.980468 107.601562-16.953125 107.601562-16.953125zm0 0" fill="#a0522d"/><path d="m268.730469 26.707031 39.101562-16.089843c16.742188-6.886719 36.4375 3.132812 36.4375 18.539062v36.554688c0 15.402343-19.695312 25.421874-36.4375 18.535156l-39.101562-16.089844h-50.359375l-39.101563 16.089844c-16.742187 6.886718-36.441406-3.132813-36.441406-18.535156v-36.554688c0-15.40625 19.699219-25.425781 36.441406-18.539062l39.101563 16.089843zm0 0" fill="#ffdc00"/><path d="m226.761719 16.347656h33.574219c4.636718 0 8.394531 3.757813 8.394531 8.390625v45.386719c0 4.632812-3.757813 8.390625-8.394531 8.390625h-33.574219c-4.632813 0-8.390625-3.757813-8.390625-8.390625v-45.386719c0-4.632812 3.757812-8.390625 8.390625-8.390625zm0 0" fill="#ffeb3a"/><path d="m335.878906 405.410156v75.539063c-.066406 9.246093-7.542968 16.722656-16.789062 16.789062-4.839844 0-9.4375-2.117187-12.589844-5.792969 2.730469-3.007812 4.230469-6.933593 4.199219-10.996093v-75.539063c.25-22.484375-2.375-44.910156-7.808594-66.726562-1.425781-5.65625-3.308594-11.183594-5.621094-16.535156l24.925781-.671876c2.414063 5.570313 4.378907 11.324219 5.875 17.207032 5.433594 21.816406 8.058594 44.242187 7.808594 66.726562zm0 0" fill="#6d4122"/><path d="m243.550781 338.261719c-137.667969 0-226.625-53.933594-226.625-137.398438 0-77.839843 63.640625-138.921875 122.769531-162.730469 2.78125-1.121093 5.949219-.671874 8.308594 1.175782 2.363282 1.851562 3.558594 4.820312 3.136719 7.789062s-2.394531 5.488282-5.175781 6.609375c-77.125 31.054688-112.25 98.046875-112.25 147.15625 0 73.269531 82.363281 120.613281 209.835937 120.613281 127.46875 0 209.835938-47.34375 209.835938-120.613281 0-49.109375-35.128907-116.097656-112.25-147.15625-4.300781-1.730469-6.382813-6.621093-4.652344-10.921875 1.730469-4.300781 6.621094-6.382812 10.921875-4.652344 59.128906 23.808594 122.765625 84.890626 122.765625 162.730469 0 83.464844-88.953125 137.398438-226.621094 137.398438zm0 0"/><path d="m55.292969 122.214844c-3.101563.003906-5.949219-1.703125-7.410157-4.433594-19.699218-36.8125-13.878906-96.945312-13.625-99.484375.4375-4.289063 4.046876-7.546875 8.351563-7.546875 1.625 0 40.136719.476562 73.578125 41.679688 1.953125 2.324218 2.5 5.515624 1.433594 8.355468-1.070313 2.839844-3.585938 4.882813-6.582032 5.34375-3 .460938-6.011718-.734375-7.882812-3.121094-13.050781-17.265624-31.707031-29.445312-52.761719-34.449218-.8125 17.238281-.957031 56.546875 12.289063 81.300781 1.394531 2.601563 1.320312 5.742187-.195313 8.273437s-4.246093 4.082032-7.195312 4.082032zm0 0"/><path d="m142.828125 37.859375c-1.898437.003906-3.742187-.640625-5.230469-1.828125-38.804687-30.964844-91.199218-9.367188-91.722656-9.152344-2.785156 1.292969-6.054688.960938-8.523438-.859375-2.46875-1.824219-3.746093-4.851562-3.332031-7.890625.417969-3.042968 2.460938-5.613281 5.328125-6.707031 2.515625-1.066406 62.195313-25.605469 108.714844 11.484375 2.789062 2.222656 3.867188 5.964844 2.6875 9.332031-1.175781 3.367188-4.355469 5.625-7.921875 5.621094zm0 0"/><path d="m431.808594 122.214844c-2.949219-.003906-5.679688-1.550782-7.195313-4.082032s-1.589843-5.667968-.199219-8.269531c13.28125-24.8125 13.121094-64.117187 12.296876-81.328125-21.070313 4.984375-39.734376 17.175782-52.765626 34.46875-1.871093 2.386719-4.886718 3.582032-7.882812 3.121094-3-.460938-5.515625-2.503906-6.582031-5.34375-1.070313-2.839844-.523438-6.03125 1.429687-8.355469 33.441406-41.203125 71.957032-41.675781 73.578125-41.675781 4.308594 0 7.921875 3.261719 8.355469 7.550781.25 2.539063 6.070312 62.671875-13.625 99.480469-1.460938 2.734375-4.3125 4.4375-7.410156 4.433594zm0 0"/><path d="m344.277344 37.859375c-3.570313.003906-6.753906-2.25-7.933594-5.617187-1.179688-3.371094-.097656-7.117188 2.695312-9.339844 46.519532-37.082032 106.199219-12.550782 108.710938-11.480469 4.152344 1.871094 6.058594 6.710937 4.289062 10.910156-1.765624 4.199219-6.5625 6.21875-10.800781 4.554688-.527343-.226563-53.113281-21.652344-91.734375 9.152343-1.484375 1.183594-3.328125 1.824219-5.226562 1.820313zm0 0"/><path d="m335.878906 413.804688c-4.636718 0-8.394531-3.757813-8.394531-8.394532.816406-25.6875-3.601563-51.277344-12.980469-75.207031-1.199218-2.746094-.84375-5.925781.9375-8.339844 1.78125-2.414062 4.710938-3.695312 7.691406-3.359375 2.980469.332032 5.554688 2.230469 6.757813 4.980469 10.3125 26.046875 15.207031 53.921875 14.378906 81.925781 0 4.636719-3.757812 8.394532-8.390625 8.394532zm0 0"/><path d="m117.648438 464.164062c-4.636719 0-8.394532-3.757812-8.394532-8.394531 0-33.21875 26.988282-92.890625 61.441406-135.851562 1.875-2.339844 4.859376-3.5 7.824219-3.042969 2.960938.457031 5.457031 2.460938 6.546875 5.253906 1.085938 2.796875.597656 5.957032-1.277344 8.296875-34.542968 43.066407-57.746093 99.582031-57.746093 125.34375 0 4.636719-3.757813 8.394531-8.394531 8.394531zm0 0"/><path d="m159.617188 506.132812c-27.800782-.03125-50.332032-22.5625-50.363282-50.363281 0-4.632812 3.757813-8.390625 8.394532-8.390625 4.636718 0 8.394531 3.757813 8.394531 8.390625.019531 18.535157 15.039062 33.554688 33.574219 33.574219 4.632812 0 8.390624 3.757812 8.390624 8.394531s-3.757812 8.394531-8.390624 8.394531zm0 0"/><path d="m226.761719 456.023438c-4.632813 0-8.390625-3.757813-8.390625-8.394532 0-17.804687-14.007813-34.1875-36.558594-42.769531-2.839844-1.042969-4.898438-3.527344-5.390625-6.507813-.496094-2.984374.652344-6 3.003906-7.902343 2.351563-1.898438 5.542969-2.386719 8.355469-1.28125 29.222656 11.121093 47.375 33.519531 47.375 58.460937 0 4.636719-3.757812 8.394532-8.394531 8.394532zm0 0"/><path d="m285.515625 506.132812h-125.898437c-4.636719 0-8.394532-3.757812-8.394532-8.394531s3.757813-8.394531 8.394532-8.394531h125.898437c2.1875.019531 4.289063-.847656 5.824219-2.410156 1.644531-1.554688 2.574218-3.71875 2.570312-5.984375-.003906-4.632813-3.757812-8.386719-8.394531-8.390625h-25.179687c-4.632813 0-8.394532-3.757813-8.394532-8.394532 0-4.636718 3.761719-8.394531 8.394532-8.394531h25.179687c13.902344.015625 25.167969 11.28125 25.183594 25.179688-.066407 13.882812-11.300781 25.117187-25.183594 25.183593zm0 0"/><path d="m226.761719 472.558594h-58.753907c-4.632812 0-8.390624-3.757813-8.390624-8.394532 0-4.636718 3.757812-8.394531 8.390624-8.394531h58.753907c4.636719 0 8.394531 3.757813 8.394531 8.394531 0 4.636719-3.757812 8.394532-8.394531 8.394532zm0 0"/><path d="m319.089844 506.132812c-13.898438-.015624-25.164063-11.28125-25.179688-25.183593v-71.34375c0-4.632813 3.757813-8.390625 8.394532-8.390625 4.636718 0 8.394531 3.757812 8.394531 8.390625v71.34375c.003906 4.636719 3.757812 8.390625 8.390625 8.394531 2.1875.019531 4.289062-.847656 5.824218-2.410156 1.644532-1.554688 2.574219-3.71875 2.570313-5.984375v-75.539063c0-4.636718 3.757813-8.394531 8.394531-8.394531 4.632813 0 8.390625 3.757813 8.390625 8.394531v75.539063c-.0625 13.882812-11.300781 25.117187-25.179687 25.183593zm0 0"/><path d="m243.550781 506.132812c-13.902343-.015624-25.164062-11.28125-25.179687-25.183593v-75.539063c0-4.636718 3.757812-8.394531 8.390625-8.394531 4.636719 0 8.394531 3.757813 8.394531 8.394531v75.539063c.003906 4.636719 3.761719 8.390625 8.394531 8.394531 2.1875.019531 4.289063-.847656 5.824219-2.410156 1.644531-1.554688 2.574219-3.71875 2.566406-5.984375v-71.34375c0-4.632813 3.761719-8.390625 8.394532-8.390625 4.636718 0 8.394531 3.757812 8.394531 8.390625v71.34375c-.066407 13.882812-11.300781 25.117187-25.179688 25.183593zm0 0"/><path d="m64.351562 506.132812c-22.390624-.003906-43.199218-11.535156-55.074218-30.515624-11.9375-19.8125-12.296875-44.511719-.9375-64.65625 5.710937-10.945313 12.792968-21.121094 21.070312-30.28125 13.242188-15.710938 13.242188-15.710938 4.996094-29.449219-7.160156-11.925781-3.300781-27.398438 8.625-34.5625 11.925781-7.160157 27.398438-3.300781 34.558594 8.625 26.765625 44.707031 4.832031 70.691406-9.679688 87.878906-5.652344 6.144531-10.558594 12.941406-14.605468 20.246094-2.992188 4.746093-3.433594 10.667969-1.175782 15.804687 2.796875 4.007813 7.335938 6.4375 12.222656 6.546875 9.429688 0 34.507813-14.613281 51.113282-27.738281 3.640625-2.871094 8.917968-2.25 11.789062 1.390625 2.875 3.636719 2.253906 8.917969-1.386718 11.789063-11.035157 8.714843-43.609376 31.347656-61.515626 31.347656-10.710937-.078125-20.667968-5.527344-26.5-14.507813-5.523437-10.03125-5.363281-22.230469.429688-32.109375 4.550781-8.414062 10.113281-16.242187 16.5625-23.308594 14.351562-17.007812 28.949219-34.296874 8.351562-68.707031-1.15625-1.910156-3.027343-3.28125-5.195312-3.8125-2.171875-.527343-4.460938-.171875-6.367188.992188-1.886718 1.121093-3.25 2.953125-3.777343 5.082031-.550781 2.175781-.210938 4.480469.945312 6.402344 13.867188 23.109375 8.363281 31.214844-6.558593 48.917968-7.410157 8.148438-13.757813 17.207032-18.886719 26.953126-8.699219 14.597656-8.816407 32.761718-.308594 47.472656 8.507813 14.710937 24.308594 23.667968 41.304687 23.410156 13.03125 0 31.9375-7.679688 53.230469-21.628906 2.511719-1.644532 5.707031-1.824219 8.382813-.472656 2.679687 1.355468 4.433594 4.03125 4.601562 7.027343.167969 2.992188-1.277344 5.851563-3.785156 7.492188-16.976562 11.117187-41.59375 24.371093-62.429688 24.371093zm0 0"/><path d="m142.835938 220.753906c-2.644532.007813-5.136719-1.238281-6.71875-3.355468-21.765626-29.007813-58.433594-22.066407-58.789063-21.984376-4.523437.863282-8.898437-2.082031-9.800781-6.597656s2-8.917968 6.507812-9.863281c1.929688-.375 47.480469-9.007813 75.507813 28.378906 1.902343 2.542969 2.207031 5.9375.789062 8.78125-1.421875 2.839844-4.320312 4.636719-7.496093 4.640625zm0 0"/><path d="m67.296875 245.933594c-3.894531.007812-7.28125-2.667969-8.179687-6.460938-.894532-3.789062.933593-7.699218 4.417968-9.4375 1.550782-.773437 38.265625-18.738281 67.164063.523438 2.523437 1.648437 3.96875 4.527344 3.785156 7.539062-.1875 3.011719-1.972656 5.691406-4.683594 7.023438-2.707031 1.328125-5.921875 1.101562-8.414062-.597656-20.886719-13.910157-50.046875.378906-50.34375.527343-1.164063.578125-2.445313.882813-3.746094.882813zm0 0"/><path d="m344.261719 220.753906c-3.175781-.003906-6.078125-1.800781-7.5-4.644531-1.417969-2.839844-1.113281-6.242187.792969-8.785156 28.035156-37.382813 73.589843-28.761719 75.511718-28.375 4.546875.902343 7.5 5.320312 6.59375 9.867187-.902344 4.546875-5.320312 7.503906-9.867187 6.597656-1.5625-.300781-37.234375-6.765624-58.808594 21.984376-1.582031 2.117187-4.074219 3.363281-6.722656 3.355468zm0 0"/><path d="m419.804688 245.933594c-1.296876.003906-2.574219-.296875-3.734376-.875-.601562-.3125-29.726562-14.28125-50.359374-.535156-3.855469 2.519531-9.023438 1.464843-11.578126-2.367188-2.554687-3.832031-1.542968-9.007812 2.265626-11.597656 28.90625-19.261719 65.617187-1.296875 67.164062-.523438 3.484375 1.738282 5.3125 5.648438 4.414062 9.4375-.894531 3.789063-4.277343 6.464844-8.171874 6.460938zm0 0"/><path d="m302.304688 418c-4.636719 0-8.394532-3.757812-8.394532-8.394531 0-6.953125-5.636718-12.589844-12.589844-12.589844-6.953124 0-12.589843 5.636719-12.589843 12.589844 0 4.636719-3.757813 8.394531-8.394531 8.394531-4.632813 0-8.394532-3.757812-8.394532-8.394531 0-16.222657 13.15625-29.375 29.378906-29.375 16.222657 0 29.378907 13.152343 29.378907 29.375 0 2.226562-.886719 4.363281-2.460938 5.9375s-3.707031 2.457031-5.933593 2.457031zm0 0"/><path d="m243.550781 232.296875c-16.859375 0-30.152343-24.191406-32.644531-29.042969-1.6875-3.28125-1.03125-7.28125 1.613281-9.851562 8.152344-8.582032 19.222657-13.796875 31.03125-14.613282 11.804688.816407 22.878907 6.03125 31.027344 14.613282 2.648437 2.570312 3.304687 6.570312 1.617187 9.851562-2.492187 4.851563-15.789062 29.042969-32.644531 29.042969zm-14.386719-30.984375c5.074219 7.851562 11.304688 14.195312 14.386719 14.195312 3.347657 0 9.585938-6.785156 14.378907-14.195312-4.214844-3.210938-9.230469-5.195312-14.5-5.738281-5.183594.597656-10.113282 2.578125-14.265626 5.738281zm0 0"/><path d="m218.371094 262.722656c-17.351563 1.054688-32.320313-12.042968-33.574219-29.378906 0-4.636719 3.757813-8.394531 8.390625-8.394531 4.636719 0 8.394531 3.757812 8.394531 8.394531 0 6.828125 7.6875 12.589844 16.789063 12.589844 9.097656 0 16.785156-5.761719 16.785156-12.589844 0-4.636719 3.757812-8.394531 8.394531-8.394531 4.632813 0 8.390625 3.757812 8.390625 8.394531-1.253906 17.335938-16.222656 30.433594-33.570312 29.378906zm0 0"/><path d="m268.730469 262.722656c-17.347657 1.054688-32.320313-12.042968-33.574219-29.378906 0-4.636719 3.757812-8.394531 8.394531-8.394531 4.632813 0 8.390625 3.757812 8.390625 8.394531 0 6.828125 7.691406 12.589844 16.789063 12.589844 9.097656 0 16.785156-5.761719 16.785156-12.589844 0-4.636719 3.757813-8.394531 8.394531-8.394531 4.636719 0 8.394532 3.757812 8.394532 8.394531-1.257813 17.335938-16.226563 30.433594-33.574219 29.378906zm0 0"/><path d="m260.335938 86.910156h-33.574219c-9.265625-.011718-16.773438-7.519531-16.785157-16.785156v-45.386719c.011719-9.265625 7.519532-16.777343 16.785157-16.785156h33.574219c9.265624.007813 16.777343 7.519531 16.789062 16.785156v45.386719c-.011719 9.265625-7.523438 16.773438-16.789062 16.785156zm-33.574219-62.171875v45.386719h33.585937l-.011718-45.386719zm0 0"/><path d="m167.980469 94.851562c-7.316407.035157-14.480469-2.097656-20.585938-6.125-7.941406-4.984374-12.816406-13.648437-12.960937-23.023437v-36.546875c.144531-9.371094 5.023437-18.035156 12.960937-23.015625 10.433594-6.804687 23.550781-8.035156 35.070313-3.289063l39.09375 16.089844c4.289062 1.765625 6.335937 6.671875 4.570312 10.957032-1.761718 4.289062-6.667968 6.335937-10.957031 4.574218l-39.097656-16.089844c-6.339844-2.613281-13.554688-1.980468-19.339844 1.703126-3.230469 1.921874-5.296875 5.320312-5.511719 9.070312v36.546875c.214844 3.753906 2.285156 7.15625 5.515625 9.074219 5.785157 3.679687 13 4.3125 19.339844 1.707031l39.101563-16.089844c4.289062-1.765625 9.195312.28125 10.957031 4.570313 1.761719 4.289062-.28125 9.191406-4.570313 10.957031l-39.097656 16.089844c-4.597656 1.878906-9.519531 2.84375-14.488281 2.839843zm0 0"/><path d="m319.113281 94.851562c-4.964843.003907-9.882812-.960937-14.476562-2.84375l-39.097657-16.089843c-4.285156-1.761719-6.332031-6.667969-4.570312-10.957031 1.765625-4.289063 6.667969-6.335938 10.957031-4.570313l39.097657 16.089844c6.34375 2.597656 13.550781 1.964843 19.339843-1.703125 3.230469-1.921875 5.296875-5.320313 5.515625-9.074219v-36.546875c-.21875-3.753906-2.285156-7.152344-5.515625-9.074219-5.792969-3.667969-13-4.304687-19.34375-1.703125l-39.101562 16.089844c-2.773438 1.140625-5.945313.714844-8.320313-1.117188-2.371094-1.832031-3.589844-4.792968-3.191406-7.765624.398438-2.972657 2.355469-5.503907 5.128906-6.644532l39.101563-16.089844c11.519531-4.734374 24.628906-3.507812 35.070312 3.289063 7.9375 4.980469 12.8125 13.644531 12.957031 23.015625v36.546875c-.140624 9.375-5.019531 18.039063-12.957031 23.023437-6.109375 4.03125-13.273437 6.164063-20.59375 6.125zm0 0"/><path d="m193.1875 170.394531c-4.632812 0-8.390625-3.757812-8.390625-8.394531 0-9.269531-7.515625-16.785156-16.789063-16.785156-9.269531 0-16.785156 7.515625-16.785156 16.785156 0 4.636719-3.757812 8.394531-8.394531 8.394531s-8.394531-3.757812-8.394531-8.394531c0-18.542969 15.03125-33.574219 33.574218-33.574219 18.542969 0 33.574219 15.03125 33.574219 33.574219 0 4.636719-3.757812 8.394531-8.394531 8.394531zm0 0"/><path d="m344.269531 170.394531c-4.632812 0-8.390625-3.757812-8.390625-8.394531 0-9.269531-7.515625-16.785156-16.789062-16.785156-9.269532 0-16.785156 7.515625-16.785156 16.785156 0 4.636719-3.757813 8.394531-8.394532 8.394531-4.636718 0-8.394531-3.757812-8.394531-8.394531 0-18.542969 15.03125-33.574219 33.574219-33.574219 18.542968 0 33.574218 15.03125 33.574218 33.574219 0 4.636719-3.757812 8.394531-8.394531 8.394531zm0 0"/></svg>