<?xml version="1.0" encoding="utf-8"?>
<!-- Generator: Adobe Illustrator 22.1.0, SVG Export Plug-In . SVG Version: 6.00 Build 0)  -->
<svg version="1.1" id="Layer_1" xmlns="http://www.w3.org/2000/svg" xmlns:xlink="http://www.w3.org/1999/xlink" x="0px" y="0px"
	 viewBox="0 0 512 512" style="enable-background:new 0 0 512 512;" xml:space="preserve">
<style type="text/css">
	.st0{fill:#EE772A;}
	.st1{fill:#EF314C;}
	.st2{fill:#F49E5A;}
	.st3{fill:#DFC49C;}
	.st4{fill:#FFE0B2;}
	.st5{fill:#3F51B5;}
	.st6{fill:#BB193B;}
	.st7{fill:#FFFFFF;}
</style>
<path class="st0" d="M430.7,103.2l-19.3-13.7l-68.1-48.4c16.8-18.7,40.3-30.1,65.4-31.7c8.4-1,17-1.1,25.4-0.4
	C448.1,39.1,446.8,74.1,430.7,103.2z"/>
<path class="st0" d="M411.4,89.5l-68.1-48.4c16.8-18.7,40.3-30.1,65.4-31.7C420.2,34.7,421.2,63.5,411.4,89.5z"/>
<path class="st0" d="M81.4,103.1C65.3,74.1,64,39.1,77.9,9c0,0,59.1-6.6,90.9,32.1L81.4,103.1z"/>
<path class="st1" d="M94.2,102.4c-11-24.1-11.9-51.7-2.4-76.5c0,0,40.2-5.3,61.8,26.1L94.2,102.4z"/>
<path class="st1" d="M417.8,102.4c11-24.1,11.9-51.7,2.4-76.5c0,0-40.2-5.3-61.8,26.1L417.8,102.4z"/>
<path class="st0" d="M366.9,324.3l-9.5,4.3c26.9,43.9,43.6,92.5,43.6,108.6c0,44-37.7,54.5-91,57h-0.1l-33.6,0.7
	c-6.7,0.1-13.4,0.1-20.3,0.1c-1.8,0-3.6,0-5.3-0.1h-7.5c-2.6,0.1-5,0-7.5,0l-33.7-0.7c-53.3-2.5-91-13-91-57
	c0-16.1,16.7-64.7,43.6-108.6l-9.5-4.3C47.5,315.1,8.5,251.5,8.5,251.5l25.6-12.5c-10.9-10.1-19-22.8-23.6-36.9
	c-0.7-1.8-1.4-3.8-2-5.7c2.5,1.3,5.2,2.5,7.9,3.4c10.4,3.8,28.1,6.7,34.7-12c0.3-30.8,10.9-60.6,30.2-84.7
	c22.8-28.4,53-49.9,87.4-62c23.9-8.8,49-13.9,74.4-15.1c4.3-0.3,8.5-0.3,12.8-0.3c29.8-0.1,59.4,5.1,87.3,15.5
	c34.3,12.1,64.6,33.6,87.4,62c19.2,24,29.9,53.8,30.1,84.6c1.5,5,4.8,9.2,9.1,12c1.8,1.1,3.8,1.8,5.9,2.3c9.6,1,19.2-1,27.6-5.7
	c-4.3,16.3-13.2,31.1-25.5,42.6l25.6,12.5C503.5,251.5,464.5,315.1,366.9,324.3z"/>
<path class="st2" d="M341.3,324.3l-9.5,4.3c26.9,43.9,43.6,92.5,43.6,108.6c0,44-37.7,54.5-91,57h-0.1l-33.6,0.7h-7.5
	c-2.6,0.1-5,0-7.5,0l-33.7-0.7c-53.3-2.5-91-13-91-57c0-16.1,16.7-64.7,43.6-108.6l-9.5-4.3C47.5,315.1,8.5,251.5,8.5,251.5
	l25.6-12.5c-10.9-10.1-19-22.8-23.6-36.9c2.1-0.5,4-1.3,5.9-2.3c10.4,3.8,28.1,6.7,34.7-12c0.3-30.8,10.9-60.6,30.2-84.7
	c22.8-28.4,53-49.9,87.4-62c23.9-8.8,49-13.9,74.4-15.1c25.5,1.1,50.6,6.3,74.5,15.2c34.3,12.1,64.6,33.6,87.4,62
	c19.2,24,29.9,53.8,30.1,84.6c6.7,18.8,24.3,15.8,34.7,12c1.8,1.1,3.8,1.8,5.9,2.3c-4.6,14.1-12.7,26.8-23.6,36.9l25.6,12.5
	C477.9,251.5,438.9,315.1,341.3,324.3z"/>
<path class="st3" d="M341.4,232.9c-2,43.7-48.6,58.5-85.4,57.2c-4.2,0.2-8.4,0.1-12.8-0.2c-34-2.3-70.8-18.3-72.6-57
	c-0.6-14,4.5-27.7,14.2-37.8c9.7-10.1,23.1-15.9,37.1-15.9h68.3c14,0,27.4,5.7,37.1,15.9C337,205.2,342.1,218.9,341.4,232.9z"/>
<path class="st4" d="M315.8,232.9c-1.8,38.7-38.7,54.7-72.6,57c-34-2.3-70.8-18.3-72.6-57c-0.6-14,4.5-27.7,14.2-37.8
	c9.7-10.1,23.1-15.9,37.1-15.9h42.7c14,0,27.4,5.7,37.1,15.9C311.4,205.2,316.5,218.9,315.8,232.9z"/>
<path class="st5" d="M204.8,136.5c0-9.4-9.6-17.1-21.3-17.1c-11.8,0-21.3,7.6-21.3,17.1c0,9.4,9.6,17.1,21.3,17.1
	C195.3,153.6,204.8,146,204.8,136.5z"/>
<path class="st5" d="M349.9,136.5c0-9.4-9.6-17.1-21.3-17.1c-11.8,0-21.3,7.6-21.3,17.1c0,9.4,9.6,17.1,21.3,17.1
	C340.3,153.6,349.9,146,349.9,136.5z"/>
<path class="st6" d="M273,238.9c0,0.4,0,0.9,0,1.3c0,13.4-7.6,24.3-17.1,24.3c-9.4,0-17.1-10.9-17.1-24.3c0-0.4,0-0.9,0-1.3l17-8.5
	L273,238.9z"/>
<path class="st0" d="M220.9,433.1c7.8,9.6,13.3,20.8,16.2,32.7c1.3,5.2,1.9,10.5,1.7,15.8c-0.1,4.4-1,8.7-2.8,12.6
	c-2.9,7-10.5,10.7-17.9,8.9c-4.2-1-8.2-2.8-11.8-5.4c-4.3-3.1-8.2-6.8-11.5-10.9c-7.8-9.6-13.3-20.8-16.3-32.7"/>
<path class="st0" d="M291.1,433.1c-7.8,9.6-13.3,20.8-16.2,32.7c-1.3,5.2-1.9,10.5-1.7,15.8c0.1,4.4,1,8.7,2.8,12.6
	c2.9,7,10.5,10.7,17.9,8.9c4.2-1,8.2-2.8,11.8-5.4c4.3-3.1,8.2-6.8,11.5-10.9c7.8-9.6,13.3-20.8,16.3-32.7"/>
<path class="st1" d="M290.1,173.5c0,0-17.1,22.7-34.1,22.7s-34.1-22.7-34.1-22.7c1.1-0.7,2.3-1.5,3.4-2.1c8.9-5.2,18.8-8.4,29-9.2
	c1.1-0.1,1.7-0.1,1.7-0.1s0.6,0,1.7,0.1c0.3,0,0.7,0,1,0.1c9.9,1,19.4,4.2,28,9.1C287.8,172,289,172.8,290.1,173.5z"/>
<path class="st7" d="M179.2,128c0,4.7-3.8,8.5-8.5,8.5c-4.7,0-8.5-3.8-8.5-8.5c0-4.7,3.8-8.5,8.5-8.5
	C175.4,119.5,179.2,123.3,179.2,128z"/>
<path class="st7" d="M324.3,128c0,4.7-3.8,8.5-8.5,8.5c-4.7,0-8.5-3.8-8.5-8.5c0-4.7,3.8-8.5,8.5-8.5
	C320.4,119.5,324.3,123.3,324.3,128z"/>
<path d="M179.2,346.6c-0.9,0-1.8-0.1-2.6-0.4c-8.7-2.8-17.2-6.1-25.6-9.9l-2.2-0.9c-2.7-1.1-5.3-2.3-7.9-3.6
	c-4-2.3-5.5-7.4-3.3-11.5c2.2-4.1,7.3-5.6,11.4-3.5c2.1,1.1,4.2,2,6.3,2.9l2.5,1c7.8,3.5,15.8,6.6,23.9,9.2c4,1.3,6.5,5.3,5.8,9.4
	C187,343.5,183.4,346.6,179.2,346.6z"/>
<path d="M332.8,346.6c-4.2,0-7.8-3.1-8.4-7.2c-0.7-4.2,1.8-8.2,5.8-9.4c8.1-2.6,16-5.7,23.7-9.2l2.6-1.1c2.1-0.9,4.3-1.8,6.3-2.9
	c2.7-1.5,6-1.5,8.6,0.1c2.6,1.6,4.2,4.5,4.1,7.6c-0.1,3.1-1.8,5.9-4.6,7.3c-2.6,1.3-5.2,2.6-7.9,3.6l-2.3,1
	c-8.3,3.7-16.8,7-25.4,9.8C334.6,346.4,333.7,346.6,332.8,346.6z"/>
<path d="M460.8,196.3c-4.7,0-8.5-3.8-8.5-8.5c-0.3-28.9-10.3-56.8-28.3-79.3c-21.8-27.2-50.8-47.7-83.6-59.3
	c-54.4-20-114.1-20-168.5-0.1c-32.9,11.6-61.8,32.1-83.6,59.3c-18.1,22.5-28.1,50.5-28.4,79.4c0,4.7-3.8,8.5-8.5,8.5
	c-4.7,0-8.5-3.8-8.5-8.5c0.3-32.7,11.6-64.4,32-89.9c23.7-29.7,55.3-52.1,91.1-64.8c58.3-21.3,122.2-21.3,180.5,0.1
	c35.8,12.7,67.4,35.1,91.1,64.8c20.4,25.5,31.6,57.1,31.9,89.8C469.3,192.5,465.5,196.3,460.8,196.3z"/>
<path d="M310.4,502.7l-0.5-8.5l0.1-8.5c60-2.8,82.5-15.9,82.5-48.5c0-14.2-16.5-61.9-42.4-104.2c-2.5-4-1.2-9.3,2.8-11.7
	c4-2.5,9.3-1.2,11.7,2.8c26.8,43.9,44.9,93.9,44.9,113.1C409.6,490.9,359.5,500.4,310.4,502.7z"/>
<path d="M202,502.7c-0.1,0-0.3,0-0.4,0c-49-2.3-99.2-11.8-99.2-65.5c0-19.2,18-69.2,44.9-113.1c1.6-2.6,4.4-4.2,7.5-4.1
	c3,0.1,5.8,1.8,7.3,4.5c1.5,2.7,1.4,5.9-0.2,8.5c-25.9,42.3-42.4,89.9-42.4,104.2c0,32.5,22.5,45.7,82.9,48.5
	c4.6,0.2,8.3,4.1,8.2,8.7C210.4,499,206.6,502.7,202,502.7L202,502.7z"/>
<path d="M256,503.5c-6.9,0-13.8,0-20.4-0.1c-4.7,0-8.5-3.9-8.5-8.6c0-4.7,3.9-8.5,8.6-8.5h0.1c6.5,0.1,13.3,0.1,20.2,0.1
	c7.3-0.2,13.6,0,20.2-0.1h0.1c4.7,0,8.6,3.8,8.6,8.5c0,4.7-3.8,8.6-8.5,8.6C269.7,503.5,262.9,503.5,256,503.5z"/>
<path d="M222.1,512c-1.9,0-3.7-0.2-5.5-0.6c-5.4-1.2-10.5-3.5-15-6.8c-5-3.5-9.4-7.7-13.2-12.5c-8.6-10.6-14.7-22.9-18-36.2
	c-0.8-3,0.1-6.2,2.4-8.3c2.2-2.1,5.4-2.9,8.4-2c3,0.9,5.2,3.3,5.8,6.3c2.7,10.7,7.6,20.7,14.5,29.3c2.8,3.5,6.2,6.7,9.9,9.3
	c2.5,1.9,5.4,3.3,8.5,4c3.5,1.1,7.3-0.8,8.5-4.2c1.3-2.9,1.9-6.1,2-9.2c0.1-4.5-0.4-9.1-1.5-13.5c-2.6-10.7-7.6-20.7-14.6-29.3
	c-1.9-2.4-2.5-5.6-1.4-8.4c1.1-2.9,3.6-4.9,6.6-5.4c3-0.5,6.1,0.6,8,3c8.6,10.6,14.7,22.9,17.9,36.2c1.5,5.9,2.1,12,1.9,18.1
	c-0.1,5.5-1.3,11-3.7,16c-2.3,5-6.2,9.1-11.2,11.7C229.3,511.2,225.7,512,222.1,512z"/>
<path d="M290,512c-3.7,0-7.3-0.8-10.6-2.4c-4.9-2.5-8.9-6.6-11.2-11.7c-2.3-5-3.6-10.5-3.7-16c-0.2-6.1,0.5-12.2,1.9-18.1
	c3.3-13.2,9.4-25.6,18-36.2c1.9-2.4,5-3.5,8-3c3,0.5,5.5,2.6,6.6,5.4c1.1,2.9,0.5,6.1-1.4,8.4c-6.9,8.6-11.9,18.6-14.6,29.3
	c-1.1,4.4-1.6,9-1.5,13.5c0,3.2,0.7,6.3,2,9.2c0.7,1.6,1.9,3,3.4,3.8c1.6,0.7,3.4,0.8,5.1,0.4c3.1-0.8,6-2.1,8.6-4
	c3.7-2.7,7-5.8,9.9-9.4c6.9-8.6,11.9-18.6,14.5-29.3c0.7-3,2.9-5.4,5.8-6.3c3-0.9,6.2-0.1,8.4,2c2.2,2.1,3.1,5.3,2.4,8.3
	c-3.2,13.2-9.4,25.6-18,36.2c-3.8,4.7-8.3,9-13.2,12.5c-4.5,3.3-9.6,5.6-15,6.8C293.6,511.8,291.8,512,290,512z"/>
<path d="M81.4,111.6c-3.1,0-5.9-1.6-7.4-4.3C56.6,75.9,55.2,38.2,70.1,5.6c1.2-2.8,3.8-4.8,6.9-5.1c2.6-0.3,64.1-6.6,98.4,35.1
	c2.9,3.6,2.3,8.9-1.3,11.9c-3.6,2.9-8.9,2.5-11.9-1C138.8,18,97.9,16.6,83.8,17.2c-10.9,26.6-9,56.7,5,81.7c1.5,2.6,1.5,5.9,0,8.5
	C87.3,110,84.5,111.6,81.4,111.6z"/>
<path d="M430.7,111.7c-3,0-5.8-1.6-7.4-4.2c-1.5-2.6-1.5-5.9,0-8.5c14-25.1,15.9-55.2,5-81.8c-14.2-0.5-55.1,0.9-78.4,29.4
	c-3,3.6-8.4,4.2-12,1.2c-3.6-3-4.2-8.4-1.2-12c34.2-41.9,95.8-35.5,98.4-35.3c3.1,0.3,5.7,2.3,6.9,5.1
	c14.9,32.6,13.4,70.4-3.9,101.8C436.6,110.1,433.7,111.7,430.7,111.7z"/>
<path d="M145.1,332.8c-0.3,0-0.5,0-0.8,0c-100.6-9.4-141.3-74.1-143-76.9c-1.3-2.1-1.6-4.5-0.9-6.8c0.7-2.3,2.3-4.2,4.4-5.3
	l15.2-7.4c-8.7-11.2-15.4-23.9-19.5-37.5c-1.1-3.3,0-7,2.7-9.2c2.7-2.2,6.5-2.5,9.6-0.8c7,4.2,15.3,5.7,23.3,4.3
	c3.6-1.5,6.2-4.6,7.1-8.3c1-3,3.4-5.2,6.5-5.8s6.2,0.5,8.2,2.9c2,2.4,2.5,5.7,1.4,8.6c-2.6,8.5-9,15.4-17.3,18.6
	c-5.9,2-12.2,2.5-18.4,1.3c3.9,8.2,9.2,15.6,15.9,21.7c2.3,1.8,3.5,4.7,3.2,7.6c-0.3,2.9-2.1,5.5-4.7,6.8l-16.4,8
	c13.7,16.5,52.5,54.5,124.3,61.2c4.6,0.4,8,4.3,7.8,8.9C153.4,329.2,149.7,332.8,145.1,332.8z"/>
<path d="M366.9,332.8c-4.6,0-8.3-3.6-8.6-8.1c-0.2-4.6,3.2-8.5,7.8-8.9c72.2-6.7,110.8-44.7,124.4-61.2l-16.4-8
	c-2.6-1.3-4.4-3.9-4.7-6.8c-0.3-2.9,0.9-5.8,3.2-7.6c6.6-6.2,12-13.5,15.8-21.7c-6.1,1.2-12.5,0.7-18.4-1.3
	c-8.3-3.2-14.7-10.1-17.3-18.6c-1.4-4.4,0.9-9.1,5.3-10.7c4.3-1.6,9.1,0.6,10.8,4.9c0.9,3.8,3.6,6.8,7.1,8.3
	c8,1.4,16.3-0.2,23.3-4.3c3.1-1.7,6.9-1.4,9.6,0.8c2.7,2.2,3.8,5.9,2.7,9.2c-4.2,13.6-10.8,26.3-19.5,37.5l15.2,7.4
	c2.2,1.1,3.8,3,4.4,5.3c0.7,2.3,0.3,4.8-0.9,6.8c-1.7,2.7-42.4,67.5-143,76.9C367.5,332.8,367.2,332.8,366.9,332.8z"/>
<path d="M256,208c-21,0-39.2-25.7-41.2-28.6c-2.6-3.8-1.7-9,2-11.7c11.4-8.4,25-13.3,39.2-14.1c14.2,0.8,27.8,5.6,39.2,14.1
	c3.7,2.7,4.6,7.9,2,11.7C295.2,182.3,277,208,256,208z M234.5,176.8c5.3,7.1,12.9,12.1,21.5,14.2c8.6-2,16.2-7,21.5-14.2
	c-6.7-3.5-14-5.6-21.5-6.1C248.5,171.2,241.2,173.3,234.5,176.8z"/>
<path d="M238.9,247.5c-14.1,0-25.6-11.5-25.6-25.6c0-4.7,3.8-8.5,8.5-8.5c4.7,0,8.5,3.8,8.5,8.5c0,4.7,3.8,8.5,8.5,8.5
	s8.5-3.8,8.5-8.5c0-4.7,3.8-8.5,8.5-8.5c4.7,0,8.5,3.8,8.5,8.5C264.5,236,253.1,247.5,238.9,247.5z"/>
<path d="M273.1,247.5c-14.1,0-25.6-11.5-25.6-25.6v-17.1c0-4.7,3.8-8.5,8.5-8.5c4.7,0,8.5,3.8,8.5,8.5v17.1c0,4.7,3.8,8.5,8.5,8.5
	c4.7,0,8.5-3.8,8.5-8.5c0-4.7,3.8-8.5,8.5-8.5c4.7,0,8.5,3.8,8.5,8.5C298.7,236,287.2,247.5,273.1,247.5z"/>
<path d="M251.4,298.7c-43.7,0-87.2-19.9-89.3-65.4c-0.8-16,4.9-31.7,15.9-43.5c11.4-12.1,27.2-19,43.7-19.2h0.2
	c4.7,0,8.6,3.7,8.6,8.5c0,4.7-3.7,8.6-8.5,8.6c-12,0.1-23.4,5.1-31.6,13.8c-7.8,8.4-11.9,19.6-11.3,31c1.9,40.7,48.9,49.7,76.6,49
	c3.1-0.2,6.1,1.3,7.7,3.9c1.7,2.6,1.8,5.9,0.3,8.7c-1.5,2.7-4.3,4.4-7.5,4.4C254.7,298.7,253,298.7,251.4,298.7z"/>
<path d="M260.6,298.7c-1.6,0-3.2,0-4.9-0.1c-2.3-0.1-4.4-1-5.9-2.7s-2.4-3.9-2.3-6.1c0.2-4.7,4.1-8.3,8.8-8.2
	c27.6,0.8,74.7-8.4,76.6-49c0.6-11.4-3.5-22.6-11.3-31c-8.2-8.7-19.6-13.7-31.6-13.8c-4.7,0-8.5-3.9-8.5-8.6c0-4.7,3.9-8.5,8.6-8.5
	h0.2c16.6,0.2,32.4,7.1,43.7,19.2c11,11.7,16.7,27.4,15.9,43.5C347.8,278.8,304.3,298.7,260.6,298.7z"/>
<path d="M183.5,162.1c-15.3,1.1-28.6-10.3-29.9-25.6c1.3-15.3,14.6-26.7,29.9-25.6c15.3-1.1,28.6,10.3,29.9,25.6
	C212.1,151.8,198.8,163.2,183.5,162.1z M183.5,128c-6.8,0-12.8,4-12.8,8.5c0,4.5,6,8.5,12.8,8.5s12.8-4,12.8-8.5
	C196.3,132,190.3,128,183.5,128z"/>
<path d="M135.7,101.1c1.2-7.4,4.8-14.2,10.1-19.4c5.5-5.5,12.4-9.3,19.9-11c7.3-1.4,14.9-1.2,22.1,0.7c3.4,1,6.7,2.2,9.9,3.7
	c3,1.7,5.9,3.5,8.7,5.6c1.5,1.2,2.1,3.2,1.5,4.9c-0.6,1.8-2.4,3-4.3,2.9l-0.5,0c-3.1-0.2-6.2-0.6-9.2-1.2l-8.7-0.8
	c-5.3-0.3-10.7,0-15.9,0.9c-5,1.1-9.8,3-14.1,5.7c-4.7,3-9.1,6.6-13,10.7l-0.5,0.5c-1.1,1.1-2.8,1.3-4.1,0.6
	C136.2,104.1,135.4,102.6,135.7,101.1z"/>
<path d="M328.5,162.1c-15.3,1.1-28.6-10.3-29.9-25.6c1.3-15.3,14.6-26.7,29.9-25.6c15.3-1.1,28.6,10.3,29.9,25.6
	C357.1,151.8,343.8,163.2,328.5,162.1z M328.5,128c-6.8,0-12.8,4-12.8,8.5c0,4.5,6,8.5,12.8,8.5c6.8,0,12.8-4,12.8-8.5
	C341.3,132,335.4,128,328.5,128z"/>
<path d="M369.8,103.7c-3.9-4.1-8.3-7.6-13-10.7c-4.4-2.7-9.1-4.6-14.1-5.7c-5.3-0.9-10.6-1.2-15.9-0.9l-8.7,0.8
	c-3,0.6-6.1,0.9-9.2,1.2l-0.5,0c-1.9,0.1-3.7-1.1-4.3-2.9c-0.7-1.8-0.1-3.8,1.5-5c2.8-2,5.7-3.9,8.7-5.6c3.2-1.5,6.5-2.7,9.9-3.7
	c7.2-1.9,14.8-2.1,22.1-0.7c7.5,1.7,14.5,5.5,19.9,11c5.4,5.2,8.9,12,10.1,19.4c0.2,1.5-0.5,3-1.9,3.7c-1.4,0.7-3,0.5-4.1-0.6
	L369.8,103.7z"/>
<path d="M187.7,204.8c-1.6,0-3.1-0.4-4.5-1.3c-27.8-18.8-63.3-21.9-93.9-8.3c-4.1,2.1-9.2,0.6-11.4-3.5c-2.2-4.1-0.7-9.2,3.3-11.5
	c36-16.6,78-13.3,111,8.8c3.2,2,4.8,5.9,3.7,9.6C194.9,202.3,191.5,204.8,187.7,204.8z"/>
<path d="M93.2,264.5c-3,0-5.8-1.6-7.3-4.2c-1.5-2.6-1.6-5.8-0.1-8.5c26.1-47.2,99.9-38.8,103-38.5c4.7,0.6,8,4.8,7.5,9.5
	c-0.6,4.7-4.8,8-9.5,7.5c-0.6-0.1-65.5-7.3-86,29.8C99.2,262.9,96.3,264.6,93.2,264.5z"/>
<path d="M324.3,204.8c-3.8,0-7.2-2.5-8.2-6.2c-1-3.7,0.5-7.6,3.7-9.6c32.9-22,75-25.4,111-8.8c4,2.3,5.5,7.4,3.3,11.5
	c-2.2,4.1-7.3,5.7-11.4,3.5c-30.6-13.6-66.1-10.5-93.9,8.3C327.4,204.4,325.9,204.8,324.3,204.8z"/>
<path d="M418.8,264.5c-3.1,0-6-1.7-7.5-4.4c-20.6-37.2-85.4-29.9-86-29.8c-4.7,0.6-8.9-2.8-9.5-7.5c-0.6-4.7,2.8-8.9,7.5-9.5
	c3.1-0.4,76.9-8.7,103,38.5c1.5,2.6,1.4,5.9-0.1,8.5C424.6,262.9,421.8,264.5,418.8,264.5z"/>
<path d="M256,273.1c-14.4,0-25.6-14.4-25.6-32.8c0-0.7,0-1.4,0.1-2.1c0.2-3.1,2.1-5.8,4.9-7.2c2.8-1.3,6.1-1,8.6,0.8
	c2.5,1.8,3.8,4.9,3.4,8c0,9.4,4.6,16.2,8.5,16.2s8.5-6.9,8.5-15.8c-0.5-4.7,2.9-9,7.7-9.6c2.2-0.3,4.5,0.4,6.2,1.8
	c1.8,1.4,2.9,3.4,3.1,5.7c0.1,0.7,0.1,1.4,0.1,2.1C281.6,258.7,270.4,273.1,256,273.1z"/>
</svg>
