<svg height="511pt" viewBox="-51 0 511 511.9989" width="511pt" xmlns="http://www.w3.org/2000/svg"><path d="m401.566406 452.265625v51.199219h-392.535156v-51.199219c-.054688-34.339844 12.902344-67.425781 36.269531-92.589844l16.382813-15.957031h12.457031l266.667969-.9375h12.886718l.425782 6.570312 11.179687 10.324219c23.363281 25.164063 36.324219 58.25 36.265625 92.589844zm0 0" fill="#37474f"/><path d="m375.964844 452.265625.003906 51.199219h-366.9375v-51.199219c-.203125-33.9375 11.832031-66.808594 33.898438-92.589844l15.289062-15.957031 273.015625-.9375.4375 6.570312 10.398437 10.324219c22.066407 25.78125 34.101563 58.652344 33.894532 92.589844zm0 0" fill="#607d8b"/><path d="m204.648438 396.796875c-28.667969.179687-57.253907-3.132813-85.121094-9.863281-26.527344-6.554688-51.792969-17.445313-74.773438-32.226563-3.773437-2.40625-6.429687-6.226562-7.371094-10.601562-.941406-4.378907-.09375-8.949219 2.355469-12.699219 5.148438-7.8125 15.625-10.03125 23.496094-4.972656 19.839844 12.757812 41.648437 22.152344 64.546875 27.8125 25.167969 6.058594 50.980469 9.03125 76.867188 8.855468 25.867187.179688 51.660156-2.789062 76.8125-8.839843 22.917968-5.664063 44.746093-15.066407 64.605468-27.828125 7.867188-5.066406 18.351563-2.847656 23.496094 4.972656 2.449219 3.75 3.296875 8.320312 2.355469 12.699219-.945313 4.375-3.597657 8.195312-7.371094 10.601562-23.003906 14.789063-48.285156 25.679688-74.832031 32.242188-27.851563 6.722656-56.417969 10.027343-85.066406 9.847656zm0 0" fill="#c81e1e"/><path d="m393.03125 236.371094c.222656 19.703125-4.875 39.101562-14.761719 56.148437-9.996093 16.621094-23.765625 30.652344-40.191406 40.960938-18.402344 11.554687-38.585937 20.003906-59.734375 25.003906-23.910156 5.785156-48.441406 8.621094-73.042969 8.445313-24.601562.175781-49.132812-2.660157-73.046875-8.445313-21.148437-5-41.328125-13.449219-59.734375-25.003906-16.425781-10.308594-30.195312-24.339844-40.191406-40.960938-9.882813-17.046875-14.984375-36.445312-14.761719-56.148437.292969-21.953125 5.328125-43.578125 14.761719-63.402344 5.511719-11.902344 12.292969-23.175781 20.226563-33.621094v-.085937c-3.128907-42.261719 5.636718-84.550781 25.308593-122.085938 1.175781-2.242187 3.28125-3.847656 5.753907-4.386719 2.46875-.539062 5.054687.046876 7.054687 1.59375 21.191406 15.761719 40.097656 34.382813 56.175781 55.332032 18.78125-6.589844 38.542969-9.964844 58.453125-9.984375 19.882813-.015625 39.621094 3.359375 58.367188 9.984375 16.019531-20.972656 34.902343-39.597656 56.089843-55.332032 2-1.546874 4.582032-2.132812 7.054688-1.59375 2.472656.539063 4.578125 2.144532 5.753906 4.386719 19.671875 37.503907 28.464844 79.761719 25.394532 122 7.960937 10.503907 14.769531 21.832031 20.308593 33.792969 9.433594 19.824219 14.46875 41.449219 14.761719 63.402344zm0 0" fill="#607d8b"/><path d="m130.460938 76.625c-23.234376 10.941406-44.195313 26.167969-61.78125 44.886719.441406-30.105469 7.1875-59.785157 19.796874-87.125 15.558594 12.4375 29.644532 26.609375 41.984376 42.238281zm0 0" fill="#ef314c"/><path d="m341.832031 121.425781c-17.613281-18.71875-38.601562-33.949219-61.867187-44.882812 12.355468-15.597657 26.441406-29.738281 41.984375-42.15625 12.648437 27.300781 19.421875 56.953125 19.882812 87.039062zm0 0" fill="#ef314c"/><path d="m230.898438 307.199219c0 14.136719-11.460938 25.597656-25.597657 25.597656-14.140625 0-25.601562-11.460937-25.601562-25.597656l25.601562-17.066407zm0 0" fill="#bb193b"/><path d="m137.203125 503.464844c1.050781-37.226563 30.957031-67.171875 68.183594-68.265625 37.222656 1.09375 67.128906 31.039062 68.179687 68.265625zm0 0" fill="#f5f5f5"/><path d="m237.261719 234.964844-26.703125 27.367187c-1.386719 1.40625-3.28125 2.199219-5.257813 2.199219-1.976562 0-3.871093-.792969-5.261719-2.199219l-26.703124-27.367187c-1.71875-1.714844-2.484376-4.160156-2.046876-6.550782.382813-3.101562 2.632813-5.652343 5.667969-6.414062.542969-.078125 1.089844-.125 1.636719-.136719h53.410156c.546875.011719 1.097656.058594 1.640625.136719 3.03125.761719 5.285157 3.3125 5.667969 6.414062.433594 2.390626-.332031 4.839844-2.050781 6.550782zm0 0" fill="#ef314c"/><path d="m338.929688 350.460938c-23.007813 14.78125-48.289063 25.679687-74.835938 32.257812-27.859375 6.6875-56.425781 9.984375-85.078125 9.8125-15.859375.042969-31.707031-.925781-47.445313-2.902344-4.09375-.851562-8.105468-1.707031-12.03125-2.730468-26.519531-6.527344-51.777343-17.398438-74.75-32.171876-3.789062-2.394531-6.453124-6.210937-7.402343-10.589843-.945313-4.382813-.09375-8.957031 2.367187-12.703125 1.28125-1.953125 2.933594-3.632813 4.863282-4.949219 17.933593 10.625 37.34375 18.535156 57.601562 23.464844 11.378906 2.804687 22.921875 4.914062 34.558594 6.316406.101562.066406.21875.097656.339844.082031 22.207031 4.582032 44.828124 6.839844 67.5 6.742188 25.886718.164062 51.703124-2.785156 76.886718-8.789063 22.195313-5.503906 43.367188-14.523437 62.71875-26.707031 4.730469 7.792969 2.382813 17.941406-5.292968 22.867188zm0 0" fill="#f44335"/><path d="m401.566406 511.996094h-392.535156c-4.710938 0-8.53125-3.820313-8.53125-8.53125v-51.199219c-.050781-36.492187 13.71875-71.644531 38.542969-98.390625 2.070312-2.234375 5.179687-3.195312 8.152343-2.519531 2.972657.679687 5.359376 2.890625 6.257813 5.804687.902344 2.914063.179687 6.085938-1.894531 8.320313-21.894532 23.589843-34.039063 54.597656-33.992188 86.785156v42.664063h375.464844v-42.664063c.046875-32.1875-12.097656-63.195313-33.988281-86.785156-2.074219-2.234375-2.796875-5.40625-1.898438-8.320313.902344-2.914062 3.285157-5.125 6.257813-5.804687 2.972656-.675781 6.082031.285156 8.15625 2.519531 24.820312 26.746094 38.589844 61.898438 38.539062 98.390625v51.199219c0 4.710937-3.820312 8.53125-8.53125 8.53125zm0 0"/><path d="m205.300781 409.597656c-29.492187.179688-58.894531-3.21875-87.566406-10.113281-27.539063-6.773437-53.777344-18.03125-77.664063-33.320313-5.710937-3.625-9.726562-9.390624-11.148437-16.003906-1.421875-6.609375-.132813-13.515625 3.578125-19.171875 7.777344-11.699219 23.488281-15.023437 35.335938-7.472656 19.15625 12.253906 40.199218 21.277344 62.285156 26.707031 24.617187 5.898438 49.863281 8.789063 75.179687 8.613282 25.292969.179687 50.511719-2.707032 75.109375-8.59375 22.109375-5.433594 43.175782-14.460938 62.355469-26.726563 11.847656-7.574219 27.578125-4.246094 35.339844 7.476563 3.707031 5.65625 4.996093 12.558593 3.574219 19.171874-1.425782 6.609376-5.4375 12.375-11.148438 16-23.90625 15.292969-50.167969 26.554688-77.726562 33.335938-28.652344 6.890625-58.035157 10.277344-87.503907 10.097656zm-151.347656-73.078125c-2.890625-.015625-5.589844 1.429688-7.1875 3.839844-1.203125 1.8125-1.625 4.035156-1.164063 6.164063.464844 2.179687 1.789063 4.082031 3.671876 5.273437 22.316406 14.28125 46.828124 24.796875 72.554687 31.125 27.335937 6.5625 55.363281 9.789063 83.472656 9.609375 28.085938.179688 56.09375-3.042969 83.40625-9.597656 25.75-6.335938 50.285157-16.855469 72.625-31.144532 1.882813-1.1875 3.207031-3.085937 3.671875-5.261718.457032-2.132813.035156-4.355469-1.167968-6.171875-2.621094-3.921875-7.898438-5.023438-11.867188-2.472657-20.75 13.273438-43.542969 23.046876-67.460938 28.929688-25.9375 6.21875-52.535156 9.273438-79.207031 9.089844-26.695312.175781-53.316406-2.882813-79.277343-9.109375-23.894532-5.875-46.660157-15.640625-67.386719-28.902344-1.398438-.894531-3.023438-1.371094-4.683594-1.371094zm0 0"/><path d="m205.300781 375.464844c-25.304687.179687-50.535156-2.742188-75.125-8.703125-22.0625-5.21875-43.109375-14.039063-62.292969-26.113281-17.558593-11.023438-32.261718-26.039063-42.917968-43.820313-10.644532-18.355469-16.144532-39.238281-15.933594-60.457031.261719-23.1875 5.566406-46.042969 15.546875-66.976563 5.308594-11.460937 11.738281-22.367187 19.199219-32.5625-2.808594-46.433593 8.210937-92.660156 31.667968-132.832031 1.246094-1.988281 3.257813-3.375 5.558594-3.835938 2.304688-.457031 4.691406.050782 6.609375 1.410157 25.105469 17.496093 47.378907 38.742187 66.039063 63 2.730468 3.761719 1.949218 9.015625-1.761719 11.820312-3.710937 2.800781-8.980469 2.117188-11.851563-1.539062-15.621093-20.347657-33.992187-38.429688-54.589843-53.71875-18.824219 36.035156-27.277344 76.589843-24.414063 117.148437.035156.324219.050782.648438.050782.976563v.027343c0 .332032-.019532.664063-.0625.992188-.171876 1.535156-.753907 2.996094-1.679688 4.230469-7.558594 9.957031-14.019531 20.699219-19.273438 32.039062-8.9375 18.691407-13.703124 39.105469-13.972656 59.820313-.199218 18.1875 4.496094 36.09375 13.597656 51.839844 9.320313 15.472656 22.15625 28.53125 37.46875 38.109374 17.609376 11.050782 36.921876 19.121094 57.15625 23.886719 23.234376 5.621094 47.074219 8.371094 70.980469 8.191407 23.898438.179687 47.734375-2.574219 70.964844-8.191407 20.242187-4.765625 39.558594-12.835937 57.175781-23.890625 15.3125-9.574218 28.148438-22.628906 37.464844-38.101562 9.101562-15.75 13.796875-33.65625 13.59375-51.84375-.269531-20.722656-5.039062-41.136719-13.980469-59.832032-5.285156-11.40625-11.777343-22.210937-19.371093-32.226562-1.292969-1.714844-1.890626-3.855469-1.679688-5.996094 2.871094-40.578125-5.601562-81.152344-24.476562-117.191406-20.574219 15.285156-38.917969 33.363281-54.496094 53.710938-1.832032 2.4375-4.824219 3.714843-7.847656 3.351562-3.027344-.363281-5.628907-2.316406-6.828126-5.121094-1.199218-2.804687-.808593-6.03125 1.019532-8.472656 18.625-24.273438 40.878906-45.527344 65.976562-63.019531 1.914063-1.359375 4.304688-1.867188 6.605469-1.410157 2.304687.460938 4.316406 1.847657 5.5625 3.835938 23.386719 40.160156 34.4375 86.316406 31.773437 132.714844 7.488282 10.230468 13.941407 21.183594 19.265626 32.691406 9.976562 20.929688 15.28125 43.78125 15.542968 66.964844.214844 21.214844-5.289062 42.09375-15.929687 60.449218-10.65625 17.78125-25.359375 32.796876-42.917969 43.816407-19.1875 12.082031-40.242188 20.90625-62.308594 26.125-24.585937 5.960937-49.8125 8.882812-75.109375 8.703125zm0 0"/><path d="m278.371094 83.9375c-1.1875 0-2.363282-.25-3.445313-.730469-44.300781-19.828125-94.953125-19.828125-139.25 0-4.296875 1.839844-9.273437-.121093-11.164062-4.394531-1.890625-4.277344.011719-9.273438 4.261719-11.214844 48.695312-21.765625 104.355468-21.765625 153.050781 0 3.695312 1.628906 5.742187 5.625 4.90625 9.574219-.835938 3.949219-4.324219 6.773437-8.359375 6.765625zm0 0"/><path d="m205.300781 273.0625c-4.289062.011719-8.394531-1.726562-11.371093-4.8125l-26.679688-27.390625c-4.574219-4.699219-5.882812-11.683594-3.316406-17.71875 2.472656-5.929687 8.261718-9.796875 14.6875-9.808594h53.359375c6.425781.011719 12.214843 3.878907 14.6875 9.8125 2.5625 6.035157 1.257812 13.019531-3.316407 17.714844l-26.675781 27.386719c-2.980469 3.089844-7.085937 4.828125-11.375 4.816406zm.835938-16.734375.015625.011719zm-25.863281-25.929687 25.019531 25.078124 24.421875-25.078124zm0 0"/><path d="m119.957031 255.996094c-1.671875.003906-3.308593-.492188-4.703125-1.414063-19.417968-10.777343-41.355468-16.179687-63.554687-15.652343-4.710938 0-8.53125-3.820313-8.53125-8.53125 0-4.714844 3.820312-8.535157 8.53125-8.535157 25.570312-.65625 50.828125 5.746094 73 18.5 3.128906 2.089844 4.523437 5.976563 3.433593 9.578125-1.09375 3.597656-4.414062 6.058594-8.175781 6.054688zm0 0"/><path d="m68.773438 298.664062c-3.761719.003907-7.082032-2.457031-8.171876-6.054687-1.09375-3.601563.300782-7.492187 3.429688-9.578125 16.613281-11.144531 35.953125-17.539062 55.933594-18.5 4.714844-.007812 8.539062 3.808594 8.546875 8.523438.003906 4.710937-3.8125 8.539062-8.523438 8.542968-16.605469 1.019532-32.644531 6.410156-46.488281 15.632813-1.398438.9375-3.042969 1.433593-4.726562 1.433593zm0 0"/><path d="m290.640625 255.996094c-3.761719.003906-7.082031-2.457032-8.171875-6.054688-1.09375-3.601562.300781-7.488281 3.429688-9.578125 22.171874-12.753906 47.429687-19.15625 73-18.5 4.714843 0 8.535156 3.820313 8.535156 8.535157 0 4.710937-3.820313 8.53125-8.535156 8.53125-22.199219-.609376-44.148438 4.792968-63.53125 15.632812-1.398438.9375-3.042969 1.4375-4.726563 1.433594zm0 0"/><path d="m341.824219 298.664062c-1.683594 0-3.328125-.496093-4.726563-1.433593-13.8125-9.273438-29.855468-14.671875-46.464844-15.632813-4.710937 0-8.535156-3.820312-8.535156-8.535156 0-4.710938 3.824219-8.53125 8.535156-8.53125 19.980469.960938 39.320313 7.355469 55.933594 18.5 3.128906 2.085938 4.523438 5.976562 3.433594 9.578125-1.09375 3.597656-4.414062 6.058594-8.175781 6.054687zm0 0"/><path d="m85.832031 511.996094c-2.894531 0-5.589843-1.46875-7.160156-3.898438-1.574219-2.429687-1.804687-5.492187-.617187-8.132812 16.691406-37.085938 1.558593-58.804688.90625-59.710938-2.707032-3.785156-1.882813-9.039062 1.851562-11.816406 3.734375-2.773438 9.003906-2.046875 11.847656 1.640625.90625 1.210937 21.984375 30.167969.957032 76.882813-1.375 3.066406-4.425782 5.039062-7.785157 5.035156zm0 0"/><path d="m324.769531 511.996094c-3.359375.003906-6.410156-1.96875-7.785156-5.035156-21.027344-46.71875.050781-75.671876.957031-76.882813 2.8125-3.78125 8.15625-4.570313 11.941406-1.757813 3.78125 2.8125 4.566407 8.160157 1.753907 11.941407-.734375 1.023437-15.734375 22.71875.914062 59.703125 1.1875 2.640625.953125 5.703125-.617187 8.132812-1.570313 2.429688-4.269532 3.898438-7.164063 3.898438zm0 0"/><path d="m85.839844 196.265625c-3.957032.003906-7.402344-2.714844-8.3125-6.570313-.914063-3.851562.945312-7.828124 4.488281-9.597656 18.539063-10.566406 40.160156-14.382812 61.195313-10.804687-10.542969-10.804688-25.238282-16.527344-40.3125-15.695313-4.710938 0-8.53125-3.820312-8.53125-8.535156 0-4.710938 3.820312-8.53125 8.53125-8.53125 46.035156 0 64.675781 32.394531 68.097656 49.523438.734375 3.6875-1.027344 7.421874-4.339844 9.195312-3.316406 1.777344-7.402344 1.171875-10.0625-1.484375-.832031-.792969-22.457031-20.660156-66.949219 1.597656-1.179687.59375-2.480469.902344-3.804687.902344zm0 0"/><path d="m324.757812 196.265625c-1.324218 0-2.625-.308594-3.808593-.902344-44.480469-22.242187-66.117188-2.378906-67.019531-1.527343-2.707032 2.570312-6.757813 3.109374-10.042969 1.332031-3.265625-1.773438-5-5.464844-4.289063-9.113281 3.425782-17.128907 22.070313-49.523438 68.101563-49.523438 4.714843 0 8.535156 3.820312 8.535156 8.53125 0 4.714844-3.820313 8.535156-8.535156 8.535156-15.160157-.882812-29.957031 4.863282-40.550781 15.746094 21.105468-3.65625 42.824218.144531 61.433593 10.75 3.546875 1.769531 5.40625 5.746094 4.496094 9.601562-.914063 3.855469-4.359375 6.578126-8.320313 6.570313zm0 0"/><path d="m179.699219 315.730469c-18.84375-.019531-34.113281-15.289063-34.132813-34.132813 0-4.714844 3.820313-8.535156 8.53125-8.535156 4.714844 0 8.535156 3.820312 8.535156 8.535156 0 9.425782 7.640626 17.066406 17.066407 17.066406s17.066406-7.640624 17.066406-17.066406v-17.066406c0-4.714844 3.820313-8.535156 8.535156-8.535156 4.710938 0 8.53125 3.820312 8.53125 8.535156v17.066406c-.019531 18.84375-15.289062 34.113282-34.132812 34.132813zm0 0"/><path d="m230.898438 315.730469c-18.839844-.019531-34.109376-15.289063-34.132813-34.132813v-17.066406c0-4.714844 3.820313-8.535156 8.535156-8.535156 4.710938 0 8.53125 3.820312 8.53125 8.535156v17.066406c0 9.425782 7.640625 17.066406 17.066407 17.066406 9.425781 0 17.066406-7.640624 17.066406-17.066406 0-4.714844 3.820312-8.535156 8.535156-8.535156 4.710938 0 8.53125 3.820312 8.53125 8.535156-.019531 18.84375-15.289062 34.113282-34.132812 34.132813zm0 0"/><path d="m205.300781 341.332031c-9.132812.265625-17.972656-3.242187-24.433593-9.703125-6.457032-6.460937-9.96875-15.300781-9.699219-24.429687-.015625-4.714844 3.792969-8.546875 8.503906-8.5625 4.714844-.015625 8.546875 3.792969 8.5625 8.507812-.015625 9.425781 7.613281 17.078125 17.039063 17.09375 9.425781.015625 17.078124-7.613281 17.09375-17.039062 0-4.714844 3.820312-8.535157 8.53125-8.535157 4.714843 0 8.535156 3.820313 8.535156 8.535157.265625 9.128906-3.242188 17.96875-9.703125 24.429687-6.460938 6.460938-15.296875 9.96875-24.429688 9.703125zm0 0"/><path d="m273.558594 511.996094c-4.523438-.003906-8.257813-3.535156-8.511719-8.050782-.816406-32.699218-26.972656-59.097656-59.660156-60.214843-32.691407 1.113281-58.847657 27.515625-59.660157 60.214843-.265624 4.703126-4.292968 8.304688-9 8.039063-4.707031-.265625-8.308593-4.292969-8.042968-9 1.320312-41.738281 34.957031-75.207031 76.703125-76.320313 41.742187 1.113282 75.378906 34.582032 76.703125 76.320313.125 2.261719-.648438 4.476563-2.15625 6.164063-1.507813 1.691406-3.625 2.710937-5.886719 2.835937-.164063.011719-.324219.011719-.488281.011719zm0 0"/></svg>