<svg xmlns="http://www.w3.org/2000/svg" width="52" height="53" viewBox="0 0 52 53">
    <g fill="none" fill-rule="evenodd">
        <g fill-rule="nonzero">
            <g transform="translate(-1038 -406) translate(1038 406)">
                <path fill="#FFC850" d="M45.183.392C46.313-.53 48 .278 48 1.739V25L29 13.716 45.183.392z"/>
                <path fill="#EBAF4B" d="M47 24l-12-6.807 9.998-10.821c.7-.757 2.002-.282 2.002.73V24z"/>
                <path fill="#FFC850" d="M6.817.392C5.687-.53 4 .278 4 1.739V25l19-11.284L6.817.392z"/>
                <path fill="#EBAF4B" d="M5 24l12-6.807L7.002 6.372C6.302 5.615 5 6.09 5 7.102V24z"/>
                <ellipse cx="26" cy="30.5" fill="#FFDC64" rx="24" ry="22.5"/>
                <path fill="#FF8087" d="M29 44.75v1.75c0 1.933-1.567 3.5-3.5 3.5S22 48.433 22 46.5v-1.75L25.5 43l3.5 1.75z"/>
                <path fill="#5D5360" d="M27.98 36h-3.96c-.856 0-1.33.884-.792 1.477l1.98 2.186c.408.45 1.176.45 1.583 0l1.981-2.186c.538-.593.064-1.477-.791-1.477z"/>
                <g fill="#E1A546">
                    <path d="M14.406 8.941c-.131 0-.265-.031-.39-.097C8.886 6.118.856 4.498.776 4.482c-.46-.092-.76-.547-.67-1.017.09-.47.53-.777.995-.685.338.067 8.348 1.682 13.698 4.525.415.221.577.744.36 1.17-.15.296-.446.466-.753.466zM16.104 2.873c-.072 0-.147-.01-.22-.03C11.128 1.536 2.48 1.784 2.396 1.788c-.476.014-.86-.362-.874-.84-.014-.479.355-.879.823-.893.364-.012 8.985-.26 13.98 1.113.452.124.72.6.599 1.063-.102.387-.445.641-.82.642z" transform="translate(35 36)"/>
                </g>
                <path fill="#FFC850" d="M32.11 51.29c-13.303 0-24.088-10.14-24.088-22.648C8.022 19.456 13.841 11.554 22.2 8 10.745 9.749 2 19.088 2 30.35 2 42.86 12.785 53 26.088 53c3.535 0 6.888-.722 9.912-2.008-1.267.194-2.565.299-3.89.299z"/>
                <g fill="#E1A546">
                    <path d="M2.593 8.941c-.306 0-.602-.17-.753-.467-.216-.425-.054-.948.361-1.169C7.551 4.462 15.561 2.847 15.9 2.78c.46-.094.905.215.995.685.09.47-.21.925-.67 1.017-.081.016-8.11 1.636-13.24 4.362-.125.066-.259.097-.39.097zM.895 2.873c-.374 0-.717-.255-.819-.642-.121-.463.147-.939.6-1.063C5.67-.204 14.29.044 14.655.055c.467.014.836.414.822.893-.015.478-.42.858-.874.84-.087-.003-8.735-.252-13.488 1.055-.074.02-.148.03-.22.03z" transform="translate(0 36)"/>
                </g>
                <path fill="#4B3F4E" d="M16 33c-1.65 0-3-1.4-3-3.111V28.11C13 26.4 14.35 25 16 25s3 1.4 3 3.111v1.778C19 31.599 17.65 33 16 33z"/>
                <path fill="#5D5360" d="M16.375 26c-.128 0-.252.023-.375.044v4.242c0 .947.672 1.714 1.5 1.714s1.5-.767 1.5-1.714V29c0-1.65-1.181-3-2.625-3z"/>
                <circle cx="16.5" cy="27.5" r="1.5" fill="#FFF"/>
                <path fill="#4B3F4E" d="M36 33c-1.65 0-3-1.4-3-3.111V28.11C33 26.4 34.35 25 36 25s3 1.4 3 3.111v1.778C39 31.599 37.65 33 36 33z"/>
                <path fill="#5D5360" d="M36.375 26c-.128 0-.252.023-.375.044v4.242c0 .947.672 1.714 1.5 1.714s1.5-.767 1.5-1.714V29c0-1.65-1.181-3-2.625-3z"/>
                <circle cx="35.5" cy="27.5" r="1.5" fill="#FFF"/>
                <path fill="#4B3F4E" d="M26.983 39.705L24.847 36.2c-.039-.064-.06-.134-.09-.201H24.1c-.922 0-1.433.886-.853 1.48l2.136 2.19c.414.425 1.165.434 1.618.057l-.017-.022z"/>
                <path fill="#E6646E" d="M25.5 43L22 44.667v1.666c0 .265.04.519.101.765.881-.104 1.731-.347 2.524-.72v.789c0 .46.392.833.875.833s.875-.373.875-.833v-.788c.793.373 1.643.616 2.524.72.06-.247.101-.501.101-.766v-1.666L25.5 43z"/>
                <path fill="#EBAF4B" d="M29.75 45c-1.202 0-2.361-.357-3.35-1.031-.53-.361-1.27-.361-1.8 0-.989.674-2.148 1.031-3.35 1.031-1.463 0-2.872-.54-3.968-1.52-.35-.313-.378-.85-.065-1.198.314-.349.85-.378 1.2-.065 1.428 1.278 3.662 1.417 5.224.351 1.112-.757 2.607-.757 3.718 0 1.562 1.066 3.796.926 5.224-.35.349-.313.886-.285 1.2.065.313.348.284.885-.066 1.197-1.095.98-2.504 1.52-3.967 1.52z"/>
            </g>
        </g>
    </g>
</svg>
