<svg xmlns="http://www.w3.org/2000/svg" width="43" height="53" viewBox="0 0 43 53">
    <g fill="none" fill-rule="evenodd">
        <g fill-rule="nonzero">
            <g>
                <path fill="#3F0F33" d="M7.294 30.21c.179 0 .372.085.482.256.18.27.124.655-.152.84-.068.057-7.115 5.223-4.812 12.24 1.669 5.08 7.432 6.006 7.501 6.02.318.043.538.356.497.683-.042.3-.29.527-.58.527h-.082c-.262-.043-6.536-1.025-8.439-6.832-2.592-7.899 5.17-13.578 5.254-13.635.096-.07.206-.1.33-.1m0-1.209c-.358 0-.703.114-1.006.327-.083.057-8.563 6.277-5.695 15.016 2.137 6.504 9.1 7.6 9.39 7.643.083.014.166.014.249.014.868 0 1.627-.669 1.75-1.566.139-.996-.523-1.921-1.488-2.063-.042 0-5.13-.869-6.55-5.21-2-6.105 4.302-10.816 4.37-10.859.387-.27.635-.697.718-1.167.083-.484-.014-.968-.29-1.366-.33-.484-.882-.769-1.447-.769z" transform="translate(-363 -406) translate(363 406)"/>
                <path fill="#FFA727" d="M10.394 51h-.086c-.272-.042-6.783-.996-8.758-6.641-2.69-7.68 5.366-13.2 5.452-13.255.272-.18.658-.125.844.152.186.263.13.637-.157.816-.072.056-7.384 5.078-4.995 11.9 1.732 4.939 7.714 5.838 7.786 5.852.329.041.558.346.515.664-.043.304-.3.512-.601.512z" transform="translate(-363 -406) translate(363 406)"/>
                <path fill="#FFA727" d="M37.33.11c-2.713 1.194-4.304 4.084-4.304 4.084l.014.015c-1.179-.432-2.5-.69-3.878-.69-1.392 0-2.699.244-3.877.69l.014-.015S23.708 1.304 20.995.11c-2.713-1.194-1.336 7.68-1.208 9.981l.114-.13c-.071.374-.114.748-.114 1.137 0 2.085 1.037 4.415 2.728 6.241 1.69 1.827-.1.633-.242 1.64-.199 1.122-.454 2.258-.81 3.078-.639 1.395-1.747 2.876-3.636 4.027C12.8 29.133 5.512 40.782 10.895 51.97h12.586l.198.029h1.591l-.014-.115h.014c-.014.072-.014.115-.014.115H36.01c.142-1.136-.895-1.942-1.335-2.977-.426-1.05.511-20.422.653-24.22.156-3.796-1.32-5.881-1.32-5.881 2.712-1.87 4.53-5.063 4.53-7.81 0-.388-.042-.762-.113-1.136l.113.13C38.665 7.79 40.043-1.085 37.33.11z" transform="translate(-363 -406) translate(363 406)"/>
                <path fill="#E57917" d="M23.991 6.253c.152-.097-1.652-2.81-1.915-2.15-.255.662.215 5.897.215 5.897s.974-3.251 1.7-3.747zM39.234 1.11c-2.867 1.194-4.548 4.086-4.548 4.086l.015.014c-1.246-.432-2.641-.69-4.097-.69v16.83l-4.983-.517s3.212 3.827 3.497 5.798c.42 2.963.42 8.43-3.977 9.322 0 0 4.667 3.884 3.722 7.912-.946 4.028-4.863 6.79-4.863 6.79S24.615 53 25.396 53h12.457c.15-1.136-.946-1.942-1.41-2.978-.451-1.05.54-20.428.69-24.226.165-3.798-1.396-5.884-1.396-5.884 2.866-1.87 4.788-5.063 4.788-7.811 0-.389-.046-.763-.12-1.137l.12.13c.12-2.302 1.575-11.178-1.291-9.984z" transform="translate(-363 -406) translate(363 406)"/>
                <g fill="#3F0F33" transform="translate(-363 -406) translate(363 406) translate(10)">
                    <path d="M20.824 21.586c-5.547 0-10.014-5.443-10.014-9.943 0-4.486 4.495-8.143 10.014-8.143 5.52 0 10.014 3.657 10.014 8.143 0 4.514-4.466 9.943-10.014 9.943zm0-16.872c-4.85 0-8.79 3.115-8.79 6.929 0 3.928 4.053 8.728 8.79 8.728 4.737 0 8.79-4.8 8.79-8.728.015-3.814-3.94-6.929-8.79-6.929z"/>
                    <path d="M11.422 11.257c-.313 0-.583-.257-.612-.571-.014-.357-.07-.915-.142-1.557-.398-4.1-.654-7.858.697-8.858.299-.214.797-.414 1.494-.1 2.873 1.258 4.523 4.2 4.594 4.315.156.3.057.657-.242.828-.298.157-.668.057-.825-.228-.014-.029-1.536-2.715-4.025-3.8-.214-.1-.285-.043-.299-.029-.91.657-.398 5.814-.2 7.743.072.657.115 1.214.143 1.614.014.343-.242.629-.569.643h-.014zM30.226 11.257h-.028c-.342-.014-.598-.3-.57-.643.015-.385.072-.957.143-1.614.185-1.943.697-7.086-.199-7.743-.014-.014-.085-.057-.299.029-2.503 1.085-4.01 3.771-4.025 3.8-.157.3-.526.4-.825.243-.299-.158-.398-.529-.242-.829.071-.129 1.721-3.071 4.594-4.314.712-.315 1.21-.115 1.494.1 1.351 1 1.124 4.6.697 8.857-.057.643-.114 1.2-.142 1.557 0 .3-.27.557-.598.557zM19.558 14.1l.868 1.014c.213.243.597.243.81 0l.868-1.014c.27-.314.1-.814-.298-.871-.655-.115-1.309-.115-1.963 0-.399.071-.555.557-.285.871z"/>
                    <ellipse cx="16.913" cy="10.929" rx="1.01" ry="1.014"/>
                    <ellipse cx="24.75" cy="10.929" rx="1.01" ry="1.014"/>
                    <path d="M15.96 16.371H9.344c-.341 0-.611-.271-.611-.614 0-.343.27-.614.611-.614h6.614c.342 0 .612.271.612.614 0 .343-.284.614-.612.614zM10.27 20.929c-.242 0-.455-.143-.555-.372-.128-.314.014-.671.327-.8l6.23-2.671c.313-.129.669.014.797.328.128.315-.014.672-.327.8l-6.23 2.672c-.071.028-.157.043-.242.043zM32.317 16.371h-6.614c-.341 0-.612-.271-.612-.614 0-.343.27-.614.612-.614h6.614c.342 0 .612.271.612.614 0 .343-.285.614-.612.614zM31.378 20.929c-.085 0-.156-.015-.241-.043l-6.23-2.672c-.313-.128-.456-.485-.328-.8.128-.314.484-.457.797-.328l6.23 2.671c.313.129.455.486.327.8-.085.229-.313.372-.555.372z"/>
                    <path d="M15.32 52.857H2.517c-.228 0-.441-.128-.54-.343-5.477-11.271 1.763-23.243 7.168-26.5 4.623-2.785 4.225-7.571 4.21-7.771-.028-.329.214-.629.541-.672.327-.028.626.215.669.543.028.229.497 5.743-4.794 8.929-5.021 3.028-11.706 14.071-6.87 24.586h11.806c-.043-.6-.2-1.543-.74-2.115-.327-.343-.754-.514-1.309-.514-2.73 0-4.551.771-4.565.771-.3.129-.669-.014-.797-.314-.128-.314.014-.671.313-.8.085-.043 2.048-.871 5.05-.871.896 0 1.635.3 2.204.9 1.21 1.285 1.081 3.5 1.067 3.6-.028.314-.299.571-.612.571z"/>
                    <path d="M14.58 49.914c-.185 0-.356-.085-.484-.228-.199-.272-.156-.643.1-.857 3.129-2.443 4.665-4.929 4.551-7.358-.156-3.5-3.726-5.842-3.769-5.871-.284-.186-.37-.557-.185-.843.185-.286.555-.371.84-.186.17.115 4.124 2.686 4.323 6.829.128 2.857-1.55 5.671-5.02 8.386-.1.085-.228.128-.356.128zM27.709 52.886H21.62c-.342 0-.612-.272-.612-.615 0-.342.27-.614.612-.614h5.42c-.115-.314-.328-.628-.556-.971-.241-.357-.497-.715-.668-1.143-.313-.743-.185-6.372.498-21.543.057-1.214.1-2.186.113-2.771.143-3.515-1.194-5.458-1.209-5.472-.199-.271-.128-.657.143-.843.27-.2.654-.128.839.143.071.086 1.593 2.3 1.436 6.229-.028.585-.07 1.557-.113 2.771-.242 5.443-.882 19.9-.57 21.057.115.286.328.586.541.9.441.657.953 1.386.825 2.357-.057.286-.313.515-.611.515z"/>
                    <path d="M22.716 52.886h-5.803c-.171 0-.328-.072-.441-.2-.114-.129-.171-.3-.157-.472.057-.643.313-2.785 1.294-3.414.27-.3.584-2.443.64-4.557.015-.343.3-.614.626-.6.342.014.598.286.598.628-.057 2.215-.299 4.972-1.18 5.558-.257.171-.513 1-.655 1.842h4.509V32.143c0-.343.27-.614.612-.614.341 0 .611.271.611.614V52.27c-.042.329-.313.615-.654.615z"/>
                    <path d="M16.913 52.886h-1.594c-.341 0-.611-.272-.611-.615 0-.342.27-.614.611-.614h1.594c.34 0 .611.272.611.614 0 .343-.27.615-.611.615z"/>
                </g>
            </g>
        </g>
    </g>
</svg>
