<svg xmlns="http://www.w3.org/2000/svg" width="41" height="53" viewBox="0 0 41 53">
    <g fill="none" fill-rule="evenodd">
        <g fill-rule="nonzero">
            <g>
                <g fill="#FFAE8B">
                    <path d="M31.906.627c-.073-.36-.476-.6-.9-.54l-1.93.28c-.425.06-.71.401-.638.76.064.322.394.549.767.549.044 0 .088-.003.132-.01l1.931-.278c.425-.062.71-.402.638-.761zM30.994 3.708l-1.859-.854c-.379-.174-.852-.056-1.057.264-.206.32-.066.72.313.895l1.859.854c.118.054.246.08.371.08.277 0 .545-.125.686-.345.206-.32.066-.72-.313-.894zM2.58 1.666c.044.007.088.01.131.01.373 0 .703-.227.768-.549.072-.359-.213-.7-.637-.76L.91.086c-.425-.06-.827.18-.9.54-.072.359.213.7.637.76l1.932.28zM2.782 2.854l-1.86.854c-.378.174-.518.574-.312.894.14.22.409.345.685.345.126 0 .254-.026.372-.08l1.86-.854c.377-.174.518-.574.312-.895-.206-.32-.679-.438-1.057-.264z" transform="translate(-701 -406) translate(701 406) translate(0 15)"/>
                </g>
                <path fill="#FFDCA7" d="M32.9 16.907c.14 2.704 3.704 6.903 3.29 12.26-.371 4.792-2.692 10.612-7.444 13.556.02.265.03.51.03.733 0 2.916-1.576 4.628-4.776 5.544.003 0 16.996-3.602 17-21.254.004-18.006-8.285-14.392-8.1-10.84z" transform="translate(-701 -406) translate(701 406)"/>
                <path fill="#FFCF86" d="M30.726 41c-.707.773-1.504 1.462-2.395 2.036.018.252.027.485.027.696 0 2.771-1.438 4.397-4.358 5.268 0 0 3.121-.689 6.563-2.962.292-.661.437-1.425.437-2.306 0-.704-.102-1.644-.274-2.732z" transform="translate(-701 -406) translate(701 406)"/>
                <path fill="#FFE9C8" d="M19.386 5.25s2.176-5.62 4.04-5.23c1.892.393 1.525 6.734 1.525 6.734s3.905 6.042 3.779 9.517c-.127 3.475-2.343 5.793-4.537 6.216 0 0 4.807 16.083 4.807 21.06C29 48.526 24.58 50 15.5 50S2 48.525 2 43.548c0-4.978 4.807-21.06 4.807-21.06-2.193-.424-4.41-2.742-4.537-6.217-.126-3.475 3.78-9.517 3.78-9.517S5.681.414 7.572.019c1.864-.389 4.04 5.232 4.04 5.232h7.773z" transform="translate(-701 -406) translate(701 406)"/>
                <path fill="#FFDCA7" d="M15.5 47.536C7.233 47.536 2.83 46.47 2.107 43c-.068.52-.107.983-.107 1.369C2 48.712 6.42 50 15.5 50S29 48.712 29 44.369c0-.386-.039-.848-.107-1.369-.723 3.469-5.126 4.536-13.393 4.536z" transform="translate(-701 -406) translate(701 406)"/>
                <path fill="#FFAE8B" d="M7.451.02c-1.943.4-1.565 6.83-1.565 6.83s-4.013 6.128-3.883 9.654c.069 1.864.738 3.399 1.687 4.496C14.97 18.49 13.978 5.326 13.978 5.326h-2.376S9.366-.374 7.451.02zM24.55.02c1.941.4 1.564 6.83 1.564 6.83s4.013 6.128 3.883 9.654c-.069 1.864-.738 3.399-1.687 4.496C17.03 18.49 18.022 5.326 18.022 5.326h2.376S22.634-.374 24.55.02z" transform="translate(-701 -406) translate(701 406)"/>
                <path fill="#433F43" d="M9.5 11c-.841 0-1.5.878-1.5 2 0 1.122.659 2 1.5 2s1.5-.878 1.5-2c0-1.122-.659-2-1.5-2zM21.5 11c-.841 0-1.5.878-1.5 2 0 1.122.659 2 1.5 2s1.5-.878 1.5-2c0-1.122-.659-2-1.5-2z" transform="translate(-701 -406) translate(701 406)"/>
                <path fill="#DD8858" d="M18 15.153c0-.247-.087-.846-.896-1.055C16.838 14.029 16.508 14 16 14c-.509 0-.838.03-1.104.098-.809.21-.896.808-.896 1.055 0 .676.589 1.305 1.35 1.543v1.593c0 .393.29.711.65.711.36 0 .651-.318.651-.71v-1.594c.76-.238 1.349-.867 1.349-1.543z" transform="translate(-701 -406) translate(701 406)"/>
                <path fill="#FFE9C8" d="M8 32s.688 20 3.313 20S14 33.97 14 33.97M24 32s-.687 20-3.312 20S18 33.97 18 33.97" transform="translate(-701 -406) translate(701 406)"/>
                <path fill="#FFDCA7" d="M11.338 53c-1.389 0-2.062-2.024-2.493-3.786-.423-1.73-.798-4.127-1.115-7.128-.537-5.074-.727-10.215-.73-10.267-.015-.435.312-.802.733-.818.42-.02.773.323.79.759 0 .048.178 4.807.669 9.654.286 2.83.622 5.13.997 6.84.542 2.47 1.02 3.033 1.158 3.148.206-.159 1.204-1.31 1.78-8.905.331-4.369.35-8.656.35-8.7.002-.434.343-.786.762-.786h.003c.42.002.76.357.758.793 0 .046-.021 4.687-.39 9.267-.22 2.713-.517 4.883-.884 6.45-.35 1.493-.98 3.479-2.388 3.479zM20.663 53c-1.41 0-2.038-1.986-2.389-3.48-.367-1.566-.664-3.736-.883-6.449-.37-4.58-.39-9.221-.391-9.267-.002-.436.338-.791.759-.793h.002c.42 0 .76.352.761.787 0 .043.02 4.338.352 8.707.576 7.588 1.573 8.738 1.78 8.898.137-.116.615-.678 1.157-3.149.375-1.71.71-4.01.997-6.84.491-4.847.668-9.607.67-9.654.016-.436.372-.777.79-.76.42.017.747.384.731.82-.001.05-.192 5.191-.729 10.266-.317 3-.692 5.399-1.115 7.128C22.724 50.976 22.05 53 20.663 53z" transform="translate(-701 -406) translate(701 406)"/>
            </g>
        </g>
    </g>
</svg>
