<svg xmlns="http://www.w3.org/2000/svg" width="127" height="142" viewBox="0 0 127 142">
    <g fill="none" fill-rule="evenodd">
        <g fill-rule="nonzero">
            <g>
                <path fill="#FFF0AF" d="M98.283 41c-4.055 0-11.996-5.656-13.546-6.79-.549-.4-.872-1.035-.872-1.71s.323-1.31.872-1.71c1.55-1.134 9.491-6.79 13.546-6.79 4.732 0 8.582 3.813 8.582 8.5 0 4.687-3.85 8.5-8.582 8.5zm-8.53-8.5c3.43 2.263 7.124 4.248 8.53 4.248 2.365 0 4.289-1.905 4.289-4.248 0-2.342-1.924-4.248-4.289-4.248-1.406 0-5.1 1.985-8.53 4.248z" transform="translate(-1123 -428) translate(1123.135 428)"/>
                <path fill="#FFE07D" d="M53.446 41c-4.732 0-8.581-3.813-8.581-8.5 0-4.687 3.85-8.5 8.581-8.5 4.055 0 11.996 5.656 13.547 6.79.548.4.872 1.035.872 1.71s-.324 1.31-.872 1.71C65.443 35.345 57.502 41 53.446 41zm0-12.748c-2.365 0-4.288 1.906-4.288 4.248 0 2.342 1.924 4.248 4.288 4.248 1.407 0 5.101-1.985 8.531-4.248-3.43-2.263-7.124-4.248-8.53-4.248z" transform="translate(-1123 -428) translate(1123.135 428)"/>
                <path fill="#F48156" d="M97.368 8.436L74.864 39 52.362 8.436c-.458-.622-.614-1.418-.408-2.161C52.96 2.656 56.296 0 60.257 0c2.453 0 4.666 1.018 6.234 2.654.603.629 1.592.629 2.194 0C70.255 1.019 72.468 0 74.92 0c2.43 0 4.625 1 6.191 2.608.6.616 1.575.616 2.174 0C84.85.999 87.043 0 89.474 0c3.959 0 7.295 2.656 8.301 6.275.207.742.05 1.54-.407 2.161z" transform="translate(-1123 -428) translate(1123.135 428)"/>
                <path fill="#D6694D" d="M97.775 6.275C96.77 2.655 93.441 0 89.49 0c-1.887 0-3.63.607-5.047 1.633 1.555 1.124 2.72 2.748 3.246 4.642.207.742.05 1.54-.406 2.161l-17.417 23.7L74.908 39l22.46-30.564c.458-.622.613-1.419.407-2.161z" transform="translate(-1123 -428) translate(1123.135 428)"/>
                <path fill="#F48156" d="M62.563 44.828v2.153c0 7.536-2.947 14.776-8.219 20.189L31.435 90.692c-5.496 5.644-8.57 13.194-8.57 21.052 0 16.71 13.62 30.256 30.42 30.256H110.7c10.748 0 18.078-10.824 14.04-20.73l-5.291-12.978c-1.728-4.237-2.616-8.767-2.616-13.339V80.265c0-5.987-1.629-11.806-4.643-16.872-1.41-2.37-13.64-6.517-13.64-6.517l-6.004-14.491-5.709-5.678c-3.044-3.028-7.422-4.32-11.634-3.432l-3.896.82c-5.097 1.075-8.744 5.55-8.744 10.733z" transform="translate(-1123 -428) translate(1123.135 428)"/>
                <path fill="#D6694D" d="M124.753 121.27l-5.227-12.978c-1.706-4.237-2.583-8.766-2.583-13.338v-14.69c0-5.986-1.61-11.805-4.587-16.872-1.392-2.369-13.475-6.516-13.475-6.516L92.95 42.385l-5.64-5.678c-3.007-3.028-7.332-4.32-11.493-3.432l-2.952.63c1.564.627 3.011 1.567 4.238 2.802l19.994 20.131c6.171 6.213 9.637 14.64 9.637 23.426v14.689c0 4.572.878 9.101 2.584 13.338l5.227 12.978c3.99 9.907-3.252 20.731-13.87 20.731h10.21c10.617 0 17.858-10.824 13.868-20.73z" transform="translate(-1123 -428) translate(1123.135 428)"/>
                <path fill="#ADE092" d="M111.865 62.974c-1.402-2.366-3.103-4.567-5.083-6.544L92.332 42 69.289 65.011c-5.894 5.886-5.894 15.43 0 21.316 1.675 1.672 1.675 4.384 0 6.056l-16.847 16.824c-.977.975-.67 2.626.592 3.186l10.926 4.854c.452.2.811.563 1.008 1.016l4.566 10.55c.551 1.275 2.216 1.592 3.199.61l27.18-27.141c5.894-5.886 5.894-15.43 0-21.316-1.112-2.22-.584-5.474 1.175-7.23l10.777-10.762z" transform="translate(-1123 -428) translate(1123.135 428)"/>
                <path fill="#055E7F" d="M88.579 85.346c-.578-.202-1.17-.413-1.76-.632V75.3c1.444.365 2.304 1.081 2.381 1.148.87.776 2.213.717 3.01-.135.803-.856.748-2.191-.122-2.982-.116-.106-2.07-1.84-5.269-2.336V69.11c0-1.165-.959-2.11-2.141-2.11-1.183 0-2.141.945-2.141 2.11v2.045c-.286.064-.575.136-.87.223-2.972.882-5.192 3.387-5.795 6.538-.55 2.876.387 5.65 2.445 7.241 1.072.83 2.403 1.588 4.22 2.389V99.55c-1.594-.124-2.618-.52-4.358-1.641-.99-.638-2.317-.365-2.964.61-.648.976-.37 2.284.62 2.922 2.614 1.686 4.408 2.201 6.702 2.337v2.112c0 1.165.958 2.11 2.141 2.11 1.182 0 2.141-.945 2.141-2.11v-2.283c4.61-.923 7.303-4.683 7.902-8.197.776-4.544-1.636-8.495-6.142-10.064zm-7.62-3.51c-.782-.605-1.127-1.837-.878-3.138.221-1.159.983-2.545 2.456-3.148v7.292c-.592-.323-1.127-.658-1.577-1.006zM90.5 94.71c-.307 1.796-1.559 3.7-3.68 4.498v-10l.333.116c3.735 1.302 3.506 4.451 3.346 5.386z" transform="translate(-1123 -428) translate(1123.135 428)"/>
                <path fill="#6DD4A1" d="M96.924 56.385c3.75 3.837 6.478 8.522 8.01 13.615l6.93-7.092c-1.363-2.358-3.018-4.553-4.943-6.523L92.863 42l-4.998 5.115 9.059 9.27z" transform="translate(-1123 -428) translate(1123.135 428)"/>
                <g transform="translate(-1123 -428) translate(1123.135 428) translate(12.865 112)">
                    <circle cx="14.504" cy="14.511" r="14.4" fill="#FFF0AF"/>
                    <path fill="#FFE07D" d="M20.44 1.393c.82 1.81 1.28 3.818 1.28 5.935 0 7.953-6.446 14.4-14.4 14.4-2.116 0-4.124-.46-5.935-1.281 2.262 4.99 7.283 8.464 13.119 8.464 7.952 0 14.4-6.447 14.4-14.4 0-5.836-3.474-10.857-8.464-13.118z"/>
                    <path fill="#FFD064" d="M16.545 12.9c-1.075-.38-2.909-.99-3.07-1.4-.033-.08-.05-.301.044-.542.063-.159.202-.328.43-.437.69-.33 1.702.19 1.774.249-.03-.023.117.06.117.06 2.045 1.263 4.255-1.358 2.666-3.161-.407-.375-1.104-.822-2.001-1.113-.01-1.165-.977-2.102-2.154-2.064-1.137.038-2.013 1.03-2.013 2.17v.015c-1.527.618-2.648 1.997-2.968 3.695-.324 1.722.253 3.402 1.507 4.385 1.139.894 2.73 1.524 4.279 2.072.226.08.914.323.766 1.203-.08.475-.488 1.28-1.514 1.287-1.158.007-1.424-.03-2.22-.545-.952-.615-2.256-.425-2.908.501-.682.969-.421 2.302.562 2.945.938.614 1.695.94 2.497 1.107.013 1.163.98 2.098 2.155 2.059 1.137-.039 2.011-1.031 2.011-2.17v-.134c1.814-.718 3.187-2.336 3.527-4.359.435-2.592-.966-4.932-3.487-5.823z"/>
                </g>
                <g transform="translate(-1123 -428) translate(1123.135 428) translate(.865 86)">
                    <ellipse cx="9.031" cy="9.007" fill="#FFF0AF" rx="8.894" ry="8.757"/>
                    <path fill="#FFE07D" d="M12.698 1.03c.506 1.1.79 2.322.79 3.61 0 4.836-3.981 8.756-8.893 8.756-1.307 0-2.548-.28-3.666-.779 1.397 3.035 4.498 5.148 8.102 5.148 4.913 0 8.894-3.921 8.894-8.757 0-3.55-2.145-6.603-5.227-7.978z"/>
                </g>
                <path fill="#FFF0AF" d="M81.333 37H68.397c-.737 0-1.433-.175-2.048-.485-.666-.335.306-1.658-.12-2.261-.49-.693-2.362-1.605-2.362-1.605l-.002-.149c0-2.485 2.03-4.5 4.532-4.5h12.936c2.503 0 4.532 2.015 4.532 4.5s-2.03 4.5-4.532 4.5z" transform="translate(-1123 -428) translate(1123.135 428)"/>
                <path fill="#FFE07D" d="M81.556 28c.002.05.008.099.008.15 0 2.488-2.03 4.505-4.534 4.505H64.09c-.076 0-.15-.008-.225-.012.08 2.42 2.073 4.357 4.526 4.357h12.94c2.504 0 4.534-2.017 4.534-4.506 0-2.412-1.91-4.376-4.309-4.494z" transform="translate(-1123 -428) translate(1123.135 428)"/>
            </g>
        </g>
    </g>
</svg>
