<svg xmlns="http://www.w3.org/2000/svg" width="200" height="157" viewBox="0 0 200 157">
    <g fill="none" fill-rule="evenodd">
        <g fill="#FFB29F" fill-rule="nonzero">
            <g>
                <path d="M32.317 127.25c-2.265-3.519-6.121-5.62-10.317-5.62s-8.052 2.101-10.317 5.62l-5.456 8.48c-.905 1.407-1.323 3.033-1.208 4.7.114 1.668.751 3.22 1.841 4.492 1.091 1.27 2.532 2.139 4.168 2.511 1.636.373 3.313.214 4.85-.46l.103-.045c3.866-1.659 8.284-1.644 12.14.046.995.435 2.05.656 3.113.656.578 0 1.16-.066 1.736-.196 1.636-.373 3.077-1.24 4.168-2.512 1.09-1.27 1.728-2.823 1.843-4.491.115-1.668-.302-3.293-1.208-4.7l-5.456-8.48z" transform="translate(-373 -147) translate(373.973 147.906) rotate(48 22 134.63)"/>
                <path d="M23.957 119.628c1.635-.616 2.876-1.908 3.496-3.64.59-1.646.542-3.506-.136-5.235-.679-1.729-1.914-3.14-3.477-3.974-1.642-.876-3.446-1.018-5.078-.401-3.282 1.238-4.789 5.219-3.357 8.875 1.143 2.91 3.81 4.747 6.506 4.747.689 0 1.38-.12 2.046-.372z" transform="translate(-373 -147) translate(373.973 147.906) rotate(48 21.363 113)"/>
                <path d="M36.378 125.473c4.136 0 7.5-3.812 7.5-8.499 0-4.687-3.364-8.5-7.5-8.5-4.135 0-7.5 3.813-7.5 8.5 0 4.687 3.365 8.5 7.5 8.5z" transform="translate(-373 -147) translate(373.973 147.906) rotate(48 36.379 116.973)"/>
                <path d="M42.045 137.697c.637.205 1.287.302 1.934.302 3.02 0 5.963-2.125 7.086-5.393.647-1.88.604-3.869-.12-5.598-.757-1.811-2.161-3.126-3.953-3.702-1.793-.576-3.73-.335-5.458.676-1.65.967-2.915 2.535-3.561 4.416-1.364 3.967.463 8.139 4.072 9.3z" transform="translate(-373 -147) translate(373.973 147.906) rotate(48 44.52 130.5)"/>
                <path d="M45.1 139.316v-.001c-2.75-2.108-6.86-1.194-9.164 2.038-2.303 3.233-1.943 7.58.802 9.69 1 .77 2.183 1.137 3.393 1.137 2.11 0 4.305-1.118 5.772-3.173 2.302-3.234 1.942-7.58-.802-9.69z" transform="translate(-373 -147) translate(373.973 147.906) rotate(48 40.92 145.18)"/>
                <path d="M131.317 112.25c-2.265-3.519-6.121-5.62-10.317-5.62s-8.052 2.101-10.317 5.62l-5.456 8.48c-.905 1.407-1.323 3.033-1.208 4.7.114 1.668.751 3.22 1.841 4.492 1.091 1.27 2.532 2.139 4.168 2.511 1.636.373 3.313.214 4.85-.46l.103-.045c3.866-1.659 8.284-1.644 12.14.046.995.435 2.05.656 3.113.656.578 0 1.16-.066 1.736-.196 1.636-.373 3.077-1.24 4.168-2.512 1.09-1.27 1.728-2.823 1.843-4.491.115-1.668-.302-3.293-1.208-4.7l-5.456-8.48z" transform="translate(-373 -147) translate(373.973 147.906) rotate(48 121 119.63)"/>
                <path d="M122.957 104.628c1.635-.616 2.876-1.908 3.496-3.64.59-1.646.542-3.506-.136-5.235-.679-1.729-1.914-3.14-3.477-3.974-1.642-.876-3.446-1.018-5.078-.401-3.282 1.238-4.789 5.219-3.357 8.875 1.143 2.91 3.81 4.747 6.506 4.747.689 0 1.38-.12 2.046-.372z" transform="translate(-373 -147) translate(373.973 147.906) rotate(48 120.363 98)"/>
                <path d="M135.378 110.473c4.136 0 7.5-3.812 7.5-8.499 0-4.687-3.364-8.5-7.5-8.5-4.135 0-7.5 3.813-7.5 8.5 0 4.687 3.365 8.5 7.5 8.5z" transform="translate(-373 -147) translate(373.973 147.906) rotate(48 135.379 101.973)"/>
                <path d="M141.045 122.697c.637.205 1.287.302 1.934.302 3.02 0 5.963-2.125 7.086-5.393.647-1.88.604-3.869-.12-5.598-.757-1.811-2.161-3.126-3.953-3.702-1.793-.576-3.73-.335-5.458.676-1.65.967-2.915 2.535-3.561 4.416-1.364 3.967.463 8.139 4.072 9.3z" transform="translate(-373 -147) translate(373.973 147.906) rotate(48 143.52 115.5)"/>
                <path d="M144.1 124.316v-.001c-2.75-2.108-6.86-1.194-9.164 2.038-2.303 3.233-1.943 7.58.802 9.69 1 .77 2.183 1.137 3.393 1.137 2.11 0 4.305-1.118 5.772-3.173 2.302-3.234 1.942-7.58-.802-9.69z" transform="translate(-373 -147) translate(373.973 147.906) rotate(48 139.92 130.18)"/>
                <path d="M176.317 24.25c-2.265-3.519-6.121-5.62-10.317-5.62s-8.052 2.101-10.317 5.62l-5.456 8.48c-.905 1.407-1.323 3.033-1.208 4.7.114 1.668.751 3.22 1.841 4.492 1.091 1.27 2.532 2.139 4.168 2.511 1.636.373 3.313.214 4.85-.46l.103-.045c3.866-1.659 8.284-1.644 12.14.046.995.435 2.05.656 3.113.656.578 0 1.16-.066 1.736-.196 1.636-.373 3.077-1.24 4.168-2.512 1.09-1.27 1.728-2.823 1.843-4.491.115-1.668-.302-3.293-1.208-4.7l-5.456-8.48z" transform="translate(-373 -147) translate(373.973 147.906) rotate(48 166 31.63)"/>
                <path d="M167.957 16.628c1.635-.616 2.876-1.908 3.496-3.64.59-1.646.542-3.506-.136-5.235-.679-1.729-1.914-3.14-3.477-3.974-1.642-.876-3.446-1.018-5.078-.401-3.282 1.238-4.789 5.219-3.357 8.875 1.143 2.91 3.81 4.747 6.506 4.747.689 0 1.38-.12 2.046-.372z" transform="translate(-373 -147) translate(373.973 147.906) rotate(48 165.363 10)"/>
                <path d="M180.378 22.473c4.136 0 7.5-3.812 7.5-8.499 0-4.687-3.364-8.5-7.5-8.5-4.135 0-7.5 3.813-7.5 8.5 0 4.687 3.365 8.5 7.5 8.5z" transform="translate(-373 -147) translate(373.973 147.906) rotate(48 180.379 13.973)"/>
                <path d="M186.045 34.697c.637.205 1.287.302 1.934.302 3.02 0 5.963-2.125 7.086-5.393.647-1.88.604-3.869-.12-5.598-.757-1.811-2.161-3.126-3.953-3.702-1.793-.576-3.73-.335-5.458.676-1.65.967-2.915 2.535-3.561 4.416-1.364 3.967.463 8.139 4.072 9.3z" transform="translate(-373 -147) translate(373.973 147.906) rotate(48 188.52 27.5)"/>
                <path d="M189.1 36.316v-.001c-2.75-2.108-6.86-1.194-9.164 2.038-2.303 3.233-1.943 7.58.802 9.69 1 .77 2.183 1.137 3.393 1.137 2.11 0 4.305-1.118 5.772-3.173 2.302-3.234 1.942-7.58-.802-9.69z" transform="translate(-373 -147) translate(373.973 147.906) rotate(48 184.92 42.18)"/>
            </g>
        </g>
    </g>
</svg>
