<svg xmlns="http://www.w3.org/2000/svg" width="200" height="157" viewBox="0 0 200 157">
    <g fill="none" fill-rule="evenodd">
        <g fill="#FFB29F" fill-rule="nonzero">
            <g>
                <path d="M187.838 127.25c-2.265-3.519-6.121-5.62-10.317-5.62s-8.053 2.101-10.317 5.62l-5.456 8.48c-.906 1.407-1.323 3.033-1.208 4.7.114 1.668.751 3.22 1.841 4.492 1.091 1.27 2.532 2.139 4.168 2.511 1.636.373 3.313.214 4.85-.46l.103-.045c3.866-1.659 8.284-1.644 12.14.046.995.435 2.05.656 3.113.656.578 0 1.16-.066 1.736-.196 1.636-.373 3.077-1.24 4.168-2.512 1.09-1.27 1.728-2.823 1.843-4.491.115-1.668-.302-3.293-1.208-4.7l-5.456-8.48z" transform="translate(-1087 -147) translate(1087.453 147.906) scale(-1 1) rotate(48 0 -264.089)"/>
                <path d="M180.751 119.628c1.635-.616 2.876-1.908 3.496-3.64.59-1.646.542-3.506-.136-5.235-.679-1.729-1.913-3.14-3.477-3.974-1.642-.876-3.446-1.018-5.078-.401-3.282 1.238-4.789 5.219-3.357 8.875 1.143 2.91 3.81 4.747 6.506 4.747.689 0 1.38-.12 2.046-.372z" transform="translate(-1087 -147) translate(1087.453 147.906) scale(-1 1) rotate(48 0 -287.148)"/>
                <path d="M163.142 125.473c4.135 0 7.5-3.812 7.5-8.499 0-4.687-3.365-8.5-7.5-8.5-4.136 0-7.5 3.813-7.5 8.5 0 4.687 3.364 8.5 7.5 8.5z" transform="translate(-1087 -147) translate(1087.453 147.906) scale(-1 1) rotate(48 0 -249.45)"/>
                <path d="M152.524 137.697c.637.205 1.287.302 1.934.302 3.02 0 5.963-2.125 7.086-5.393.647-1.88.604-3.869-.12-5.598-.757-1.811-2.161-3.126-3.953-3.702-1.792-.576-3.73-.335-5.458.676-1.65.967-2.915 2.535-3.561 4.416-1.364 3.967.463 8.139 4.072 9.3z" transform="translate(-1087 -147) translate(1087.453 147.906) scale(-1 1) rotate(48 0 -217.636)"/>
                <path d="M162.783 139.316l-.001-.001c-2.749-2.108-6.859-1.194-9.164 2.038-2.302 3.233-1.942 7.58.802 9.69 1.001.77 2.184 1.137 3.394 1.137 2.11 0 4.304-1.118 5.771-3.173 2.302-3.234 1.943-7.58-.802-9.69z" transform="translate(-1087 -147) translate(1087.453 147.906) scale(-1 1) rotate(48 0 -211.045)"/>
                <path d="M88.838 112.25c-2.265-3.519-6.121-5.62-10.317-5.62s-8.053 2.101-10.317 5.62l-5.456 8.48c-.906 1.407-1.323 3.033-1.208 4.7.114 1.668.751 3.22 1.841 4.492 1.091 1.27 2.532 2.139 4.168 2.511 1.636.373 3.313.214 4.85-.46l.103-.045c3.866-1.659 8.284-1.644 12.14.046.995.435 2.05.656 3.113.656.578 0 1.16-.066 1.736-.196 1.636-.373 3.077-1.24 4.168-2.512 1.09-1.27 1.728-2.823 1.843-4.491.115-1.668-.302-3.293-1.208-4.7l-5.456-8.48z" transform="translate(-1087 -147) translate(1087.453 147.906) scale(-1 1) rotate(48 0 -56.731)"/>
                <path d="M81.751 104.628c1.635-.616 2.876-1.908 3.496-3.64.59-1.646.542-3.506-.136-5.235-.679-1.729-1.913-3.14-3.477-3.974-1.642-.876-3.446-1.018-5.078-.401-3.282 1.238-4.789 5.219-3.357 8.875 1.143 2.91 3.81 4.747 6.506 4.747.689 0 1.38-.12 2.046-.372z" transform="translate(-1087 -147) translate(1087.453 147.906) scale(-1 1) rotate(48 0 -79.79)"/>
                <path d="M64.142 110.473c4.135 0 7.5-3.812 7.5-8.499 0-4.687-3.365-8.5-7.5-8.5-4.136 0-7.5 3.813-7.5 8.5 0 4.687 3.364 8.5 7.5 8.5z" transform="translate(-1087 -147) translate(1087.453 147.906) scale(-1 1) rotate(48 0 -42.092)"/>
                <path d="M53.524 122.697c.637.205 1.287.302 1.934.302 3.02 0 5.963-2.125 7.086-5.393.647-1.88.604-3.869-.12-5.598-.757-1.811-2.161-3.126-3.953-3.702-1.792-.576-3.73-.335-5.458.676-1.65.967-2.915 2.535-3.561 4.416-1.364 3.967.463 8.139 4.072 9.3z" transform="translate(-1087 -147) translate(1087.453 147.906) scale(-1 1) rotate(48 0 -10.279)"/>
                <path d="M63.783 124.316l-.001-.001c-2.749-2.108-6.859-1.194-9.164 2.038-2.302 3.233-1.942 7.58.802 9.69 1.001.77 2.184 1.137 3.394 1.137 2.11 0 4.304-1.118 5.771-3.173 2.302-3.234 1.943-7.58-.802-9.69z" transform="translate(-1087 -147) translate(1087.453 147.906) scale(-1 1) rotate(48 0 -3.687)"/>
                <path d="M43.838 24.25c-2.265-3.519-6.121-5.62-10.317-5.62s-8.053 2.101-10.317 5.62l-5.456 8.48c-.906 1.407-1.323 3.033-1.208 4.7.114 1.668.751 3.22 1.841 4.492 1.091 1.27 2.532 2.139 4.168 2.511 1.636.373 3.313.214 4.85-.46l.103-.045c3.866-1.659 8.284-1.644 12.14.046.995.435 2.05.656 3.113.656.578 0 1.16-.066 1.736-.196 1.636-.373 3.077-1.24 4.168-2.512 1.09-1.27 1.728-2.823 1.843-4.491.115-1.668-.302-3.293-1.208-4.7l-5.456-8.48z" transform="translate(-1087 -147) translate(1087.453 147.906) scale(-1 1) rotate(48 0 -43.66)"/>
                <path d="M36.751 16.628c1.635-.616 2.876-1.908 3.496-3.64.59-1.646.542-3.506-.136-5.235-.679-1.729-1.913-3.14-3.477-3.974-1.642-.876-3.446-1.018-5.078-.401-3.282 1.238-4.789 5.219-3.357 8.875 1.143 2.91 3.81 4.747 6.506 4.747.689 0 1.38-.12 2.046-.372z" transform="translate(-1087 -147) translate(1087.453 147.906) scale(-1 1) rotate(48 0 -66.719)"/>
                <path d="M19.142 22.473c4.135 0 7.5-3.812 7.5-8.499 0-4.687-3.365-8.5-7.5-8.5-4.136 0-7.5 3.813-7.5 8.5 0 4.687 3.364 8.5 7.5 8.5z" transform="translate(-1087 -147) translate(1087.453 147.906) scale(-1 1) rotate(48 0 -29.02)"/>
                <path d="M8.524 34.697c.637.205 1.287.302 1.934.302 3.02 0 5.963-2.125 7.086-5.393.647-1.88.604-3.869-.12-5.598-.757-1.811-2.161-3.126-3.953-3.702-1.792-.576-3.73-.335-5.458.676-1.65.967-2.915 2.535-3.561 4.416-1.364 3.967.463 8.139 4.072 9.3z" transform="translate(-1087 -147) translate(1087.453 147.906) scale(-1 1) rotate(48 0 2.793)"/>
                <path d="M18.783 36.316l-.001-.001c-2.749-2.108-6.859-1.194-9.164 2.038-2.302 3.233-1.942 7.58.802 9.69 1.001.77 2.184 1.137 3.394 1.137 2.11 0 4.304-1.118 5.771-3.173 2.302-3.234 1.943-7.58-.802-9.69z" transform="translate(-1087 -147) translate(1087.453 147.906) scale(-1 1) rotate(48 0 9.384)"/>
            </g>
        </g>
    </g>
</svg>
