<svg xmlns="http://www.w3.org/2000/svg" width="123" height="143" viewBox="0 0 123 143">
    <g fill="none" fill-rule="evenodd">
        <g fill-rule="nonzero">
            <g transform="translate(-628 -427) translate(628 427.581)">
                <path fill="#057096" d="M97.474 43.233v-3.015l-1.391-4.8H19.917l-1.391 4.8v3.015c0 6.043-2.221 11.874-6.237 16.37l-4.916 5.503C2.626 70.421 0 77.313 0 84.458c0 15.995 12.894 28.96 28.8 28.96h58.4c15.906 0 28.8-12.965 28.8-28.96 0-7.145-2.626-14.037-7.373-19.352l-4.916-5.503c-4.016-4.496-6.237-10.327-6.237-16.37z"/>
                <path fill="#055E7F" d="M108.73 65.106l-4.845-5.503c-3.96-4.496-6.15-10.327-6.15-16.37v-3.015l-1.372-4.8h-14.12v7.747c0 6.104 2.212 11.994 6.21 16.535l4.896 5.56c4.727 5.368 7.342 12.33 7.342 19.546 0 14.061-9.726 25.803-22.691 28.613h9.606c15.682 0 28.394-12.966 28.394-28.961 0-7.144-2.589-14.037-7.27-19.352z"/>
                <path fill="#057096" d="M58.5 24.419c-.526 0-1.051-.205-1.452-.616L42.601 9.008c-.801-.822-.801-2.152 0-2.974.802-.82 2.102-.82 2.903 0L58.5 19.344l12.995-13.31c.802-.82 2.102-.82 2.904 0 .801.822.801 2.152 0 2.974L59.952 23.803c-.402.41-.927.616-1.452.616z"/>
                <path fill="#ECF4FF" d="M97 40.419H18V26.45c0-3.884 3.117-7.032 6.961-7.032H90.04c3.844 0 6.961 3.148 6.961 7.032v13.968z"/>
                <ellipse cx="94" cy="120.919" fill="#FFF0AF" rx="19" ry="18.5"/>
                <path fill="#FFE07D" d="M103.37 104.419c1.78 2.917 2.812 6.365 2.812 10.063 0 10.465-8.24 18.948-18.406 18.948-3.593 0-6.943-1.063-9.776-2.896 3.256 5.336 9.02 8.885 15.593 8.885 10.166 0 18.407-8.483 18.407-18.948 0-6.766-3.448-12.7-8.63-16.052z"/>
                <path fill="#FFD064" d="M93 141.419c-11.58 0-21-9.42-21-21s9.42-21 21-21 21 9.42 21 21-9.42 21-21 21zm0-37.782c-9.253 0-16.782 7.528-16.782 16.782 0 9.253 7.529 16.782 16.782 16.782s16.782-7.529 16.782-16.782c0-9.254-7.528-16.782-16.782-16.782z"/>
                <circle cx="41.5" cy="5.919" r="5.5" fill="#ECF4FF"/>
                <circle cx="74.5" cy="5.919" r="5.5" fill="#ECF4FF"/>
                <path fill="#DDEAFB" d="M42.08.419c-.745 0-1.448.19-2.08.52 1.677.877 2.84 2.774 2.84 4.98 0 2.206-1.163 4.103-2.84 4.98.632.33 1.335.52 2.08.52 2.717 0 4.92-2.462 4.92-5.5s-2.203-5.5-4.92-5.5zM75.08.419c-.745 0-1.448.19-2.08.52 1.677.877 2.84 2.774 2.84 4.98 0 2.206-1.163 4.103-2.84 4.98.632.33 1.335.52 2.08.52 2.717 0 4.92-2.462 4.92-5.5s-2.203-5.5-4.92-5.5zM81.343 26.675v13.744H97V26.45c0-3.884-3.103-7.032-6.932-7.032H76c3.088.926 5.343 3.823 5.343 7.256z"/>
                <g fill="#004C67">
                    <path d="M12.874 11.745c-1.176 0-2.13-.885-2.13-1.977V7.052c0-1.622-1.42-2.942-3.168-2.942-1.748 0-3.17 1.32-3.17 2.942v2.716c0 1.092-.953 1.977-2.129 1.977-1.175 0-2.129-.885-2.129-1.977V7.052C.148 3.25 3.48.157 7.576.157c4.095 0 7.426 3.093 7.426 6.895v2.716c.001 1.092-.952 1.977-2.128 1.977z" transform="translate(24 49.419)"/>
                    <path d="M23.47 11.745c-1.175 0-2.129-.885-2.129-1.977V7.052c0-1.622-1.421-2.942-3.169-2.942s-3.17 1.32-3.17 2.942v2.716c0 1.092-.952 1.977-2.128 1.977-1.176 0-2.13-.885-2.13-1.977V7.052c0-3.802 3.332-6.895 7.428-6.895 4.095 0 7.427 3.093 7.427 6.895v2.716c0 1.092-.953 1.977-2.129 1.977z" transform="translate(24 49.419)"/>
                    <path d="M34.067 11.745c-1.176 0-2.13-.885-2.13-1.977V7.052c0-1.622-1.421-2.942-3.169-2.942-1.747 0-3.169 1.32-3.169 2.942v2.716c0 1.092-.953 1.977-2.129 1.977-1.176 0-2.129-.885-2.129-1.977V7.052c0-3.802 3.332-6.895 7.427-6.895s7.427 3.093 7.427 6.895v2.716c0 1.092-.952 1.977-2.128 1.977z" transform="translate(24 49.419)"/>
                    <path d="M44.663 11.745c-1.176 0-2.13-.885-2.13-1.977V7.052c0-1.622-1.421-2.942-3.169-2.942-1.747 0-3.169 1.32-3.169 2.942v2.716c0 1.092-.953 1.977-2.129 1.977-1.175 0-2.129-.885-2.129-1.977V7.052c0-3.802 3.332-6.895 7.427-6.895 4.096 0 7.427 3.093 7.427 6.895v2.716c0 1.092-.952 1.977-2.128 1.977z" transform="translate(24 49.419)"/>
                    <path d="M55.259 11.745c-1.176 0-2.13-.885-2.13-1.977V7.052c0-1.622-1.42-2.942-3.168-2.942-1.748 0-3.17 1.32-3.17 2.942v2.716c0 1.092-.952 1.977-2.128 1.977-1.176 0-2.13-.885-2.13-1.977V7.052c0-3.802 3.332-6.895 7.428-6.895 4.095 0 7.427 3.093 7.427 6.895v2.716c0 1.092-.953 1.977-2.129 1.977z" transform="translate(24 49.419)"/>
                    <path d="M65.855 11.745c-1.176 0-2.129-.885-2.129-1.977V7.052c0-1.622-1.421-2.942-3.169-2.942-1.747 0-3.17 1.32-3.17 2.942v2.716c0 1.092-.952 1.977-2.128 1.977-1.176 0-2.13-.885-2.13-1.977V7.052c0-3.802 3.332-6.895 7.428-6.895 4.095 0 7.427 3.093 7.427 6.895v2.716c0 1.092-.953 1.977-2.129 1.977z" transform="translate(24 49.419)"/>
                </g>
                <path fill="#CBE2FF" d="M18 30.419L97 30.419 97 34.419 18 34.419z"/>
                <ellipse cx="77" cy="109.919" fill="#FFF0AF" rx="19" ry="18.5"/>
                <path fill="#FFE07D" d="M87.37 93.419c1.78 2.917 2.812 6.365 2.812 10.063 0 10.465-8.24 18.948-18.406 18.948-3.593 0-6.943-1.063-9.776-2.896 3.256 5.336 9.02 8.885 15.593 8.885C87.76 128.419 96 119.936 96 109.47c0-6.766-3.448-12.7-8.63-16.052z"/>
                <path fill="#FFD064" d="M76 130.419c-11.58 0-21-9.42-21-21s9.42-21 21-21 21 9.42 21 21-9.42 21-21 21zm0-37.782c-9.253 0-16.782 7.529-16.782 16.782 0 9.254 7.529 16.782 16.782 16.782s16.782-7.528 16.782-16.782c0-9.253-7.528-16.782-16.782-16.782z"/>
                <path fill="#FFD064" d="M79.564 106.848c-1.595-.521-3.354-1.149-4.313-1.844-.15-.109-.26-.46-.172-.896.044-.217.248-.941 1.021-1.157 1.688-.47 2.76.312 2.877.403l-.036-.03.618.298c2.344 1.134 4.476-1.802 2.456-3.382-.56-.478-1.561-1.058-2.86-1.382v-.253c0-1.15-.956-2.15-2.197-2.185-1.284-.036-2.337.917-2.337 2.097v.47c-2.053.638-3.578 2.285-3.997 4.343-.4 1.96.301 3.866 1.83 4.975 1.47 1.067 3.56 1.832 5.599 2.499 1.365.446 1.502 1.357 1.378 2.043-.175.963-1.05 2.003-2.558 2.012-1.647.01-2.1-.051-3.294-.766-1.034-.62-2.453-.43-3.163.502-.744.975-.46 2.318.61 2.966 1.367.828 2.408 1.211 3.595 1.378v.294c0 1.15.957 2.15 2.198 2.185 1.284.035 2.336-.917 2.336-2.097v-.607c2.657-.822 4.355-3.01 4.747-5.17.541-2.98-1.202-5.67-4.338-6.696z"/>
                <path fill="#004C67" d="M92.227 77.419c-2.677 0-4.13-.699-5.297-1.26-1-.48-1.721-.827-3.387-.827-1.665 0-2.387.347-3.386.827-1.167.561-2.62 1.26-5.296 1.26s-4.129-.699-5.296-1.26c-1-.48-1.721-.827-3.386-.827s-2.387.347-3.386.827c-1.167.561-2.62 1.26-5.296 1.26s-4.129-.699-5.296-1.26c-1-.48-1.721-.827-3.386-.827s-2.386.347-3.385.827c-1.167.561-2.62 1.26-5.296 1.26-2.675 0-4.128-.699-5.295-1.26-.999-.48-1.72-.827-3.385-.827-1.665 0-2.387.347-3.386.827-1.167.561-2.62 1.26-5.296 1.26s-4.128-.699-5.296-1.26c-.999-.48-1.72-.827-3.385-.827-1.155 0-2.091-.876-2.091-1.956 0-1.081.936-1.957 2.09-1.957 2.676 0 4.13.698 5.297 1.26.998.48 1.72.827 3.385.827 1.665 0 2.387-.347 3.386-.827 1.167-.562 2.62-1.26 5.296-1.26s4.128.698 5.295 1.26c.999.48 1.72.827 3.385.827 1.665 0 2.386-.347 3.385-.827 1.168-.562 2.62-1.26 5.296-1.26s4.129.698 5.296 1.26c1 .48 1.72.827 3.386.827 1.665 0 2.387-.347 3.386-.827 1.167-.562 2.62-1.26 5.296-1.26s4.128.698 5.296 1.26c.999.48 1.72.827 3.386.827 1.665 0 2.387-.347 3.386-.827 1.167-.562 2.62-1.26 5.296-1.26s4.13.698 5.297 1.26c.999.48 1.72.827 3.386.827 1.665 0 2.387-.347 3.387-.827 1.167-.562 2.62-1.26 5.296-1.26 1.155 0 2.091.876 2.091 1.957 0 1.08-.936 1.956-2.09 1.956-1.666 0-2.388.347-3.387.828-1.167.56-2.62 1.259-5.296 1.259z"/>
                <g transform="translate(98 65.419)">
                    <circle cx="12.501" cy="12.476" r="12.279" fill="#FFF0AF"/>
                    <path fill="#FFE07D" d="M17.562 1.29c.7 1.543 1.092 3.256 1.092 5.061 0 6.782-5.497 12.28-12.279 12.28-1.805 0-3.518-.393-5.061-1.093 1.928 4.256 6.21 7.218 11.187 7.218 6.781 0 12.279-5.497 12.279-12.28 0-4.976-2.962-9.258-7.218-11.186z"/>
                </g>
            </g>
        </g>
    </g>
</svg>
