<svg xmlns="http://www.w3.org/2000/svg" width="100" height="81" viewBox="0 0 100 81">
    <g fill="none" fill-rule="evenodd">
        <g fill-rule="nonzero">
            <g>
                <path fill="#FFD15C" d="M96.399 40.06c-2.073.207-4.146-1.035-4.975-3.106-.829-2.071-.207-4.349 1.244-5.799l-1.036-2.278c-2.073.208-4.146-1.035-4.975-3.106-.829-2.07-.207-4.349 1.244-5.798l-1.036-2.278c-2.073.207-4.146-1.035-4.975-3.106-.829-2.071-.207-4.35 1.244-5.799l-.83-1.864c-2.694 1.243-6.01 0-7.046-2.899L3.129 35.09c1.244 2.692 0 6.005-2.901 7.04l.829 1.865c2.073-.207 4.145 1.035 4.974 3.106.83 2.07.208 4.349-1.243 5.798l1.036 2.278c2.073-.207 4.145 1.036 4.974 3.106.83 2.071.208 4.35-1.243 5.799l1.036 2.278c2.073-.207 4.145 1.035 4.974 3.106.83 2.071.208 4.349-1.243 5.798l.829 1.864c2.694-1.242 6.01 0 7.047 2.9l72.128-30.856c-1.243-2.692 0-6.006 2.902-7.041l-.83-2.071z" transform="translate(-1012 -455) translate(1012 455)"/>
                <path fill="#1B386A" d="M84.228 43.256L24.922 68.027 13.228 41.004l59.306-24.977 11.694 27.229zM26.384 64.547l54.294-22.93-9.606-21.905-54.294 22.93 9.606 21.905z" transform="translate(-1012 -455) translate(1012 455)"/>
                <g fill="#FFF">
                    <path d="M0.949 21.889L3.861 20.406 7.398 28.881 9.27 28.245 5.734 19.77 8.646 18.287 8.022 16.592 0.117 19.982z" transform="translate(-1012 -455) translate(1012 455) translate(23.228 27.027)"/>
                    <path d="M10.793 15.429L12.879 15.415 12.805 26.612 10.719 26.626z" transform="translate(-1012 -455) translate(1012 455) translate(23.228 27.027) rotate(-23.217 11.8 21.02)"/>
                    <path d="M22.375 19.135c-.208 1.059-.832 1.906-1.872 2.33-1.872.848-3.952 0-4.784-2.119-.832-2.118-.208-4.025 1.872-4.873.832-.423 2.08-.212 2.912.212l.208.212 1.248-1.695-.416-.212c-1.456-.847-3.12-1.059-4.784-.423-2.912 1.271-4.16 4.449-2.912 7.627 1.248 2.966 4.368 4.238 7.488 2.966 1.664-.635 2.497-1.907 2.913-3.813v-.424l-2.08-.212.207.424zM29.448 7.27L27.16 8.117 25.288 14.05 23.416 9.812 21.751 10.66 25.912 20.83 27.784 19.982 26.328 16.592 26.744 15.745 31.736 18.287 34.233 17.228 27.368 13.838zM34.649 17.016L41.513 14.05 40.681 12.355 35.689 14.474 34.649 11.931 39.433 9.812 38.809 8.117 33.817 10.236 32.984 7.694 37.977 5.575 37.145 3.88 30.28 6.846zM37.769 3.456L38.601 5.363 41.513 4.092 45.05 12.567 46.922 11.719 43.386 3.244 46.506 1.973 45.674.066z" transform="translate(-1012 -455) translate(1012 455) translate(23.228 27.027)"/>
                </g>
                <path fill="#231F20" d="M91.214 36.519c-.83-2.044-.207-4.292 1.244-5.722l-1.036-2.248c-2.074.205-4.148-1.021-4.977-3.065-.83-2.044-.208-4.291 1.244-5.722l-1.037-2.248c-2.074.205-4.147-1.021-4.977-3.065-.83-2.043-.207-4.291 1.244-5.722l-.83-1.839c-2.695 1.226-6.013 0-7.05-2.86L7.228 32.635v1.022l2.074.613c.622.204 1.451.817 1.451 1.839s-.622 1.635-1.451 1.84l-2.074.612v7.152h3.318c1.244 0 2.28 1.022 2.28 2.248v3.065h74.24l7.259-3.065c-1.245-2.656 0-5.926 2.903-6.948l-.83-1.43c-2.073.204-4.147-1.022-5.184-3.065z" opacity=".1" transform="translate(-1012 -455) translate(1012 455)"/>
                <path fill="#FFD15C" d="M99.228 40.674c-2.07-.613-3.519-2.45-3.519-4.698 0-2.246 1.45-4.085 3.519-4.698v-2.655c-2.07-.613-3.519-2.451-3.519-4.698 0-2.246 1.45-4.085 3.519-4.698v-2.45c-2.07-.613-3.519-2.452-3.519-4.698 0-2.247 1.449-4.086 3.519-4.698V5.338c-2.898 0-5.381-2.451-5.381-5.31H15.609c0 2.859-2.483 5.31-5.381 5.31v1.838c2.07.613 3.519 2.451 3.519 4.698 0 2.247-1.656 4.085-3.52 4.902v2.656c2.07.612 3.52 2.45 3.52 4.697s-1.45 4.086-3.52 4.698v2.656c2.07.613 3.52 2.45 3.52 4.698 0 2.246-1.45 4.085-3.52 4.697v1.839c2.898 0 5.382 2.45 5.382 5.31h78.237c0-2.86 2.484-5.31 5.382-5.31v-2.043z" transform="translate(-1012 -455) translate(1012 455)"/>
                <path fill="#1B386A" d="M86.228 39.027h-64v-30h64v30zM24.92 36.3h58.615V11.755H24.92V36.3z" transform="translate(-1012 -455) translate(1012 455)"/>
                <g fill="#FFF">
                    <path d="M.141 2.261L3.215 2.261 3.215 10.866 5.265 10.866 5.265 2.261 8.545 2.261 8.545.501.141.501zM9.364.501H11.414000000000001V10.865H9.364zM20.638 7.932c-.615.783-1.435 1.174-2.46 1.174-2.05 0-3.484-1.565-3.484-3.52 0-1.956 1.434-3.52 3.484-3.52 1.025 0 1.845.39 2.46 1.173l.205.196 1.64-.978-.206-.391C21.253.696 19.817.11 18.178.11c-3.28 0-5.534 2.151-5.534 5.28 0 3.129 2.254 5.28 5.534 5.28 1.64 0 3.075-.782 4.1-2.151l.204-.391-1.64-.978-.204.782zM31.706.501L29.041.501 25.147 4.803 25.147.501 23.097.501 23.097 10.866 25.147 10.866 25.147 7.346 25.762 6.759 29.451 10.866 31.911 10.866 27.197 5.39zM32.526 10.866L39.7 10.866 39.7 9.106 34.371 9.106 34.371 6.368 39.7 6.368 39.7 4.608 34.371 4.608 34.371 2.261 39.7 2.261 39.7.501 32.526.501zM40.52.501L40.52 2.261 43.799 2.261 43.799 10.866 45.644 10.866 45.644 2.261 48.923 2.261 48.923.501z" transform="translate(-1012 -455) translate(1012 455) translate(31.228 19.027)"/>
                </g>
            </g>
        </g>
    </g>
</svg>
